<mxfile host="app.diagrams.net" modified="2023-04-13T21:34:10.360Z" agent="Mozilla/5.0 (Windows NT 10.0; Win64; x64) AppleWebKit/537.36 (KHTML, like Gecko) Chrome/112.0.0.0 Safari/537.36" etag="mb3oDPYg4G7JV2r6_Fp4" version="21.1.4" type="github">
  <diagram id="_J2svR2ScY5zIx5o-V5T" name="PÃ¡gina-1">
    <mxGraphModel dx="1050" dy="491" grid="1" gridSize="10" guides="1" tooltips="1" connect="1" arrows="1" fold="1" page="1" pageScale="1" pageWidth="2339" pageHeight="3300" math="0" shadow="0">
      <root>
        <mxCell id="0" />
        <mxCell id="1" parent="0" />
        <mxCell id="KRZaoDTdxEfFL83f29zF-5" value="CCM1" style="rounded=0;whiteSpace=wrap;html=1;labelPosition=center;verticalLabelPosition=top;align=center;verticalAlign=bottom;fillColor=#fff2cc;strokeColor=#d6b656;" parent="1" vertex="1">
          <mxGeometry x="422.5" y="2120" width="280" height="380" as="geometry" />
        </mxCell>
        <mxCell id="YqGnJfE8anXnEQxnJChY-19" style="edgeStyle=orthogonalEdgeStyle;rounded=0;orthogonalLoop=1;jettySize=auto;html=1;exitX=0.25;exitY=1;exitDx=0;exitDy=0;" parent="1" edge="1">
          <mxGeometry relative="1" as="geometry">
            <mxPoint x="430" y="339.67999999999995" as="sourcePoint" />
            <mxPoint x="430" y="218.68" as="targetPoint" />
            <Array as="points">
              <mxPoint x="430" y="299.67999999999995" />
              <mxPoint x="430" y="299.67999999999995" />
            </Array>
          </mxGeometry>
        </mxCell>
        <mxCell id="YqGnJfE8anXnEQxnJChY-28" style="edgeStyle=orthogonalEdgeStyle;rounded=0;orthogonalLoop=1;jettySize=auto;html=1;entryX=0;entryY=0.14;entryDx=0;entryDy=0;entryPerimeter=0;" parent="1" source="YqGnJfE8anXnEQxnJChY-1" target="YqGnJfE8anXnEQxnJChY-2" edge="1">
          <mxGeometry relative="1" as="geometry">
            <Array as="points">
              <mxPoint x="358" y="150" />
              <mxPoint x="358" y="151" />
            </Array>
          </mxGeometry>
        </mxCell>
        <mxCell id="YqGnJfE8anXnEQxnJChY-1" value="" style="shape=image;verticalLabelPosition=bottom;labelBackgroundColor=#ffffff;verticalAlign=top;aspect=fixed;imageAspect=0;image=data:image/svg+xml,PHN2ZyB4bWxuczpjYz0iaHR0cDovL2NyZWF0aXZlY29tbW9ucy5vcmcvbnMjIiB4bWxuczpkYz0iaHR0cDovL3B1cmwub3JnL2RjL2VsZW1lbnRzLzEuMS8iIHhtbG5zOmlua3NjYXBlPSJodHRwOi8vd3d3Lmlua3NjYXBlLm9yZy9uYW1lc3BhY2VzL2lua3NjYXBlIiB4bWxuczpyZGY9Imh0dHA6Ly93d3cudzMub3JnLzE5OTkvMDIvMjItcmRmLXN5bnRheC1ucyMiIHhtbG5zOnNvZGlwb2RpPSJodHRwOi8vc29kaXBvZGkuc291cmNlZm9yZ2UubmV0L0RURC9zb2RpcG9kaS0wLmR0ZCIgeG1sbnM6c3ZnPSJodHRwOi8vd3d3LnczLm9yZy8yMDAwL3N2ZyIgeG1sbnM9Imh0dHA6Ly93d3cudzMub3JnLzIwMDAvc3ZnIiB4bWxuczp4bGluaz0iaHR0cDovL3d3dy53My5vcmcvMTk5OS94bGluayIgdmVyc2lvbj0iMS4xIiBpZD0ic3ZnMjMxMzAiIHg9IjBweCIgeT0iMHB4IiB2aWV3Qm94PSIwIDAgNDIgMzAiIHN0eWxlPSJlbmFibGUtYmFja2dyb3VuZDpuZXcgMCAwIDQyIDMwOyIgeG1sOnNwYWNlPSJwcmVzZXJ2ZSI+JiN4YTs8c29kaXBvZGk6bmFtZWR2aWV3IGJvcmRlcmNvbG9yPSIjNjY2NjY2IiBib3JkZXJvcGFjaXR5PSIxIiBmaXQtbWFyZ2luLWJvdHRvbT0iMCIgZml0LW1hcmdpbi1sZWZ0PSIwIiBmaXQtbWFyZ2luLXJpZ2h0PSIwIiBmaXQtbWFyZ2luLXRvcD0iMCIgZ3JpZHRvbGVyYW5jZT0iMTAiIGd1aWRldG9sZXJhbmNlPSIxMCIgaWQ9Im5hbWVkdmlldzIzMTMyIiBpbmtzY2FwZTpjdXJyZW50LWxheWVyPSJzdmcyMzEzMCIgaW5rc2NhcGU6Y3g9IjI2LjEzMzkyNSIgaW5rc2NhcGU6Y3k9IjE1Ljc4MzM2NSIgaW5rc2NhcGU6cGFnZW9wYWNpdHk9IjAiIGlua3NjYXBlOnBhZ2VzaGFkb3c9IjIiIGlua3NjYXBlOndpbmRvdy1oZWlnaHQ9IjEwMTciIGlua3NjYXBlOndpbmRvdy1tYXhpbWl6ZWQ9IjEiIGlua3NjYXBlOndpbmRvdy13aWR0aD0iMTkyMCIgaW5rc2NhcGU6d2luZG93LXg9Ii04IiBpbmtzY2FwZTp3aW5kb3cteT0iLTgiIGlua3NjYXBlOnpvb209IjE0LjU5NjcwNCIgb2JqZWN0dG9sZXJhbmNlPSIxMCIgcGFnZWNvbG9yPSIjZmZmZmZmIiBzaG93Z3JpZD0iZmFsc2UiPiYjeGE7CTwvc29kaXBvZGk6bmFtZWR2aWV3PiYjeGE7PGcgaWQ9ImcyMzEyOCIgdHJhbnNmb3JtPSJ0cmFuc2xhdGUoLTAuNzQ5OTkyMDMsLTAuNzQ5OTkyMDMpIj4mI3hhOwk8dGl0bGUgaWQ9InRpdGxlMjMwOTUiPlBhZ2UtMTwvdGl0bGU+JiN4YTsJPGcgaWQ9Imdyb3VwMTgxOS0xIiB0cmFuc2Zvcm09InRyYW5zbGF0ZSgxLjUsLTEuNSkiPiYjeGE7CQk8dGl0bGUgaWQ9InRpdGxlMjMwOTciPkFwcGxpY2F0aW9uICMxPC90aXRsZT4mI3hhOwkJPGcgaWQ9InNoYXBlMTgyMC0yIj4mI3hhOwkJCTx0aXRsZSBpZD0idGl0bGUyMzA5OSI+cmVjdDM3OTguMjc1OTE8L3RpdGxlPiYjeGE7CQkJJiN4YTsJCQkJPHBhdGggaWQ9InBhdGgyMzEwMSIgaW5rc2NhcGU6Y29ubmVjdG9yLWN1cnZhdHVyZT0iMCIgc3R5bGU9ImZpbGwtcnVsZTpldmVub2RkO2NsaXAtcnVsZTpldmVub2RkO2ZpbGw6I0ZGRkZGRjtzdHJva2U6IzU1NkE4QTtzdHJva2Utd2lkdGg6MS41O3N0cm9rZS1taXRlcmxpbWl0OjM7IiBkPSIgICAgIE0wLDI5Ljk1YzAsMC44NSwwLjY5LDEuNTUsMS41NCwxLjU1aDM3LjQxYzAuODUsMCwxLjU1LTAuNjksMS41NS0xLjU0YzAsMCwwLTAuMDEsMC0wLjAxVjQuNTRDNDAuNSwzLjY5LDM5LjgsMywzOC45NSwzSDEuNTQgICAgIEMwLjY5LDMsMCwzLjY5LDAsNC41NFYyOS45NXoiLz4mI3hhOwkJPC9nPiYjeGE7CQk8ZyBpZD0iZ3JvdXAxODIxLTQiIHRyYW5zZm9ybT0idHJhbnNsYXRlKDExLjI1LC02KSI+JiN4YTsJCQk8dGl0bGUgaWQ9InRpdGxlMjMxMDQiPmczODA4LjI3NTkyPC90aXRsZT4mI3hhOwkJCTxnIGlkPSJzaGFwZTE4MjItNSIgdHJhbnNmb3JtPSJ0cmFuc2xhdGUoMC42OTc1LC04Ljk5MjUpIj4mI3hhOwkJCQk8dGl0bGUgaWQ9InRpdGxlMjMxMDYiPnBvbHlnb24zODAyPC90aXRsZT4mI3hhOwkJCQk8cGF0aCBpZD0icGF0aDIzMTA4IiBpbmtzY2FwZTpjb25uZWN0b3ItY3VydmF0dXJlPSIwIiBzdHlsZT0iZmlsbC1ydWxlOmV2ZW5vZGQ7Y2xpcC1ydWxlOmV2ZW5vZGQ7ZmlsbDojMkJDN0Y0OyIgZD0iICAgICAgTTYuOCwyNC4zNkwwLDI3LjgxbDYuOCwzLjY5bDYuNzUtMy43Nkw2LjgsMjQuMzZ6Ii8+JiN4YTsJCQk8L2c+JiN4YTsJCQk8ZyBpZD0ic2hhcGUxODIzLTciPiYjeGE7CQkJCTx0aXRsZSBpZD0idGl0bGUyMzExMSI+cG9seWdvbjM4MDQ8L3RpdGxlPiYjeGE7CQkJCTxwYXRoIGlkPSJwYXRoMjMxMTMiIGlua3NjYXBlOmNvbm5lY3Rvci1jdXJ2YXR1cmU9IjAiIHN0eWxlPSJmaWxsLXJ1bGU6ZXZlbm9kZDtjbGlwLXJ1bGU6ZXZlbm9kZDtmaWxsOiMyQkM3RjQ7IiBkPSJNMCwyNy42NCAgICAgIGw2Ljc1LDMuODZ2LTguMjdMMCwxOS41NlYyNy42NHoiLz4mI3hhOwkJCTwvZz4mI3hhOwkJCTxnIGlkPSJzaGFwZTE4MjQtOSIgdHJhbnNmb3JtPSJ0cmFuc2xhdGUoOC4yNSkiPiYjeGE7CQkJCTx0aXRsZSBpZD0idGl0bGUyMzExNiI+cG9seWdvbjM4MDY8L3RpdGxlPiYjeGE7CQkJCTxwYXRoIGlkPSJwYXRoMjMxMTgiIGlua3NjYXBlOmNvbm5lY3Rvci1jdXJ2YXR1cmU9IjAiIHN0eWxlPSJmaWxsLXJ1bGU6ZXZlbm9kZDtjbGlwLXJ1bGU6ZXZlbm9kZDtmaWxsOiMyQkM3RjQ7IiBkPSIgICAgICBNNi43NSwyNy42NEwwLDMxLjV2LTguMjdsNi43NS0zLjY3VjI3LjY0eiIvPiYjeGE7CQkJPC9nPiYjeGE7CQk8L2c+JiN4YTsJCTxnIGlkPSJzaGFwZTE4MjUtMTEiIHRyYW5zZm9ybT0idHJhbnNsYXRlKDM2Ljc1LC0xMS4yNSkiPiYjeGE7CQkJPHRpdGxlIGlkPSJ0aXRsZTIzMTIyIj5yZWN0Mzg0Ni4yNzYwODwvdGl0bGU+JiN4YTsJCQk8cGF0aCBpZD0icGF0aDIzMTI0IiBpbmtzY2FwZTpjb25uZWN0b3ItY3VydmF0dXJlPSIwIiBzdHlsZT0iZmlsbC1ydWxlOmV2ZW5vZGQ7Y2xpcC1ydWxlOmV2ZW5vZGQ7ZmlsbDojOURBOEI3OyIgZD0iTTAsMzAuNzUgICAgIGMwLDAuNDEsMC4zNCwwLjc1LDAuNzUsMC43NWMwLjQxLDAsMC43NS0wLjM0LDAuNzUtMC43NXYtNC41YzAtMC40MS0wLjM0LTAuNzUtMC43NS0wLjc1QzAuMzQsMjUuNSwwLDI1Ljg0LDAsMjYuMjVWMzAuNzV6Ii8+JiN4YTsJCTwvZz4mI3hhOwk8L2c+JiN4YTs8L2c+JiN4YTs8L3N2Zz4=;" parent="1" vertex="1">
          <mxGeometry x="60" y="132.97000000000003" width="120" height="85.71" as="geometry" />
        </mxCell>
        <mxCell id="YqGnJfE8anXnEQxnJChY-10" style="edgeStyle=orthogonalEdgeStyle;rounded=0;orthogonalLoop=1;jettySize=auto;html=1;exitX=0.25;exitY=1;exitDx=0;exitDy=0;" parent="1" source="YqGnJfE8anXnEQxnJChY-2" target="YqGnJfE8anXnEQxnJChY-3" edge="1">
          <mxGeometry relative="1" as="geometry">
            <Array as="points">
              <mxPoint x="383" y="300" />
              <mxPoint x="383" y="300" />
            </Array>
          </mxGeometry>
        </mxCell>
        <mxCell id="YqGnJfE8anXnEQxnJChY-2" value="channel-application-paramenter" style="shape=image;verticalLabelPosition=bottom;labelBackgroundColor=#ffffff;verticalAlign=top;aspect=fixed;imageAspect=0;image=data:image/svg+xml,PHN2ZyB4bWxuczpjYz0iaHR0cDovL2NyZWF0aXZlY29tbW9ucy5vcmcvbnMjIiB4bWxuczpkYz0iaHR0cDovL3B1cmwub3JnL2RjL2VsZW1lbnRzLzEuMS8iIHhtbG5zOmlua3NjYXBlPSJodHRwOi8vd3d3Lmlua3NjYXBlLm9yZy9uYW1lc3BhY2VzL2lua3NjYXBlIiB4bWxuczpyZGY9Imh0dHA6Ly93d3cudzMub3JnLzE5OTkvMDIvMjItcmRmLXN5bnRheC1ucyMiIHhtbG5zOnNvZGlwb2RpPSJodHRwOi8vc29kaXBvZGkuc291cmNlZm9yZ2UubmV0L0RURC9zb2RpcG9kaS0wLmR0ZCIgeG1sbnM6c3ZnPSJodHRwOi8vd3d3LnczLm9yZy8yMDAwL3N2ZyIgeG1sbnM9Imh0dHA6Ly93d3cudzMub3JnLzIwMDAvc3ZnIiB4bWxuczp4bGluaz0iaHR0cDovL3d3dy53My5vcmcvMTk5OS94bGluayIgdmVyc2lvbj0iMS4xIiBpZD0ic3ZnNDg4OTYiIGlua3NjYXBlOnZlcnNpb249IjAuOTIuMyAoMjQwNTU0NiwgMjAxOC0wMy0xMSkiIHNvZGlwb2RpOmRvY25hbWU9ImFwaV9hcHBzLnN2ZyIgeD0iMHB4IiB5PSIwcHgiIHZpZXdCb3g9IjAgMCA3NS41MiA2NC41MiIgc3R5bGU9ImVuYWJsZS1iYWNrZ3JvdW5kOm5ldyAwIDAgNzUuNTIgNjQuNTI7IiB4bWw6c3BhY2U9InByZXNlcnZlIj4mI3hhOzxmaWx0ZXIgaWQ9ImZpbHRlcl8yIj4mI3hhOwk8ZmVHYXVzc2lhbkJsdXIgaWQ9ImZlR2F1c3NpYW5CbHVyNDg4NDUiIHN0ZERldmlhdGlvbj0iMiIvPiYjeGE7PC9maWx0ZXI+JiN4YTs8c29kaXBvZGk6bmFtZWR2aWV3IGJvcmRlcmNvbG9yPSIjNjY2NjY2IiBib3JkZXJvcGFjaXR5PSIxIiBmaXQtbWFyZ2luLWJvdHRvbT0iMCIgZml0LW1hcmdpbi1sZWZ0PSIwIiBmaXQtbWFyZ2luLXJpZ2h0PSIwIiBmaXQtbWFyZ2luLXRvcD0iMCIgZ3JpZHRvbGVyYW5jZT0iMTAiIGd1aWRldG9sZXJhbmNlPSIxMCIgaWQ9Im5hbWVkdmlldzQ4ODk4IiBpbmtzY2FwZTpjdXJyZW50LWxheWVyPSJzdmc0ODg5NiIgaW5rc2NhcGU6Y3g9IjU3LjkzMjgyOCIgaW5rc2NhcGU6Y3k9IjUwLjYxMzU1MSIgaW5rc2NhcGU6cGFnZW9wYWNpdHk9IjAiIGlua3NjYXBlOnBhZ2VzaGFkb3c9IjIiIGlua3NjYXBlOndpbmRvdy1oZWlnaHQ9IjEwMTciIGlua3NjYXBlOndpbmRvdy1tYXhpbWl6ZWQ9IjEiIGlua3NjYXBlOndpbmRvdy13aWR0aD0iMTkyMCIgaW5rc2NhcGU6d2luZG93LXg9Ii04IiBpbmtzY2FwZTp3aW5kb3cteT0iLTgiIGlua3NjYXBlOnpvb209IjUuMTc2NDI5OSIgb2JqZWN0dG9sZXJhbmNlPSIxMCIgcGFnZWNvbG9yPSIjZmZmZmZmIiBzaG93Z3JpZD0iZmFsc2UiPiYjeGE7CTwvc29kaXBvZGk6bmFtZWR2aWV3PiYjeGE7PGcgaWQ9InNoYWRvdzQ0MDItMyIgdHJhbnNmb3JtPSJ0cmFuc2xhdGUoMC4zNDU1MTQ1NiwtMjIuMzIyMykiPiYjeGE7CTxnIGlkPSJwYXRoNDg4NTUiIGlua3NjYXBlOmNvbm5lY3Rvci1jdXJ2YXR1cmU9IjAiIHN0eWxlPSJmaWx0ZXI6dXJsKCNmaWx0ZXJfMik7Ij4mI3hhOwkJPHBhdGggc3R5bGU9Im9wYWNpdHk6MC4yMjtmaWxsOiM1QjlCRDU7IiBkPSJNMCw4NS44YzAsMS42NywxLjM2LDMuMDIsMy4wMiwzLjAySDcyLjVjMS42NiwwLDMuMDItMS4zNSwzLjAyLTMuMDJWMzguNTNIMFY4NS44eiIvPiYjeGE7CTwvZz4mI3hhOzwvZz4mI3hhOzxwYXRoIGlkPSJwYXRoNDg4NTgiIGlua3NjYXBlOmNvbm5lY3Rvci1jdXJ2YXR1cmU9IjAiIHN0eWxlPSJmaWxsOiM1OUI0RDk7IiBkPSJNMCw2MS41YzAsMS42NywxLjM2LDMuMDIsMy4wMiwzLjAySDcyLjUgIGMxLjY2LDAsMy4wMi0xLjM1LDMuMDItMy4wMlYxNC4yM0gwVjYxLjV6Ii8+JiN4YTs8ZyBpZD0ic2hhZG93NDQwMy04IiB0cmFuc2Zvcm09InRyYW5zbGF0ZSgyMS4wMzg2MTUsLTI2LjcwMjU4KSI+JiN4YTsJPGcgaWQ9InBhdGg0ODg2MyIgaW5rc2NhcGU6Y29ubmVjdG9yLWN1cnZhdHVyZT0iMCIgc3R5bGU9ImZpbHRlcjp1cmwoI2ZpbHRlcl8yKTsiPiYjeGE7CQk8cGF0aCBzdHlsZT0ib3BhY2l0eTowLjIyO2ZpbGw6IzVCOUJENTsiIGQ9Ik00NS43NywzNC40NWMwLTEuODEtMS4zNi0zLjE3LTMuMTgtMy4xN2MtMS44MSwwLTMuMTcsMS4zNi0zLjE3LDMuMTd2MzEuODdoLTYuMTkgICAgYy0wLjYtMy42My0yLjQyLTcuMS01LjE0LTkuOTdjLTMuNjItMy42Mi04LjMtNS41OS0xMy40NC01LjU5Yy00Ljk4LDAtOS44MiwxLjk3LTEzLjQ0LDUuNTlDMCw1Ny41NiwwLDU5LjUyLDEuMjEsNjAuODggICAgYzEuMjEsMS4yMSwzLjE3LDEuMjEsNC41MywwYzIuNDItMi40Miw1LjU5LTMuNjIsOC45MS0zLjYyczYuNSwxLjM2LDguOTEsMy42MmM0Ljk5LDQuOTksNC45OSwxMi45OSwwLDE3LjgyICAgIGMtMi40MSwyLjQyLTUuNTksMy42My04LjkxLDMuNjNzLTYuNDktMS4zNi04LjkxLTMuNjNjLTEuMjEtMS4yLTMuMTctMS4yLTQuNTMsMEMwLDc5LjkxLDAsODEuODgsMS4yMSw4My4yNCAgICBjMy42MiwzLjYyLDguMzEsNS41OCwxMy40NCw1LjU4YzQuOTksMCw5LjgyLTEuOTYsMTMuNDQtNS41OGMzLjAzLTMuMDIsNC42OS02LjY1LDUuMjktMTAuNThoOS4yMWMxLjgyLDAsMy4xOC0xLjM2LDMuMTgtMy4xNyAgICBWMzQuNDV6Ii8+JiN4YTsJPC9nPiYjeGE7PC9nPiYjeGE7PHBhdGggaWQ9InBhdGg0ODg2NiIgaW5rc2NhcGU6Y29ubmVjdG9yLWN1cnZhdHVyZT0iMCIgc3R5bGU9ImZpbGw6I0ZGRkZGRjsiIGQ9Ik02Ni40Niw1Ljc3YzAtMS44MS0xLjM2LTMuMTctMy4xOC0zLjE3ICBjLTEuODEsMC0zLjE3LDEuMzYtMy4xNywzLjE3djMxLjg3aC02LjE5Yy0wLjYtMy42My0yLjQyLTcuMS01LjE0LTkuOTdjLTMuNjItMy42Mi04LjMtNS41OS0xMy40NC01LjU5ICBjLTQuOTgsMC05LjgyLDEuOTctMTMuNDQsNS41OWMtMS4yMSwxLjIxLTEuMjEsMy4xNywwLDQuNTNjMS4yMSwxLjIxLDMuMTcsMS4yMSw0LjUzLDBjMi40Mi0yLjQyLDUuNTktMy42Miw4LjkxLTMuNjIgIHM2LjUsMS4zNiw4LjkxLDMuNjJjNC45OSw0Ljk5LDQuOTksMTIuOTksMCwxNy44MmMtMi40MSwyLjQyLTUuNTksMy42My04LjkxLDMuNjNzLTYuNDktMS4zNi04LjkxLTMuNjNjLTEuMjEtMS4yLTMuMTctMS4yLTQuNTMsMCAgYy0xLjIxLDEuMjEtMS4yMSwzLjE4LDAsNC41NGMzLjYyLDMuNjIsOC4zMSw1LjU4LDEzLjQ0LDUuNThjNC45OSwwLDkuODItMS45NiwxMy40NC01LjU4YzMuMDMtMy4wMiw0LjY5LTYuNjUsNS4yOS0xMC41OGg5LjIxICBjMS44MiwwLDMuMTgtMS4zNiwzLjE4LTMuMTdWNS43N3oiLz4mI3hhOzxnIGlkPSJzaGFkb3c0NDA0LTEzIiB0cmFuc2Zvcm09InRyYW5zbGF0ZSg5LjU1OTIxNDYsLTM4LjQ4NCkiPiYjeGE7CTxnIGlkPSJwYXRoNDg4NzEiIGlua3NjYXBlOmNvbm5lY3Rvci1jdXJ2YXR1cmU9IjAiIHN0eWxlPSJmaWx0ZXI6dXJsKCNmaWx0ZXJfMik7Ij4mI3hhOwkJPHBhdGggc3R5bGU9Im9wYWNpdHk6MC4yMjtmaWxsOiM1QjlCRDU7IiBkPSJNMjYuMTMsNzMuNzJjLTMuMDIsMC01LjU5LDEuODEtNi44LDQuMzhINi4xOVY0Ni4yM2MwLTEuODEtMS4zNi0zLjE3LTMuMTctMy4xNyAgICBDMS4zNiw0My4wNiwwLDQ0LjU3LDAsNDYuMjN2MzUuMDRjMCwxLjgyLDEuMzYsMy4xNywzLjE3LDMuMTdoMTYuMzFjMS4yMSwyLjU3LDMuNzgsNC4zOCw2LjgsNC4zOGM0LjIzLDAsNy41NS0zLjMyLDcuNTUtNy41NSAgICBDMzMuNjgsNzcuMDQsMzAuMjEsNzMuNzIsMjYuMTMsNzMuNzJ6Ii8+JiN4YTsJPC9nPiYjeGE7PC9nPiYjeGE7PHBhdGggaWQ9InBhdGg0ODg3NCIgaW5rc2NhcGU6Y29ubmVjdG9yLWN1cnZhdHVyZT0iMCIgc3R5bGU9ImZpbGw6I0ZGRkZGRjsiIGQ9Ik0zNS4zNCwzMy4yNmMtMy4wMiwwLTUuNTksMS44MS02LjgsNC4zOEgxNS40VjUuNzcgIGMwLTEuODEtMS4zNi0zLjE3LTMuMTctMy4xN2MtMS42NiwwLTMuMDIsMS41MS0zLjAyLDMuMTd2MzUuMDRjMCwxLjgyLDEuMzYsMy4xNywzLjE3LDMuMTdoMTYuMzFjMS4yMSwyLjU3LDMuNzgsNC4zOCw2LjgsNC4zOCAgYzQuMjMsMCw3LjU1LTMuMzIsNy41NS03LjU1QzQyLjg5LDM2LjU4LDM5LjQyLDMzLjI2LDM1LjM0LDMzLjI2eiIvPiYjeGE7PGcgaWQ9InNoYWRvdzQ0MDUtMTgiIHRyYW5zZm9ybT0idHJhbnNsYXRlKDAuMzQ1NTE0NTYsLTcyLjE2NjkpIj4mI3hhOwk8ZyBpZD0icGF0aDQ4ODc5IiBpbmtzY2FwZTpjb25uZWN0b3ItY3VydmF0dXJlPSIwIiBzdHlsZT0iZmlsdGVyOnVybCgjZmlsdGVyXzIpOyI+JiN4YTsJCTxwYXRoIHN0eWxlPSJvcGFjaXR5OjAuMjI7ZmlsbDojNUI5QkQ1OyIgZD0iTTcyLjUsNzQuMzJIMy4wMkMxLjM2LDc0LjMyLDAsNzUuNjgsMCw3Ny4zNXYxMS40N2g3NS41MlY3Ny4zNSAgICBDNzUuNTIsNzUuNjgsNzQuMTYsNzQuMzIsNzIuNSw3NC4zMnoiLz4mI3hhOwk8L2c+JiN4YTs8L2c+JiN4YTs8cGF0aCBpZD0icGF0aDQ4ODgyIiBpbmtzY2FwZTpjb25uZWN0b3ItY3VydmF0dXJlPSIwIiBzdHlsZT0iZmlsbDojQTBBMUEyOyIgZD0iTTcyLjUsMC4xOEgzLjAyQzEuMzYsMC4xOCwwLDEuNTQsMCwzLjIxdjExLjQ3ICBoNzUuNTJWMy4yMUM3NS41MiwxLjU0LDc0LjE2LDAuMTgsNzIuNSwwLjE4eiIvPiYjeGE7PGcgaWQ9InNoYWRvdzQ0MDYtMjMiIHRyYW5zZm9ybT0idHJhbnNsYXRlKDAuMzQ1NTE0NTYsLTIyLjMyMjMpIj4mI3hhOwk8ZyBpZD0icGF0aDQ4ODg3IiBpbmtzY2FwZTpjb25uZWN0b3ItY3VydmF0dXJlPSIwIiBzdHlsZT0iZmlsdGVyOnVybCgjZmlsdGVyXzIpOyI+JiN4YTsJCTxwYXRoIHN0eWxlPSJvcGFjaXR5OjAuMjI7ZmlsbDojNUI5QkQ1OyIgZD0iTTMuMDIsMjQuNDhDMS4zNiwyNC40OCwwLDI1Ljg0LDAsMjcuNXYxMS4wM3Y0Ljk4Vjg1LjhjMCwxLjY3LDEuMzYsMy4wMiwzLjAyLDMuMDIgICAgaDMuMzJsNTkuNTItNjQuMzRIMy4wMnoiLz4mI3hhOwk8L2c+JiN4YTs8L2c+JiN4YTs8cGF0aCBpZD0icGF0aDQ4ODkwIiBpbmtzY2FwZTpjb25uZWN0b3ItY3VydmF0dXJlPSIwIiBzdHlsZT0iZmlsbDojRkZGRkZGO2ZpbGwtb3BhY2l0eTowLjI7IiBkPSJNMy4wMiwwLjE4ICBDMS4zNiwwLjE4LDAsMS41NCwwLDMuMnYxMS4wM3Y0Ljk4VjYxLjVjMCwxLjY3LDEuMzYsMy4wMiwzLjAyLDMuMDJoMy4zMkw2NS44NiwwLjE4SDMuMDJ6Ii8+JiN4YTs8L3N2Zz4=;" parent="1" vertex="1">
          <mxGeometry x="360" y="140" width="92" height="78.68" as="geometry" />
        </mxCell>
        <mxCell id="YqGnJfE8anXnEQxnJChY-14" style="edgeStyle=orthogonalEdgeStyle;rounded=0;orthogonalLoop=1;jettySize=auto;html=1;" parent="1" source="YqGnJfE8anXnEQxnJChY-3" target="YqGnJfE8anXnEQxnJChY-8" edge="1">
          <mxGeometry relative="1" as="geometry">
            <Array as="points">
              <mxPoint x="380" y="500" />
              <mxPoint x="380" y="500" />
            </Array>
          </mxGeometry>
        </mxCell>
        <mxCell id="YqGnJfE8anXnEQxnJChY-21" style="edgeStyle=orthogonalEdgeStyle;rounded=0;orthogonalLoop=1;jettySize=auto;html=1;" parent="1" source="YqGnJfE8anXnEQxnJChY-3" target="YqGnJfE8anXnEQxnJChY-5" edge="1">
          <mxGeometry relative="1" as="geometry">
            <Array as="points">
              <mxPoint x="550" y="400" />
              <mxPoint x="550" y="400" />
            </Array>
          </mxGeometry>
        </mxCell>
        <mxCell id="YqGnJfE8anXnEQxnJChY-3" value="application-cbaf-paramenter" style="shape=image;verticalLabelPosition=bottom;labelBackgroundColor=#ffffff;verticalAlign=top;aspect=fixed;imageAspect=0;image=data:image/svg+xml,PHN2ZyB4bWxuczpjYz0iaHR0cDovL2NyZWF0aXZlY29tbW9ucy5vcmcvbnMjIiB4bWxuczpkYz0iaHR0cDovL3B1cmwub3JnL2RjL2VsZW1lbnRzLzEuMS8iIHhtbG5zOmlua3NjYXBlPSJodHRwOi8vd3d3Lmlua3NjYXBlLm9yZy9uYW1lc3BhY2VzL2lua3NjYXBlIiB4bWxuczpyZGY9Imh0dHA6Ly93d3cudzMub3JnLzE5OTkvMDIvMjItcmRmLXN5bnRheC1ucyMiIHhtbG5zOnNvZGlwb2RpPSJodHRwOi8vc29kaXBvZGkuc291cmNlZm9yZ2UubmV0L0RURC9zb2RpcG9kaS0wLmR0ZCIgeG1sbnM6c3ZnPSJodHRwOi8vd3d3LnczLm9yZy8yMDAwL3N2ZyIgeG1sbnM9Imh0dHA6Ly93d3cudzMub3JnLzIwMDAvc3ZnIiB4bWxuczp4bGluaz0iaHR0cDovL3d3dy53My5vcmcvMTk5OS94bGluayIgdmVyc2lvbj0iMS4xIiBpZD0ic3ZnNDg4OTYiIGlua3NjYXBlOnZlcnNpb249IjAuOTIuMyAoMjQwNTU0NiwgMjAxOC0wMy0xMSkiIHNvZGlwb2RpOmRvY25hbWU9ImFwaV9hcHBzLnN2ZyIgeD0iMHB4IiB5PSIwcHgiIHZpZXdCb3g9IjAgMCA3NS41MiA2NC41MiIgc3R5bGU9ImVuYWJsZS1iYWNrZ3JvdW5kOm5ldyAwIDAgNzUuNTIgNjQuNTI7IiB4bWw6c3BhY2U9InByZXNlcnZlIj4mI3hhOzxmaWx0ZXIgaWQ9ImZpbHRlcl8yIj4mI3hhOwk8ZmVHYXVzc2lhbkJsdXIgaWQ9ImZlR2F1c3NpYW5CbHVyNDg4NDUiIHN0ZERldmlhdGlvbj0iMiIvPiYjeGE7PC9maWx0ZXI+JiN4YTs8c29kaXBvZGk6bmFtZWR2aWV3IGJvcmRlcmNvbG9yPSIjNjY2NjY2IiBib3JkZXJvcGFjaXR5PSIxIiBmaXQtbWFyZ2luLWJvdHRvbT0iMCIgZml0LW1hcmdpbi1sZWZ0PSIwIiBmaXQtbWFyZ2luLXJpZ2h0PSIwIiBmaXQtbWFyZ2luLXRvcD0iMCIgZ3JpZHRvbGVyYW5jZT0iMTAiIGd1aWRldG9sZXJhbmNlPSIxMCIgaWQ9Im5hbWVkdmlldzQ4ODk4IiBpbmtzY2FwZTpjdXJyZW50LWxheWVyPSJzdmc0ODg5NiIgaW5rc2NhcGU6Y3g9IjU3LjkzMjgyOCIgaW5rc2NhcGU6Y3k9IjUwLjYxMzU1MSIgaW5rc2NhcGU6cGFnZW9wYWNpdHk9IjAiIGlua3NjYXBlOnBhZ2VzaGFkb3c9IjIiIGlua3NjYXBlOndpbmRvdy1oZWlnaHQ9IjEwMTciIGlua3NjYXBlOndpbmRvdy1tYXhpbWl6ZWQ9IjEiIGlua3NjYXBlOndpbmRvdy13aWR0aD0iMTkyMCIgaW5rc2NhcGU6d2luZG93LXg9Ii04IiBpbmtzY2FwZTp3aW5kb3cteT0iLTgiIGlua3NjYXBlOnpvb209IjUuMTc2NDI5OSIgb2JqZWN0dG9sZXJhbmNlPSIxMCIgcGFnZWNvbG9yPSIjZmZmZmZmIiBzaG93Z3JpZD0iZmFsc2UiPiYjeGE7CTwvc29kaXBvZGk6bmFtZWR2aWV3PiYjeGE7PGcgaWQ9InNoYWRvdzQ0MDItMyIgdHJhbnNmb3JtPSJ0cmFuc2xhdGUoMC4zNDU1MTQ1NiwtMjIuMzIyMykiPiYjeGE7CTxnIGlkPSJwYXRoNDg4NTUiIGlua3NjYXBlOmNvbm5lY3Rvci1jdXJ2YXR1cmU9IjAiIHN0eWxlPSJmaWx0ZXI6dXJsKCNmaWx0ZXJfMik7Ij4mI3hhOwkJPHBhdGggc3R5bGU9Im9wYWNpdHk6MC4yMjtmaWxsOiM1QjlCRDU7IiBkPSJNMCw4NS44YzAsMS42NywxLjM2LDMuMDIsMy4wMiwzLjAySDcyLjVjMS42NiwwLDMuMDItMS4zNSwzLjAyLTMuMDJWMzguNTNIMFY4NS44eiIvPiYjeGE7CTwvZz4mI3hhOzwvZz4mI3hhOzxwYXRoIGlkPSJwYXRoNDg4NTgiIGlua3NjYXBlOmNvbm5lY3Rvci1jdXJ2YXR1cmU9IjAiIHN0eWxlPSJmaWxsOiM1OUI0RDk7IiBkPSJNMCw2MS41YzAsMS42NywxLjM2LDMuMDIsMy4wMiwzLjAySDcyLjUgIGMxLjY2LDAsMy4wMi0xLjM1LDMuMDItMy4wMlYxNC4yM0gwVjYxLjV6Ii8+JiN4YTs8ZyBpZD0ic2hhZG93NDQwMy04IiB0cmFuc2Zvcm09InRyYW5zbGF0ZSgyMS4wMzg2MTUsLTI2LjcwMjU4KSI+JiN4YTsJPGcgaWQ9InBhdGg0ODg2MyIgaW5rc2NhcGU6Y29ubmVjdG9yLWN1cnZhdHVyZT0iMCIgc3R5bGU9ImZpbHRlcjp1cmwoI2ZpbHRlcl8yKTsiPiYjeGE7CQk8cGF0aCBzdHlsZT0ib3BhY2l0eTowLjIyO2ZpbGw6IzVCOUJENTsiIGQ9Ik00NS43NywzNC40NWMwLTEuODEtMS4zNi0zLjE3LTMuMTgtMy4xN2MtMS44MSwwLTMuMTcsMS4zNi0zLjE3LDMuMTd2MzEuODdoLTYuMTkgICAgYy0wLjYtMy42My0yLjQyLTcuMS01LjE0LTkuOTdjLTMuNjItMy42Mi04LjMtNS41OS0xMy40NC01LjU5Yy00Ljk4LDAtOS44MiwxLjk3LTEzLjQ0LDUuNTlDMCw1Ny41NiwwLDU5LjUyLDEuMjEsNjAuODggICAgYzEuMjEsMS4yMSwzLjE3LDEuMjEsNC41MywwYzIuNDItMi40Miw1LjU5LTMuNjIsOC45MS0zLjYyczYuNSwxLjM2LDguOTEsMy42MmM0Ljk5LDQuOTksNC45OSwxMi45OSwwLDE3LjgyICAgIGMtMi40MSwyLjQyLTUuNTksMy42My04LjkxLDMuNjNzLTYuNDktMS4zNi04LjkxLTMuNjNjLTEuMjEtMS4yLTMuMTctMS4yLTQuNTMsMEMwLDc5LjkxLDAsODEuODgsMS4yMSw4My4yNCAgICBjMy42MiwzLjYyLDguMzEsNS41OCwxMy40NCw1LjU4YzQuOTksMCw5LjgyLTEuOTYsMTMuNDQtNS41OGMzLjAzLTMuMDIsNC42OS02LjY1LDUuMjktMTAuNThoOS4yMWMxLjgyLDAsMy4xOC0xLjM2LDMuMTgtMy4xNyAgICBWMzQuNDV6Ii8+JiN4YTsJPC9nPiYjeGE7PC9nPiYjeGE7PHBhdGggaWQ9InBhdGg0ODg2NiIgaW5rc2NhcGU6Y29ubmVjdG9yLWN1cnZhdHVyZT0iMCIgc3R5bGU9ImZpbGw6I0ZGRkZGRjsiIGQ9Ik02Ni40Niw1Ljc3YzAtMS44MS0xLjM2LTMuMTctMy4xOC0zLjE3ICBjLTEuODEsMC0zLjE3LDEuMzYtMy4xNywzLjE3djMxLjg3aC02LjE5Yy0wLjYtMy42My0yLjQyLTcuMS01LjE0LTkuOTdjLTMuNjItMy42Mi04LjMtNS41OS0xMy40NC01LjU5ICBjLTQuOTgsMC05LjgyLDEuOTctMTMuNDQsNS41OWMtMS4yMSwxLjIxLTEuMjEsMy4xNywwLDQuNTNjMS4yMSwxLjIxLDMuMTcsMS4yMSw0LjUzLDBjMi40Mi0yLjQyLDUuNTktMy42Miw4LjkxLTMuNjIgIHM2LjUsMS4zNiw4LjkxLDMuNjJjNC45OSw0Ljk5LDQuOTksMTIuOTksMCwxNy44MmMtMi40MSwyLjQyLTUuNTksMy42My04LjkxLDMuNjNzLTYuNDktMS4zNi04LjkxLTMuNjNjLTEuMjEtMS4yLTMuMTctMS4yLTQuNTMsMCAgYy0xLjIxLDEuMjEtMS4yMSwzLjE4LDAsNC41NGMzLjYyLDMuNjIsOC4zMSw1LjU4LDEzLjQ0LDUuNThjNC45OSwwLDkuODItMS45NiwxMy40NC01LjU4YzMuMDMtMy4wMiw0LjY5LTYuNjUsNS4yOS0xMC41OGg5LjIxICBjMS44MiwwLDMuMTgtMS4zNiwzLjE4LTMuMTdWNS43N3oiLz4mI3hhOzxnIGlkPSJzaGFkb3c0NDA0LTEzIiB0cmFuc2Zvcm09InRyYW5zbGF0ZSg5LjU1OTIxNDYsLTM4LjQ4NCkiPiYjeGE7CTxnIGlkPSJwYXRoNDg4NzEiIGlua3NjYXBlOmNvbm5lY3Rvci1jdXJ2YXR1cmU9IjAiIHN0eWxlPSJmaWx0ZXI6dXJsKCNmaWx0ZXJfMik7Ij4mI3hhOwkJPHBhdGggc3R5bGU9Im9wYWNpdHk6MC4yMjtmaWxsOiM1QjlCRDU7IiBkPSJNMjYuMTMsNzMuNzJjLTMuMDIsMC01LjU5LDEuODEtNi44LDQuMzhINi4xOVY0Ni4yM2MwLTEuODEtMS4zNi0zLjE3LTMuMTctMy4xNyAgICBDMS4zNiw0My4wNiwwLDQ0LjU3LDAsNDYuMjN2MzUuMDRjMCwxLjgyLDEuMzYsMy4xNywzLjE3LDMuMTdoMTYuMzFjMS4yMSwyLjU3LDMuNzgsNC4zOCw2LjgsNC4zOGM0LjIzLDAsNy41NS0zLjMyLDcuNTUtNy41NSAgICBDMzMuNjgsNzcuMDQsMzAuMjEsNzMuNzIsMjYuMTMsNzMuNzJ6Ii8+JiN4YTsJPC9nPiYjeGE7PC9nPiYjeGE7PHBhdGggaWQ9InBhdGg0ODg3NCIgaW5rc2NhcGU6Y29ubmVjdG9yLWN1cnZhdHVyZT0iMCIgc3R5bGU9ImZpbGw6I0ZGRkZGRjsiIGQ9Ik0zNS4zNCwzMy4yNmMtMy4wMiwwLTUuNTksMS44MS02LjgsNC4zOEgxNS40VjUuNzcgIGMwLTEuODEtMS4zNi0zLjE3LTMuMTctMy4xN2MtMS42NiwwLTMuMDIsMS41MS0zLjAyLDMuMTd2MzUuMDRjMCwxLjgyLDEuMzYsMy4xNywzLjE3LDMuMTdoMTYuMzFjMS4yMSwyLjU3LDMuNzgsNC4zOCw2LjgsNC4zOCAgYzQuMjMsMCw3LjU1LTMuMzIsNy41NS03LjU1QzQyLjg5LDM2LjU4LDM5LjQyLDMzLjI2LDM1LjM0LDMzLjI2eiIvPiYjeGE7PGcgaWQ9InNoYWRvdzQ0MDUtMTgiIHRyYW5zZm9ybT0idHJhbnNsYXRlKDAuMzQ1NTE0NTYsLTcyLjE2NjkpIj4mI3hhOwk8ZyBpZD0icGF0aDQ4ODc5IiBpbmtzY2FwZTpjb25uZWN0b3ItY3VydmF0dXJlPSIwIiBzdHlsZT0iZmlsdGVyOnVybCgjZmlsdGVyXzIpOyI+JiN4YTsJCTxwYXRoIHN0eWxlPSJvcGFjaXR5OjAuMjI7ZmlsbDojNUI5QkQ1OyIgZD0iTTcyLjUsNzQuMzJIMy4wMkMxLjM2LDc0LjMyLDAsNzUuNjgsMCw3Ny4zNXYxMS40N2g3NS41MlY3Ny4zNSAgICBDNzUuNTIsNzUuNjgsNzQuMTYsNzQuMzIsNzIuNSw3NC4zMnoiLz4mI3hhOwk8L2c+JiN4YTs8L2c+JiN4YTs8cGF0aCBpZD0icGF0aDQ4ODgyIiBpbmtzY2FwZTpjb25uZWN0b3ItY3VydmF0dXJlPSIwIiBzdHlsZT0iZmlsbDojQTBBMUEyOyIgZD0iTTcyLjUsMC4xOEgzLjAyQzEuMzYsMC4xOCwwLDEuNTQsMCwzLjIxdjExLjQ3ICBoNzUuNTJWMy4yMUM3NS41MiwxLjU0LDc0LjE2LDAuMTgsNzIuNSwwLjE4eiIvPiYjeGE7PGcgaWQ9InNoYWRvdzQ0MDYtMjMiIHRyYW5zZm9ybT0idHJhbnNsYXRlKDAuMzQ1NTE0NTYsLTIyLjMyMjMpIj4mI3hhOwk8ZyBpZD0icGF0aDQ4ODg3IiBpbmtzY2FwZTpjb25uZWN0b3ItY3VydmF0dXJlPSIwIiBzdHlsZT0iZmlsdGVyOnVybCgjZmlsdGVyXzIpOyI+JiN4YTsJCTxwYXRoIHN0eWxlPSJvcGFjaXR5OjAuMjI7ZmlsbDojNUI5QkQ1OyIgZD0iTTMuMDIsMjQuNDhDMS4zNiwyNC40OCwwLDI1Ljg0LDAsMjcuNXYxMS4wM3Y0Ljk4Vjg1LjhjMCwxLjY3LDEuMzYsMy4wMiwzLjAyLDMuMDIgICAgaDMuMzJsNTkuNTItNjQuMzRIMy4wMnoiLz4mI3hhOwk8L2c+JiN4YTs8L2c+JiN4YTs8cGF0aCBpZD0icGF0aDQ4ODkwIiBpbmtzY2FwZTpjb25uZWN0b3ItY3VydmF0dXJlPSIwIiBzdHlsZT0iZmlsbDojRkZGRkZGO2ZpbGwtb3BhY2l0eTowLjI7IiBkPSJNMy4wMiwwLjE4ICBDMS4zNiwwLjE4LDAsMS41NCwwLDMuMnYxMS4wM3Y0Ljk4VjYxLjVjMCwxLjY3LDEuMzYsMy4wMiwzLjAyLDMuMDJoMy4zMkw2NS44NiwwLjE4SDMuMDJ6Ii8+JiN4YTs8L3N2Zz4=;" parent="1" vertex="1">
          <mxGeometry x="360" y="340" width="92" height="78.68" as="geometry" />
        </mxCell>
        <mxCell id="YqGnJfE8anXnEQxnJChY-5" value="" style="sketch=0;aspect=fixed;html=1;points=[];align=center;image;fontSize=12;image=img/lib/mscae/BlobBlock.svg;" parent="1" vertex="1">
          <mxGeometry x="680" y="344.34000000000003" width="83.33" height="70" as="geometry" />
        </mxCell>
        <mxCell id="YqGnJfE8anXnEQxnJChY-6" value="/AuthorizationDownload" style="text;html=1;strokeColor=none;fillColor=none;align=center;verticalAlign=middle;whiteSpace=wrap;rounded=0;" parent="1" vertex="1">
          <mxGeometry x="360" y="102.97" width="120" height="30" as="geometry" />
        </mxCell>
        <mxCell id="YqGnJfE8anXnEQxnJChY-8" value="bussines-report-management" style="shape=image;verticalLabelPosition=bottom;labelBackgroundColor=#ffffff;verticalAlign=top;aspect=fixed;imageAspect=0;image=data:image/svg+xml,PHN2ZyB4bWxuczpjYz0iaHR0cDovL2NyZWF0aXZlY29tbW9ucy5vcmcvbnMjIiB4bWxuczpkYz0iaHR0cDovL3B1cmwub3JnL2RjL2VsZW1lbnRzLzEuMS8iIHhtbG5zOmlua3NjYXBlPSJodHRwOi8vd3d3Lmlua3NjYXBlLm9yZy9uYW1lc3BhY2VzL2lua3NjYXBlIiB4bWxuczpyZGY9Imh0dHA6Ly93d3cudzMub3JnLzE5OTkvMDIvMjItcmRmLXN5bnRheC1ucyMiIHhtbG5zOnNvZGlwb2RpPSJodHRwOi8vc29kaXBvZGkuc291cmNlZm9yZ2UubmV0L0RURC9zb2RpcG9kaS0wLmR0ZCIgeG1sbnM6c3ZnPSJodHRwOi8vd3d3LnczLm9yZy8yMDAwL3N2ZyIgeG1sbnM9Imh0dHA6Ly93d3cudzMub3JnLzIwMDAvc3ZnIiB4bWxuczp4bGluaz0iaHR0cDovL3d3dy53My5vcmcvMTk5OS94bGluayIgdmVyc2lvbj0iMS4xIiBpZD0ic3ZnNDg4OTYiIGlua3NjYXBlOnZlcnNpb249IjAuOTIuMyAoMjQwNTU0NiwgMjAxOC0wMy0xMSkiIHNvZGlwb2RpOmRvY25hbWU9ImFwaV9hcHBzLnN2ZyIgeD0iMHB4IiB5PSIwcHgiIHZpZXdCb3g9IjAgMCA3NS41MiA2NC41MiIgc3R5bGU9ImVuYWJsZS1iYWNrZ3JvdW5kOm5ldyAwIDAgNzUuNTIgNjQuNTI7IiB4bWw6c3BhY2U9InByZXNlcnZlIj4mI3hhOzxmaWx0ZXIgaWQ9ImZpbHRlcl8yIj4mI3hhOwk8ZmVHYXVzc2lhbkJsdXIgaWQ9ImZlR2F1c3NpYW5CbHVyNDg4NDUiIHN0ZERldmlhdGlvbj0iMiIvPiYjeGE7PC9maWx0ZXI+JiN4YTs8c29kaXBvZGk6bmFtZWR2aWV3IGJvcmRlcmNvbG9yPSIjNjY2NjY2IiBib3JkZXJvcGFjaXR5PSIxIiBmaXQtbWFyZ2luLWJvdHRvbT0iMCIgZml0LW1hcmdpbi1sZWZ0PSIwIiBmaXQtbWFyZ2luLXJpZ2h0PSIwIiBmaXQtbWFyZ2luLXRvcD0iMCIgZ3JpZHRvbGVyYW5jZT0iMTAiIGd1aWRldG9sZXJhbmNlPSIxMCIgaWQ9Im5hbWVkdmlldzQ4ODk4IiBpbmtzY2FwZTpjdXJyZW50LWxheWVyPSJzdmc0ODg5NiIgaW5rc2NhcGU6Y3g9IjU3LjkzMjgyOCIgaW5rc2NhcGU6Y3k9IjUwLjYxMzU1MSIgaW5rc2NhcGU6cGFnZW9wYWNpdHk9IjAiIGlua3NjYXBlOnBhZ2VzaGFkb3c9IjIiIGlua3NjYXBlOndpbmRvdy1oZWlnaHQ9IjEwMTciIGlua3NjYXBlOndpbmRvdy1tYXhpbWl6ZWQ9IjEiIGlua3NjYXBlOndpbmRvdy13aWR0aD0iMTkyMCIgaW5rc2NhcGU6d2luZG93LXg9Ii04IiBpbmtzY2FwZTp3aW5kb3cteT0iLTgiIGlua3NjYXBlOnpvb209IjUuMTc2NDI5OSIgb2JqZWN0dG9sZXJhbmNlPSIxMCIgcGFnZWNvbG9yPSIjZmZmZmZmIiBzaG93Z3JpZD0iZmFsc2UiPiYjeGE7CTwvc29kaXBvZGk6bmFtZWR2aWV3PiYjeGE7PGcgaWQ9InNoYWRvdzQ0MDItMyIgdHJhbnNmb3JtPSJ0cmFuc2xhdGUoMC4zNDU1MTQ1NiwtMjIuMzIyMykiPiYjeGE7CTxnIGlkPSJwYXRoNDg4NTUiIGlua3NjYXBlOmNvbm5lY3Rvci1jdXJ2YXR1cmU9IjAiIHN0eWxlPSJmaWx0ZXI6dXJsKCNmaWx0ZXJfMik7Ij4mI3hhOwkJPHBhdGggc3R5bGU9Im9wYWNpdHk6MC4yMjtmaWxsOiM1QjlCRDU7IiBkPSJNMCw4NS44YzAsMS42NywxLjM2LDMuMDIsMy4wMiwzLjAySDcyLjVjMS42NiwwLDMuMDItMS4zNSwzLjAyLTMuMDJWMzguNTNIMFY4NS44eiIvPiYjeGE7CTwvZz4mI3hhOzwvZz4mI3hhOzxwYXRoIGlkPSJwYXRoNDg4NTgiIGlua3NjYXBlOmNvbm5lY3Rvci1jdXJ2YXR1cmU9IjAiIHN0eWxlPSJmaWxsOiM1OUI0RDk7IiBkPSJNMCw2MS41YzAsMS42NywxLjM2LDMuMDIsMy4wMiwzLjAySDcyLjUgIGMxLjY2LDAsMy4wMi0xLjM1LDMuMDItMy4wMlYxNC4yM0gwVjYxLjV6Ii8+JiN4YTs8ZyBpZD0ic2hhZG93NDQwMy04IiB0cmFuc2Zvcm09InRyYW5zbGF0ZSgyMS4wMzg2MTUsLTI2LjcwMjU4KSI+JiN4YTsJPGcgaWQ9InBhdGg0ODg2MyIgaW5rc2NhcGU6Y29ubmVjdG9yLWN1cnZhdHVyZT0iMCIgc3R5bGU9ImZpbHRlcjp1cmwoI2ZpbHRlcl8yKTsiPiYjeGE7CQk8cGF0aCBzdHlsZT0ib3BhY2l0eTowLjIyO2ZpbGw6IzVCOUJENTsiIGQ9Ik00NS43NywzNC40NWMwLTEuODEtMS4zNi0zLjE3LTMuMTgtMy4xN2MtMS44MSwwLTMuMTcsMS4zNi0zLjE3LDMuMTd2MzEuODdoLTYuMTkgICAgYy0wLjYtMy42My0yLjQyLTcuMS01LjE0LTkuOTdjLTMuNjItMy42Mi04LjMtNS41OS0xMy40NC01LjU5Yy00Ljk4LDAtOS44MiwxLjk3LTEzLjQ0LDUuNTlDMCw1Ny41NiwwLDU5LjUyLDEuMjEsNjAuODggICAgYzEuMjEsMS4yMSwzLjE3LDEuMjEsNC41MywwYzIuNDItMi40Miw1LjU5LTMuNjIsOC45MS0zLjYyczYuNSwxLjM2LDguOTEsMy42MmM0Ljk5LDQuOTksNC45OSwxMi45OSwwLDE3LjgyICAgIGMtMi40MSwyLjQyLTUuNTksMy42My04LjkxLDMuNjNzLTYuNDktMS4zNi04LjkxLTMuNjNjLTEuMjEtMS4yLTMuMTctMS4yLTQuNTMsMEMwLDc5LjkxLDAsODEuODgsMS4yMSw4My4yNCAgICBjMy42MiwzLjYyLDguMzEsNS41OCwxMy40NCw1LjU4YzQuOTksMCw5LjgyLTEuOTYsMTMuNDQtNS41OGMzLjAzLTMuMDIsNC42OS02LjY1LDUuMjktMTAuNThoOS4yMWMxLjgyLDAsMy4xOC0xLjM2LDMuMTgtMy4xNyAgICBWMzQuNDV6Ii8+JiN4YTsJPC9nPiYjeGE7PC9nPiYjeGE7PHBhdGggaWQ9InBhdGg0ODg2NiIgaW5rc2NhcGU6Y29ubmVjdG9yLWN1cnZhdHVyZT0iMCIgc3R5bGU9ImZpbGw6I0ZGRkZGRjsiIGQ9Ik02Ni40Niw1Ljc3YzAtMS44MS0xLjM2LTMuMTctMy4xOC0zLjE3ICBjLTEuODEsMC0zLjE3LDEuMzYtMy4xNywzLjE3djMxLjg3aC02LjE5Yy0wLjYtMy42My0yLjQyLTcuMS01LjE0LTkuOTdjLTMuNjItMy42Mi04LjMtNS41OS0xMy40NC01LjU5ICBjLTQuOTgsMC05LjgyLDEuOTctMTMuNDQsNS41OWMtMS4yMSwxLjIxLTEuMjEsMy4xNywwLDQuNTNjMS4yMSwxLjIxLDMuMTcsMS4yMSw0LjUzLDBjMi40Mi0yLjQyLDUuNTktMy42Miw4LjkxLTMuNjIgIHM2LjUsMS4zNiw4LjkxLDMuNjJjNC45OSw0Ljk5LDQuOTksMTIuOTksMCwxNy44MmMtMi40MSwyLjQyLTUuNTksMy42My04LjkxLDMuNjNzLTYuNDktMS4zNi04LjkxLTMuNjNjLTEuMjEtMS4yLTMuMTctMS4yLTQuNTMsMCAgYy0xLjIxLDEuMjEtMS4yMSwzLjE4LDAsNC41NGMzLjYyLDMuNjIsOC4zMSw1LjU4LDEzLjQ0LDUuNThjNC45OSwwLDkuODItMS45NiwxMy40NC01LjU4YzMuMDMtMy4wMiw0LjY5LTYuNjUsNS4yOS0xMC41OGg5LjIxICBjMS44MiwwLDMuMTgtMS4zNiwzLjE4LTMuMTdWNS43N3oiLz4mI3hhOzxnIGlkPSJzaGFkb3c0NDA0LTEzIiB0cmFuc2Zvcm09InRyYW5zbGF0ZSg5LjU1OTIxNDYsLTM4LjQ4NCkiPiYjeGE7CTxnIGlkPSJwYXRoNDg4NzEiIGlua3NjYXBlOmNvbm5lY3Rvci1jdXJ2YXR1cmU9IjAiIHN0eWxlPSJmaWx0ZXI6dXJsKCNmaWx0ZXJfMik7Ij4mI3hhOwkJPHBhdGggc3R5bGU9Im9wYWNpdHk6MC4yMjtmaWxsOiM1QjlCRDU7IiBkPSJNMjYuMTMsNzMuNzJjLTMuMDIsMC01LjU5LDEuODEtNi44LDQuMzhINi4xOVY0Ni4yM2MwLTEuODEtMS4zNi0zLjE3LTMuMTctMy4xNyAgICBDMS4zNiw0My4wNiwwLDQ0LjU3LDAsNDYuMjN2MzUuMDRjMCwxLjgyLDEuMzYsMy4xNywzLjE3LDMuMTdoMTYuMzFjMS4yMSwyLjU3LDMuNzgsNC4zOCw2LjgsNC4zOGM0LjIzLDAsNy41NS0zLjMyLDcuNTUtNy41NSAgICBDMzMuNjgsNzcuMDQsMzAuMjEsNzMuNzIsMjYuMTMsNzMuNzJ6Ii8+JiN4YTsJPC9nPiYjeGE7PC9nPiYjeGE7PHBhdGggaWQ9InBhdGg0ODg3NCIgaW5rc2NhcGU6Y29ubmVjdG9yLWN1cnZhdHVyZT0iMCIgc3R5bGU9ImZpbGw6I0ZGRkZGRjsiIGQ9Ik0zNS4zNCwzMy4yNmMtMy4wMiwwLTUuNTksMS44MS02LjgsNC4zOEgxNS40VjUuNzcgIGMwLTEuODEtMS4zNi0zLjE3LTMuMTctMy4xN2MtMS42NiwwLTMuMDIsMS41MS0zLjAyLDMuMTd2MzUuMDRjMCwxLjgyLDEuMzYsMy4xNywzLjE3LDMuMTdoMTYuMzFjMS4yMSwyLjU3LDMuNzgsNC4zOCw2LjgsNC4zOCAgYzQuMjMsMCw3LjU1LTMuMzIsNy41NS03LjU1QzQyLjg5LDM2LjU4LDM5LjQyLDMzLjI2LDM1LjM0LDMzLjI2eiIvPiYjeGE7PGcgaWQ9InNoYWRvdzQ0MDUtMTgiIHRyYW5zZm9ybT0idHJhbnNsYXRlKDAuMzQ1NTE0NTYsLTcyLjE2NjkpIj4mI3hhOwk8ZyBpZD0icGF0aDQ4ODc5IiBpbmtzY2FwZTpjb25uZWN0b3ItY3VydmF0dXJlPSIwIiBzdHlsZT0iZmlsdGVyOnVybCgjZmlsdGVyXzIpOyI+JiN4YTsJCTxwYXRoIHN0eWxlPSJvcGFjaXR5OjAuMjI7ZmlsbDojNUI5QkQ1OyIgZD0iTTcyLjUsNzQuMzJIMy4wMkMxLjM2LDc0LjMyLDAsNzUuNjgsMCw3Ny4zNXYxMS40N2g3NS41MlY3Ny4zNSAgICBDNzUuNTIsNzUuNjgsNzQuMTYsNzQuMzIsNzIuNSw3NC4zMnoiLz4mI3hhOwk8L2c+JiN4YTs8L2c+JiN4YTs8cGF0aCBpZD0icGF0aDQ4ODgyIiBpbmtzY2FwZTpjb25uZWN0b3ItY3VydmF0dXJlPSIwIiBzdHlsZT0iZmlsbDojQTBBMUEyOyIgZD0iTTcyLjUsMC4xOEgzLjAyQzEuMzYsMC4xOCwwLDEuNTQsMCwzLjIxdjExLjQ3ICBoNzUuNTJWMy4yMUM3NS41MiwxLjU0LDc0LjE2LDAuMTgsNzIuNSwwLjE4eiIvPiYjeGE7PGcgaWQ9InNoYWRvdzQ0MDYtMjMiIHRyYW5zZm9ybT0idHJhbnNsYXRlKDAuMzQ1NTE0NTYsLTIyLjMyMjMpIj4mI3hhOwk8ZyBpZD0icGF0aDQ4ODg3IiBpbmtzY2FwZTpjb25uZWN0b3ItY3VydmF0dXJlPSIwIiBzdHlsZT0iZmlsdGVyOnVybCgjZmlsdGVyXzIpOyI+JiN4YTsJCTxwYXRoIHN0eWxlPSJvcGFjaXR5OjAuMjI7ZmlsbDojNUI5QkQ1OyIgZD0iTTMuMDIsMjQuNDhDMS4zNiwyNC40OCwwLDI1Ljg0LDAsMjcuNXYxMS4wM3Y0Ljk4Vjg1LjhjMCwxLjY3LDEuMzYsMy4wMiwzLjAyLDMuMDIgICAgaDMuMzJsNTkuNTItNjQuMzRIMy4wMnoiLz4mI3hhOwk8L2c+JiN4YTs8L2c+JiN4YTs8cGF0aCBpZD0icGF0aDQ4ODkwIiBpbmtzY2FwZTpjb25uZWN0b3ItY3VydmF0dXJlPSIwIiBzdHlsZT0iZmlsbDojRkZGRkZGO2ZpbGwtb3BhY2l0eTowLjI7IiBkPSJNMy4wMiwwLjE4ICBDMS4zNiwwLjE4LDAsMS41NCwwLDMuMnYxMS4wM3Y0Ljk4VjYxLjVjMCwxLjY3LDEuMzYsMy4wMiwzLjAyLDMuMDJoMy4zMkw2NS44NiwwLjE4SDMuMDJ6Ii8+JiN4YTs8L3N2Zz4=;" parent="1" vertex="1">
          <mxGeometry x="360" y="570" width="92" height="78.68" as="geometry" />
        </mxCell>
        <mxCell id="YqGnJfE8anXnEQxnJChY-9" value="/report" style="text;html=1;strokeColor=none;fillColor=none;align=center;verticalAlign=middle;whiteSpace=wrap;rounded=0;" parent="1" vertex="1">
          <mxGeometry x="376" y="530" width="60" height="30" as="geometry" />
        </mxCell>
        <mxCell id="YqGnJfE8anXnEQxnJChY-12" value="Request&lt;br&gt;String: fileName&lt;br&gt;T: filter" style="text;html=1;strokeColor=none;fillColor=none;align=center;verticalAlign=middle;whiteSpace=wrap;rounded=0;" parent="1" vertex="1">
          <mxGeometry x="210" y="90" width="120" height="70" as="geometry" />
        </mxCell>
        <mxCell id="YqGnJfE8anXnEQxnJChY-13" value="VISOR" style="text;html=1;strokeColor=none;fillColor=none;align=center;verticalAlign=middle;whiteSpace=wrap;rounded=0;" parent="1" vertex="1">
          <mxGeometry x="60" y="230" width="120" height="40" as="geometry" />
        </mxCell>
        <mxCell id="YqGnJfE8anXnEQxnJChY-15" value="Request&lt;br&gt;&lt;br&gt;T: filter" style="text;html=1;strokeColor=none;fillColor=none;align=center;verticalAlign=middle;whiteSpace=wrap;rounded=0;" parent="1" vertex="1">
          <mxGeometry x="280" y="500" width="90" height="50" as="geometry" />
        </mxCell>
        <mxCell id="YqGnJfE8anXnEQxnJChY-17" style="edgeStyle=orthogonalEdgeStyle;rounded=0;orthogonalLoop=1;jettySize=auto;html=1;exitX=0;exitY=0.5;exitDx=0;exitDy=0;" parent="1" source="YqGnJfE8anXnEQxnJChY-8" edge="1">
          <mxGeometry relative="1" as="geometry">
            <mxPoint x="430" y="570" as="sourcePoint" />
            <mxPoint x="350" y="170" as="targetPoint" />
            <Array as="points">
              <mxPoint x="220" y="609" />
              <mxPoint x="220" y="170" />
            </Array>
          </mxGeometry>
        </mxCell>
        <mxCell id="YqGnJfE8anXnEQxnJChY-18" value="Response&lt;br&gt;&lt;br&gt;fileName.xls" style="text;html=1;strokeColor=none;fillColor=none;align=center;verticalAlign=middle;whiteSpace=wrap;rounded=0;" parent="1" vertex="1">
          <mxGeometry x="436" y="500" width="90" height="50" as="geometry" />
        </mxCell>
        <mxCell id="YqGnJfE8anXnEQxnJChY-20" value="Request&lt;br&gt;String: fileName&lt;br&gt;T: filter" style="text;html=1;strokeColor=none;fillColor=none;align=center;verticalAlign=middle;whiteSpace=wrap;rounded=0;" parent="1" vertex="1">
          <mxGeometry x="280" y="240" width="120" height="60" as="geometry" />
        </mxCell>
        <mxCell id="YqGnJfE8anXnEQxnJChY-22" style="edgeStyle=orthogonalEdgeStyle;rounded=0;orthogonalLoop=1;jettySize=auto;html=1;exitX=-0.036;exitY=0.238;exitDx=0;exitDy=0;exitPerimeter=0;" parent="1" source="YqGnJfE8anXnEQxnJChY-5" edge="1">
          <mxGeometry relative="1" as="geometry">
            <mxPoint x="640" y="360" as="sourcePoint" />
            <mxPoint x="452" y="360" as="targetPoint" />
            <Array as="points">
              <mxPoint x="677" y="360" />
            </Array>
          </mxGeometry>
        </mxCell>
        <mxCell id="YqGnJfE8anXnEQxnJChY-23" value="Sube el fileName.xls y luego genera el sas token para acceder al archivo." style="text;html=1;strokeColor=none;fillColor=none;align=center;verticalAlign=middle;whiteSpace=wrap;rounded=0;" parent="1" vertex="1">
          <mxGeometry x="520" y="393.68" width="120" height="90" as="geometry" />
        </mxCell>
        <mxCell id="YqGnJfE8anXnEQxnJChY-24" value="SAS TOKEN" style="text;html=1;strokeColor=none;fillColor=none;align=center;verticalAlign=middle;whiteSpace=wrap;rounded=0;" parent="1" vertex="1">
          <mxGeometry x="510" y="320" width="120" height="40" as="geometry" />
        </mxCell>
        <mxCell id="YqGnJfE8anXnEQxnJChY-25" value="BLOBSTORAGE" style="text;html=1;strokeColor=none;fillColor=none;align=center;verticalAlign=middle;whiteSpace=wrap;rounded=0;" parent="1" vertex="1">
          <mxGeometry x="661.66" y="418.68" width="120" height="40" as="geometry" />
        </mxCell>
        <mxCell id="YqGnJfE8anXnEQxnJChY-26" value="Response&amp;nbsp;&lt;br&gt;String: SasToken&lt;br&gt;" style="text;html=1;strokeColor=none;fillColor=none;align=center;verticalAlign=middle;whiteSpace=wrap;rounded=0;" parent="1" vertex="1">
          <mxGeometry x="421" y="240" width="120" height="90" as="geometry" />
        </mxCell>
        <mxCell id="YqGnJfE8anXnEQxnJChY-27" value="Response&lt;br&gt;String: UrlSas&lt;br&gt;String: method" style="text;html=1;strokeColor=none;fillColor=none;align=center;verticalAlign=middle;whiteSpace=wrap;rounded=0;" parent="1" vertex="1">
          <mxGeometry x="190" y="190" width="120" height="90" as="geometry" />
        </mxCell>
        <mxCell id="YqGnJfE8anXnEQxnJChY-29" style="edgeStyle=orthogonalEdgeStyle;rounded=0;orthogonalLoop=1;jettySize=auto;html=1;entryX=0;entryY=0.14;entryDx=0;entryDy=0;entryPerimeter=0;" parent="1" edge="1">
          <mxGeometry relative="1" as="geometry">
            <mxPoint x="360" y="201" as="sourcePoint" />
            <mxPoint x="180" y="200" as="targetPoint" />
            <Array as="points">
              <mxPoint x="358" y="201" />
              <mxPoint x="358" y="200" />
            </Array>
          </mxGeometry>
        </mxCell>
        <mxCell id="MreRtIfL5B3b1zHjoYy3-10" style="edgeStyle=orthogonalEdgeStyle;rounded=0;orthogonalLoop=1;jettySize=auto;html=1;" parent="1" source="MreRtIfL5B3b1zHjoYy3-1" target="MreRtIfL5B3b1zHjoYy3-9" edge="1">
          <mxGeometry relative="1" as="geometry" />
        </mxCell>
        <mxCell id="MreRtIfL5B3b1zHjoYy3-1" value="" style="shape=image;verticalLabelPosition=bottom;labelBackgroundColor=#ffffff;verticalAlign=top;aspect=fixed;imageAspect=0;image=data:image/svg+xml,PHN2ZyB4bWxuczpjYz0iaHR0cDovL2NyZWF0aXZlY29tbW9ucy5vcmcvbnMjIiB4bWxuczpkYz0iaHR0cDovL3B1cmwub3JnL2RjL2VsZW1lbnRzLzEuMS8iIHhtbG5zOmlua3NjYXBlPSJodHRwOi8vd3d3Lmlua3NjYXBlLm9yZy9uYW1lc3BhY2VzL2lua3NjYXBlIiB4bWxuczpyZGY9Imh0dHA6Ly93d3cudzMub3JnLzE5OTkvMDIvMjItcmRmLXN5bnRheC1ucyMiIHhtbG5zOnNvZGlwb2RpPSJodHRwOi8vc29kaXBvZGkuc291cmNlZm9yZ2UubmV0L0RURC9zb2RpcG9kaS0wLmR0ZCIgeG1sbnM6c3ZnPSJodHRwOi8vd3d3LnczLm9yZy8yMDAwL3N2ZyIgeG1sbnM9Imh0dHA6Ly93d3cudzMub3JnLzIwMDAvc3ZnIiB4bWxuczp4bGluaz0iaHR0cDovL3d3dy53My5vcmcvMTk5OS94bGluayIgdmVyc2lvbj0iMS4xIiBpZD0ic3ZnMjMxMzAiIHg9IjBweCIgeT0iMHB4IiB2aWV3Qm94PSIwIDAgNDIgMzAiIHN0eWxlPSJlbmFibGUtYmFja2dyb3VuZDpuZXcgMCAwIDQyIDMwOyIgeG1sOnNwYWNlPSJwcmVzZXJ2ZSI+JiN4YTs8c29kaXBvZGk6bmFtZWR2aWV3IGJvcmRlcmNvbG9yPSIjNjY2NjY2IiBib3JkZXJvcGFjaXR5PSIxIiBmaXQtbWFyZ2luLWJvdHRvbT0iMCIgZml0LW1hcmdpbi1sZWZ0PSIwIiBmaXQtbWFyZ2luLXJpZ2h0PSIwIiBmaXQtbWFyZ2luLXRvcD0iMCIgZ3JpZHRvbGVyYW5jZT0iMTAiIGd1aWRldG9sZXJhbmNlPSIxMCIgaWQ9Im5hbWVkdmlldzIzMTMyIiBpbmtzY2FwZTpjdXJyZW50LWxheWVyPSJzdmcyMzEzMCIgaW5rc2NhcGU6Y3g9IjI2LjEzMzkyNSIgaW5rc2NhcGU6Y3k9IjE1Ljc4MzM2NSIgaW5rc2NhcGU6cGFnZW9wYWNpdHk9IjAiIGlua3NjYXBlOnBhZ2VzaGFkb3c9IjIiIGlua3NjYXBlOndpbmRvdy1oZWlnaHQ9IjEwMTciIGlua3NjYXBlOndpbmRvdy1tYXhpbWl6ZWQ9IjEiIGlua3NjYXBlOndpbmRvdy13aWR0aD0iMTkyMCIgaW5rc2NhcGU6d2luZG93LXg9Ii04IiBpbmtzY2FwZTp3aW5kb3cteT0iLTgiIGlua3NjYXBlOnpvb209IjE0LjU5NjcwNCIgb2JqZWN0dG9sZXJhbmNlPSIxMCIgcGFnZWNvbG9yPSIjZmZmZmZmIiBzaG93Z3JpZD0iZmFsc2UiPiYjeGE7CTwvc29kaXBvZGk6bmFtZWR2aWV3PiYjeGE7PGcgaWQ9ImcyMzEyOCIgdHJhbnNmb3JtPSJ0cmFuc2xhdGUoLTAuNzQ5OTkyMDMsLTAuNzQ5OTkyMDMpIj4mI3hhOwk8dGl0bGUgaWQ9InRpdGxlMjMwOTUiPlBhZ2UtMTwvdGl0bGU+JiN4YTsJPGcgaWQ9Imdyb3VwMTgxOS0xIiB0cmFuc2Zvcm09InRyYW5zbGF0ZSgxLjUsLTEuNSkiPiYjeGE7CQk8dGl0bGUgaWQ9InRpdGxlMjMwOTciPkFwcGxpY2F0aW9uICMxPC90aXRsZT4mI3hhOwkJPGcgaWQ9InNoYXBlMTgyMC0yIj4mI3hhOwkJCTx0aXRsZSBpZD0idGl0bGUyMzA5OSI+cmVjdDM3OTguMjc1OTE8L3RpdGxlPiYjeGE7CQkJJiN4YTsJCQkJPHBhdGggaWQ9InBhdGgyMzEwMSIgaW5rc2NhcGU6Y29ubmVjdG9yLWN1cnZhdHVyZT0iMCIgc3R5bGU9ImZpbGwtcnVsZTpldmVub2RkO2NsaXAtcnVsZTpldmVub2RkO2ZpbGw6I0ZGRkZGRjtzdHJva2U6IzU1NkE4QTtzdHJva2Utd2lkdGg6MS41O3N0cm9rZS1taXRlcmxpbWl0OjM7IiBkPSIgICAgIE0wLDI5Ljk1YzAsMC44NSwwLjY5LDEuNTUsMS41NCwxLjU1aDM3LjQxYzAuODUsMCwxLjU1LTAuNjksMS41NS0xLjU0YzAsMCwwLTAuMDEsMC0wLjAxVjQuNTRDNDAuNSwzLjY5LDM5LjgsMywzOC45NSwzSDEuNTQgICAgIEMwLjY5LDMsMCwzLjY5LDAsNC41NFYyOS45NXoiLz4mI3hhOwkJPC9nPiYjeGE7CQk8ZyBpZD0iZ3JvdXAxODIxLTQiIHRyYW5zZm9ybT0idHJhbnNsYXRlKDExLjI1LC02KSI+JiN4YTsJCQk8dGl0bGUgaWQ9InRpdGxlMjMxMDQiPmczODA4LjI3NTkyPC90aXRsZT4mI3hhOwkJCTxnIGlkPSJzaGFwZTE4MjItNSIgdHJhbnNmb3JtPSJ0cmFuc2xhdGUoMC42OTc1LC04Ljk5MjUpIj4mI3hhOwkJCQk8dGl0bGUgaWQ9InRpdGxlMjMxMDYiPnBvbHlnb24zODAyPC90aXRsZT4mI3hhOwkJCQk8cGF0aCBpZD0icGF0aDIzMTA4IiBpbmtzY2FwZTpjb25uZWN0b3ItY3VydmF0dXJlPSIwIiBzdHlsZT0iZmlsbC1ydWxlOmV2ZW5vZGQ7Y2xpcC1ydWxlOmV2ZW5vZGQ7ZmlsbDojMkJDN0Y0OyIgZD0iICAgICAgTTYuOCwyNC4zNkwwLDI3LjgxbDYuOCwzLjY5bDYuNzUtMy43Nkw2LjgsMjQuMzZ6Ii8+JiN4YTsJCQk8L2c+JiN4YTsJCQk8ZyBpZD0ic2hhcGUxODIzLTciPiYjeGE7CQkJCTx0aXRsZSBpZD0idGl0bGUyMzExMSI+cG9seWdvbjM4MDQ8L3RpdGxlPiYjeGE7CQkJCTxwYXRoIGlkPSJwYXRoMjMxMTMiIGlua3NjYXBlOmNvbm5lY3Rvci1jdXJ2YXR1cmU9IjAiIHN0eWxlPSJmaWxsLXJ1bGU6ZXZlbm9kZDtjbGlwLXJ1bGU6ZXZlbm9kZDtmaWxsOiMyQkM3RjQ7IiBkPSJNMCwyNy42NCAgICAgIGw2Ljc1LDMuODZ2LTguMjdMMCwxOS41NlYyNy42NHoiLz4mI3hhOwkJCTwvZz4mI3hhOwkJCTxnIGlkPSJzaGFwZTE4MjQtOSIgdHJhbnNmb3JtPSJ0cmFuc2xhdGUoOC4yNSkiPiYjeGE7CQkJCTx0aXRsZSBpZD0idGl0bGUyMzExNiI+cG9seWdvbjM4MDY8L3RpdGxlPiYjeGE7CQkJCTxwYXRoIGlkPSJwYXRoMjMxMTgiIGlua3NjYXBlOmNvbm5lY3Rvci1jdXJ2YXR1cmU9IjAiIHN0eWxlPSJmaWxsLXJ1bGU6ZXZlbm9kZDtjbGlwLXJ1bGU6ZXZlbm9kZDtmaWxsOiMyQkM3RjQ7IiBkPSIgICAgICBNNi43NSwyNy42NEwwLDMxLjV2LTguMjdsNi43NS0zLjY3VjI3LjY0eiIvPiYjeGE7CQkJPC9nPiYjeGE7CQk8L2c+JiN4YTsJCTxnIGlkPSJzaGFwZTE4MjUtMTEiIHRyYW5zZm9ybT0idHJhbnNsYXRlKDM2Ljc1LC0xMS4yNSkiPiYjeGE7CQkJPHRpdGxlIGlkPSJ0aXRsZTIzMTIyIj5yZWN0Mzg0Ni4yNzYwODwvdGl0bGU+JiN4YTsJCQk8cGF0aCBpZD0icGF0aDIzMTI0IiBpbmtzY2FwZTpjb25uZWN0b3ItY3VydmF0dXJlPSIwIiBzdHlsZT0iZmlsbC1ydWxlOmV2ZW5vZGQ7Y2xpcC1ydWxlOmV2ZW5vZGQ7ZmlsbDojOURBOEI3OyIgZD0iTTAsMzAuNzUgICAgIGMwLDAuNDEsMC4zNCwwLjc1LDAuNzUsMC43NWMwLjQxLDAsMC43NS0wLjM0LDAuNzUtMC43NXYtNC41YzAtMC40MS0wLjM0LTAuNzUtMC43NS0wLjc1QzAuMzQsMjUuNSwwLDI1Ljg0LDAsMjYuMjVWMzAuNzV6Ii8+JiN4YTsJCTwvZz4mI3hhOwk8L2c+JiN4YTs8L2c+JiN4YTs8L3N2Zz4=;" parent="1" vertex="1">
          <mxGeometry x="60" y="690" width="120" height="85.71" as="geometry" />
        </mxCell>
        <mxCell id="MreRtIfL5B3b1zHjoYy3-2" value="VISOR" style="text;html=1;strokeColor=none;fillColor=none;align=center;verticalAlign=middle;whiteSpace=wrap;rounded=0;" parent="1" vertex="1">
          <mxGeometry x="60" y="780" width="120" height="40" as="geometry" />
        </mxCell>
        <mxCell id="MreRtIfL5B3b1zHjoYy3-3" value="" style="sketch=0;aspect=fixed;html=1;points=[];align=center;image;fontSize=12;image=img/lib/mscae/BlobBlock.svg;" parent="1" vertex="1">
          <mxGeometry x="670" y="690" width="83.33" height="70" as="geometry" />
        </mxCell>
        <mxCell id="MreRtIfL5B3b1zHjoYy3-4" value="BLOBSTORAGE" style="text;html=1;strokeColor=none;fillColor=none;align=center;verticalAlign=middle;whiteSpace=wrap;rounded=0;" parent="1" vertex="1">
          <mxGeometry x="651.66" y="770" width="120" height="40" as="geometry" />
        </mxCell>
        <mxCell id="MreRtIfL5B3b1zHjoYy3-11" style="edgeStyle=orthogonalEdgeStyle;rounded=0;orthogonalLoop=1;jettySize=auto;html=1;entryX=-0.012;entryY=0.614;entryDx=0;entryDy=0;entryPerimeter=0;" parent="1" source="MreRtIfL5B3b1zHjoYy3-9" target="MreRtIfL5B3b1zHjoYy3-3" edge="1">
          <mxGeometry relative="1" as="geometry" />
        </mxCell>
        <mxCell id="MreRtIfL5B3b1zHjoYy3-9" value="WAF" style="ellipse;whiteSpace=wrap;html=1;" parent="1" vertex="1">
          <mxGeometry x="354" y="705" width="120" height="55.71" as="geometry" />
        </mxCell>
        <mxCell id="MreRtIfL5B3b1zHjoYy3-12" value="Sas Token enmascarado" style="text;html=1;strokeColor=none;fillColor=none;align=center;verticalAlign=middle;whiteSpace=wrap;rounded=0;" parent="1" vertex="1">
          <mxGeometry x="210" y="680" width="120" height="50" as="geometry" />
        </mxCell>
        <mxCell id="MreRtIfL5B3b1zHjoYy3-13" value="SasToken" style="text;html=1;strokeColor=none;fillColor=none;align=center;verticalAlign=middle;whiteSpace=wrap;rounded=0;" parent="1" vertex="1">
          <mxGeometry x="520" y="680" width="120" height="50" as="geometry" />
        </mxCell>
        <mxCell id="LZ94WY0f2Ng10KsayG94-2" value="/AuthorizationDownload" style="text;html=1;strokeColor=none;fillColor=none;align=center;verticalAlign=middle;whiteSpace=wrap;rounded=0;" parent="1" vertex="1">
          <mxGeometry x="265" y="300" width="120" height="30" as="geometry" />
        </mxCell>
        <mxCell id="LZ94WY0f2Ng10KsayG94-7" style="edgeStyle=orthogonalEdgeStyle;rounded=0;orthogonalLoop=1;jettySize=auto;html=1;entryX=0;entryY=0.25;entryDx=0;entryDy=0;" parent="1" source="LZ94WY0f2Ng10KsayG94-3" target="LZ94WY0f2Ng10KsayG94-4" edge="1">
          <mxGeometry relative="1" as="geometry">
            <mxPoint x="1390" y="156.365" as="targetPoint" />
            <Array as="points">
              <mxPoint x="1390" y="130" />
              <mxPoint x="1390" y="133" />
            </Array>
          </mxGeometry>
        </mxCell>
        <mxCell id="LZ94WY0f2Ng10KsayG94-3" value="" style="shape=image;verticalLabelPosition=bottom;labelBackgroundColor=#ffffff;verticalAlign=top;aspect=fixed;imageAspect=0;image=data:image/svg+xml,PHN2ZyB4bWxuczpjYz0iaHR0cDovL2NyZWF0aXZlY29tbW9ucy5vcmcvbnMjIiB4bWxuczpkYz0iaHR0cDovL3B1cmwub3JnL2RjL2VsZW1lbnRzLzEuMS8iIHhtbG5zOmlua3NjYXBlPSJodHRwOi8vd3d3Lmlua3NjYXBlLm9yZy9uYW1lc3BhY2VzL2lua3NjYXBlIiB4bWxuczpyZGY9Imh0dHA6Ly93d3cudzMub3JnLzE5OTkvMDIvMjItcmRmLXN5bnRheC1ucyMiIHhtbG5zOnNvZGlwb2RpPSJodHRwOi8vc29kaXBvZGkuc291cmNlZm9yZ2UubmV0L0RURC9zb2RpcG9kaS0wLmR0ZCIgeG1sbnM6c3ZnPSJodHRwOi8vd3d3LnczLm9yZy8yMDAwL3N2ZyIgeG1sbnM9Imh0dHA6Ly93d3cudzMub3JnLzIwMDAvc3ZnIiB4bWxuczp4bGluaz0iaHR0cDovL3d3dy53My5vcmcvMTk5OS94bGluayIgdmVyc2lvbj0iMS4xIiBpZD0ic3ZnMjMxMzAiIHg9IjBweCIgeT0iMHB4IiB2aWV3Qm94PSIwIDAgNDIgMzAiIHN0eWxlPSJlbmFibGUtYmFja2dyb3VuZDpuZXcgMCAwIDQyIDMwOyIgeG1sOnNwYWNlPSJwcmVzZXJ2ZSI+JiN4YTs8c29kaXBvZGk6bmFtZWR2aWV3IGJvcmRlcmNvbG9yPSIjNjY2NjY2IiBib3JkZXJvcGFjaXR5PSIxIiBmaXQtbWFyZ2luLWJvdHRvbT0iMCIgZml0LW1hcmdpbi1sZWZ0PSIwIiBmaXQtbWFyZ2luLXJpZ2h0PSIwIiBmaXQtbWFyZ2luLXRvcD0iMCIgZ3JpZHRvbGVyYW5jZT0iMTAiIGd1aWRldG9sZXJhbmNlPSIxMCIgaWQ9Im5hbWVkdmlldzIzMTMyIiBpbmtzY2FwZTpjdXJyZW50LWxheWVyPSJzdmcyMzEzMCIgaW5rc2NhcGU6Y3g9IjI2LjEzMzkyNSIgaW5rc2NhcGU6Y3k9IjE1Ljc4MzM2NSIgaW5rc2NhcGU6cGFnZW9wYWNpdHk9IjAiIGlua3NjYXBlOnBhZ2VzaGFkb3c9IjIiIGlua3NjYXBlOndpbmRvdy1oZWlnaHQ9IjEwMTciIGlua3NjYXBlOndpbmRvdy1tYXhpbWl6ZWQ9IjEiIGlua3NjYXBlOndpbmRvdy13aWR0aD0iMTkyMCIgaW5rc2NhcGU6d2luZG93LXg9Ii04IiBpbmtzY2FwZTp3aW5kb3cteT0iLTgiIGlua3NjYXBlOnpvb209IjE0LjU5NjcwNCIgb2JqZWN0dG9sZXJhbmNlPSIxMCIgcGFnZWNvbG9yPSIjZmZmZmZmIiBzaG93Z3JpZD0iZmFsc2UiPiYjeGE7CTwvc29kaXBvZGk6bmFtZWR2aWV3PiYjeGE7PGcgaWQ9ImcyMzEyOCIgdHJhbnNmb3JtPSJ0cmFuc2xhdGUoLTAuNzQ5OTkyMDMsLTAuNzQ5OTkyMDMpIj4mI3hhOwk8dGl0bGUgaWQ9InRpdGxlMjMwOTUiPlBhZ2UtMTwvdGl0bGU+JiN4YTsJPGcgaWQ9Imdyb3VwMTgxOS0xIiB0cmFuc2Zvcm09InRyYW5zbGF0ZSgxLjUsLTEuNSkiPiYjeGE7CQk8dGl0bGUgaWQ9InRpdGxlMjMwOTciPkFwcGxpY2F0aW9uICMxPC90aXRsZT4mI3hhOwkJPGcgaWQ9InNoYXBlMTgyMC0yIj4mI3hhOwkJCTx0aXRsZSBpZD0idGl0bGUyMzA5OSI+cmVjdDM3OTguMjc1OTE8L3RpdGxlPiYjeGE7CQkJJiN4YTsJCQkJPHBhdGggaWQ9InBhdGgyMzEwMSIgaW5rc2NhcGU6Y29ubmVjdG9yLWN1cnZhdHVyZT0iMCIgc3R5bGU9ImZpbGwtcnVsZTpldmVub2RkO2NsaXAtcnVsZTpldmVub2RkO2ZpbGw6I0ZGRkZGRjtzdHJva2U6IzU1NkE4QTtzdHJva2Utd2lkdGg6MS41O3N0cm9rZS1taXRlcmxpbWl0OjM7IiBkPSIgICAgIE0wLDI5Ljk1YzAsMC44NSwwLjY5LDEuNTUsMS41NCwxLjU1aDM3LjQxYzAuODUsMCwxLjU1LTAuNjksMS41NS0xLjU0YzAsMCwwLTAuMDEsMC0wLjAxVjQuNTRDNDAuNSwzLjY5LDM5LjgsMywzOC45NSwzSDEuNTQgICAgIEMwLjY5LDMsMCwzLjY5LDAsNC41NFYyOS45NXoiLz4mI3hhOwkJPC9nPiYjeGE7CQk8ZyBpZD0iZ3JvdXAxODIxLTQiIHRyYW5zZm9ybT0idHJhbnNsYXRlKDExLjI1LC02KSI+JiN4YTsJCQk8dGl0bGUgaWQ9InRpdGxlMjMxMDQiPmczODA4LjI3NTkyPC90aXRsZT4mI3hhOwkJCTxnIGlkPSJzaGFwZTE4MjItNSIgdHJhbnNmb3JtPSJ0cmFuc2xhdGUoMC42OTc1LC04Ljk5MjUpIj4mI3hhOwkJCQk8dGl0bGUgaWQ9InRpdGxlMjMxMDYiPnBvbHlnb24zODAyPC90aXRsZT4mI3hhOwkJCQk8cGF0aCBpZD0icGF0aDIzMTA4IiBpbmtzY2FwZTpjb25uZWN0b3ItY3VydmF0dXJlPSIwIiBzdHlsZT0iZmlsbC1ydWxlOmV2ZW5vZGQ7Y2xpcC1ydWxlOmV2ZW5vZGQ7ZmlsbDojMkJDN0Y0OyIgZD0iICAgICAgTTYuOCwyNC4zNkwwLDI3LjgxbDYuOCwzLjY5bDYuNzUtMy43Nkw2LjgsMjQuMzZ6Ii8+JiN4YTsJCQk8L2c+JiN4YTsJCQk8ZyBpZD0ic2hhcGUxODIzLTciPiYjeGE7CQkJCTx0aXRsZSBpZD0idGl0bGUyMzExMSI+cG9seWdvbjM4MDQ8L3RpdGxlPiYjeGE7CQkJCTxwYXRoIGlkPSJwYXRoMjMxMTMiIGlua3NjYXBlOmNvbm5lY3Rvci1jdXJ2YXR1cmU9IjAiIHN0eWxlPSJmaWxsLXJ1bGU6ZXZlbm9kZDtjbGlwLXJ1bGU6ZXZlbm9kZDtmaWxsOiMyQkM3RjQ7IiBkPSJNMCwyNy42NCAgICAgIGw2Ljc1LDMuODZ2LTguMjdMMCwxOS41NlYyNy42NHoiLz4mI3hhOwkJCTwvZz4mI3hhOwkJCTxnIGlkPSJzaGFwZTE4MjQtOSIgdHJhbnNmb3JtPSJ0cmFuc2xhdGUoOC4yNSkiPiYjeGE7CQkJCTx0aXRsZSBpZD0idGl0bGUyMzExNiI+cG9seWdvbjM4MDY8L3RpdGxlPiYjeGE7CQkJCTxwYXRoIGlkPSJwYXRoMjMxMTgiIGlua3NjYXBlOmNvbm5lY3Rvci1jdXJ2YXR1cmU9IjAiIHN0eWxlPSJmaWxsLXJ1bGU6ZXZlbm9kZDtjbGlwLXJ1bGU6ZXZlbm9kZDtmaWxsOiMyQkM3RjQ7IiBkPSIgICAgICBNNi43NSwyNy42NEwwLDMxLjV2LTguMjdsNi43NS0zLjY3VjI3LjY0eiIvPiYjeGE7CQkJPC9nPiYjeGE7CQk8L2c+JiN4YTsJCTxnIGlkPSJzaGFwZTE4MjUtMTEiIHRyYW5zZm9ybT0idHJhbnNsYXRlKDM2Ljc1LC0xMS4yNSkiPiYjeGE7CQkJPHRpdGxlIGlkPSJ0aXRsZTIzMTIyIj5yZWN0Mzg0Ni4yNzYwODwvdGl0bGU+JiN4YTsJCQk8cGF0aCBpZD0icGF0aDIzMTI0IiBpbmtzY2FwZTpjb25uZWN0b3ItY3VydmF0dXJlPSIwIiBzdHlsZT0iZmlsbC1ydWxlOmV2ZW5vZGQ7Y2xpcC1ydWxlOmV2ZW5vZGQ7ZmlsbDojOURBOEI3OyIgZD0iTTAsMzAuNzUgICAgIGMwLDAuNDEsMC4zNCwwLjc1LDAuNzUsMC43NWMwLjQxLDAsMC43NS0wLjM0LDAuNzUtMC43NXYtNC41YzAtMC40MS0wLjM0LTAuNzUtMC43NS0wLjc1QzAuMzQsMjUuNSwwLDI1Ljg0LDAsMjYuMjVWMzAuNzV6Ii8+JiN4YTsJCTwvZz4mI3hhOwk8L2c+JiN4YTs8L2c+JiN4YTs8L3N2Zz4=;" parent="1" vertex="1">
          <mxGeometry x="1040" y="113.51000000000003" width="120" height="85.71" as="geometry" />
        </mxCell>
        <mxCell id="LZ94WY0f2Ng10KsayG94-13" style="edgeStyle=orthogonalEdgeStyle;rounded=0;orthogonalLoop=1;jettySize=auto;html=1;" parent="1" source="LZ94WY0f2Ng10KsayG94-4" target="LZ94WY0f2Ng10KsayG94-10" edge="1">
          <mxGeometry relative="1" as="geometry">
            <Array as="points">
              <mxPoint x="1420" y="250" />
              <mxPoint x="1420" y="250" />
            </Array>
          </mxGeometry>
        </mxCell>
        <mxCell id="LZ94WY0f2Ng10KsayG94-4" value="channel-application-paramenter" style="shape=image;verticalLabelPosition=bottom;labelBackgroundColor=#ffffff;verticalAlign=top;aspect=fixed;imageAspect=0;image=data:image/svg+xml,PHN2ZyB4bWxuczpjYz0iaHR0cDovL2NyZWF0aXZlY29tbW9ucy5vcmcvbnMjIiB4bWxuczpkYz0iaHR0cDovL3B1cmwub3JnL2RjL2VsZW1lbnRzLzEuMS8iIHhtbG5zOmlua3NjYXBlPSJodHRwOi8vd3d3Lmlua3NjYXBlLm9yZy9uYW1lc3BhY2VzL2lua3NjYXBlIiB4bWxuczpyZGY9Imh0dHA6Ly93d3cudzMub3JnLzE5OTkvMDIvMjItcmRmLXN5bnRheC1ucyMiIHhtbG5zOnNvZGlwb2RpPSJodHRwOi8vc29kaXBvZGkuc291cmNlZm9yZ2UubmV0L0RURC9zb2RpcG9kaS0wLmR0ZCIgeG1sbnM6c3ZnPSJodHRwOi8vd3d3LnczLm9yZy8yMDAwL3N2ZyIgeG1sbnM9Imh0dHA6Ly93d3cudzMub3JnLzIwMDAvc3ZnIiB4bWxuczp4bGluaz0iaHR0cDovL3d3dy53My5vcmcvMTk5OS94bGluayIgdmVyc2lvbj0iMS4xIiBpZD0ic3ZnNDg4OTYiIGlua3NjYXBlOnZlcnNpb249IjAuOTIuMyAoMjQwNTU0NiwgMjAxOC0wMy0xMSkiIHNvZGlwb2RpOmRvY25hbWU9ImFwaV9hcHBzLnN2ZyIgeD0iMHB4IiB5PSIwcHgiIHZpZXdCb3g9IjAgMCA3NS41MiA2NC41MiIgc3R5bGU9ImVuYWJsZS1iYWNrZ3JvdW5kOm5ldyAwIDAgNzUuNTIgNjQuNTI7IiB4bWw6c3BhY2U9InByZXNlcnZlIj4mI3hhOzxmaWx0ZXIgaWQ9ImZpbHRlcl8yIj4mI3hhOwk8ZmVHYXVzc2lhbkJsdXIgaWQ9ImZlR2F1c3NpYW5CbHVyNDg4NDUiIHN0ZERldmlhdGlvbj0iMiIvPiYjeGE7PC9maWx0ZXI+JiN4YTs8c29kaXBvZGk6bmFtZWR2aWV3IGJvcmRlcmNvbG9yPSIjNjY2NjY2IiBib3JkZXJvcGFjaXR5PSIxIiBmaXQtbWFyZ2luLWJvdHRvbT0iMCIgZml0LW1hcmdpbi1sZWZ0PSIwIiBmaXQtbWFyZ2luLXJpZ2h0PSIwIiBmaXQtbWFyZ2luLXRvcD0iMCIgZ3JpZHRvbGVyYW5jZT0iMTAiIGd1aWRldG9sZXJhbmNlPSIxMCIgaWQ9Im5hbWVkdmlldzQ4ODk4IiBpbmtzY2FwZTpjdXJyZW50LWxheWVyPSJzdmc0ODg5NiIgaW5rc2NhcGU6Y3g9IjU3LjkzMjgyOCIgaW5rc2NhcGU6Y3k9IjUwLjYxMzU1MSIgaW5rc2NhcGU6cGFnZW9wYWNpdHk9IjAiIGlua3NjYXBlOnBhZ2VzaGFkb3c9IjIiIGlua3NjYXBlOndpbmRvdy1oZWlnaHQ9IjEwMTciIGlua3NjYXBlOndpbmRvdy1tYXhpbWl6ZWQ9IjEiIGlua3NjYXBlOndpbmRvdy13aWR0aD0iMTkyMCIgaW5rc2NhcGU6d2luZG93LXg9Ii04IiBpbmtzY2FwZTp3aW5kb3cteT0iLTgiIGlua3NjYXBlOnpvb209IjUuMTc2NDI5OSIgb2JqZWN0dG9sZXJhbmNlPSIxMCIgcGFnZWNvbG9yPSIjZmZmZmZmIiBzaG93Z3JpZD0iZmFsc2UiPiYjeGE7CTwvc29kaXBvZGk6bmFtZWR2aWV3PiYjeGE7PGcgaWQ9InNoYWRvdzQ0MDItMyIgdHJhbnNmb3JtPSJ0cmFuc2xhdGUoMC4zNDU1MTQ1NiwtMjIuMzIyMykiPiYjeGE7CTxnIGlkPSJwYXRoNDg4NTUiIGlua3NjYXBlOmNvbm5lY3Rvci1jdXJ2YXR1cmU9IjAiIHN0eWxlPSJmaWx0ZXI6dXJsKCNmaWx0ZXJfMik7Ij4mI3hhOwkJPHBhdGggc3R5bGU9Im9wYWNpdHk6MC4yMjtmaWxsOiM1QjlCRDU7IiBkPSJNMCw4NS44YzAsMS42NywxLjM2LDMuMDIsMy4wMiwzLjAySDcyLjVjMS42NiwwLDMuMDItMS4zNSwzLjAyLTMuMDJWMzguNTNIMFY4NS44eiIvPiYjeGE7CTwvZz4mI3hhOzwvZz4mI3hhOzxwYXRoIGlkPSJwYXRoNDg4NTgiIGlua3NjYXBlOmNvbm5lY3Rvci1jdXJ2YXR1cmU9IjAiIHN0eWxlPSJmaWxsOiM1OUI0RDk7IiBkPSJNMCw2MS41YzAsMS42NywxLjM2LDMuMDIsMy4wMiwzLjAySDcyLjUgIGMxLjY2LDAsMy4wMi0xLjM1LDMuMDItMy4wMlYxNC4yM0gwVjYxLjV6Ii8+JiN4YTs8ZyBpZD0ic2hhZG93NDQwMy04IiB0cmFuc2Zvcm09InRyYW5zbGF0ZSgyMS4wMzg2MTUsLTI2LjcwMjU4KSI+JiN4YTsJPGcgaWQ9InBhdGg0ODg2MyIgaW5rc2NhcGU6Y29ubmVjdG9yLWN1cnZhdHVyZT0iMCIgc3R5bGU9ImZpbHRlcjp1cmwoI2ZpbHRlcl8yKTsiPiYjeGE7CQk8cGF0aCBzdHlsZT0ib3BhY2l0eTowLjIyO2ZpbGw6IzVCOUJENTsiIGQ9Ik00NS43NywzNC40NWMwLTEuODEtMS4zNi0zLjE3LTMuMTgtMy4xN2MtMS44MSwwLTMuMTcsMS4zNi0zLjE3LDMuMTd2MzEuODdoLTYuMTkgICAgYy0wLjYtMy42My0yLjQyLTcuMS01LjE0LTkuOTdjLTMuNjItMy42Mi04LjMtNS41OS0xMy40NC01LjU5Yy00Ljk4LDAtOS44MiwxLjk3LTEzLjQ0LDUuNTlDMCw1Ny41NiwwLDU5LjUyLDEuMjEsNjAuODggICAgYzEuMjEsMS4yMSwzLjE3LDEuMjEsNC41MywwYzIuNDItMi40Miw1LjU5LTMuNjIsOC45MS0zLjYyczYuNSwxLjM2LDguOTEsMy42MmM0Ljk5LDQuOTksNC45OSwxMi45OSwwLDE3LjgyICAgIGMtMi40MSwyLjQyLTUuNTksMy42My04LjkxLDMuNjNzLTYuNDktMS4zNi04LjkxLTMuNjNjLTEuMjEtMS4yLTMuMTctMS4yLTQuNTMsMEMwLDc5LjkxLDAsODEuODgsMS4yMSw4My4yNCAgICBjMy42MiwzLjYyLDguMzEsNS41OCwxMy40NCw1LjU4YzQuOTksMCw5LjgyLTEuOTYsMTMuNDQtNS41OGMzLjAzLTMuMDIsNC42OS02LjY1LDUuMjktMTAuNThoOS4yMWMxLjgyLDAsMy4xOC0xLjM2LDMuMTgtMy4xNyAgICBWMzQuNDV6Ii8+JiN4YTsJPC9nPiYjeGE7PC9nPiYjeGE7PHBhdGggaWQ9InBhdGg0ODg2NiIgaW5rc2NhcGU6Y29ubmVjdG9yLWN1cnZhdHVyZT0iMCIgc3R5bGU9ImZpbGw6I0ZGRkZGRjsiIGQ9Ik02Ni40Niw1Ljc3YzAtMS44MS0xLjM2LTMuMTctMy4xOC0zLjE3ICBjLTEuODEsMC0zLjE3LDEuMzYtMy4xNywzLjE3djMxLjg3aC02LjE5Yy0wLjYtMy42My0yLjQyLTcuMS01LjE0LTkuOTdjLTMuNjItMy42Mi04LjMtNS41OS0xMy40NC01LjU5ICBjLTQuOTgsMC05LjgyLDEuOTctMTMuNDQsNS41OWMtMS4yMSwxLjIxLTEuMjEsMy4xNywwLDQuNTNjMS4yMSwxLjIxLDMuMTcsMS4yMSw0LjUzLDBjMi40Mi0yLjQyLDUuNTktMy42Miw4LjkxLTMuNjIgIHM2LjUsMS4zNiw4LjkxLDMuNjJjNC45OSw0Ljk5LDQuOTksMTIuOTksMCwxNy44MmMtMi40MSwyLjQyLTUuNTksMy42My04LjkxLDMuNjNzLTYuNDktMS4zNi04LjkxLTMuNjNjLTEuMjEtMS4yLTMuMTctMS4yLTQuNTMsMCAgYy0xLjIxLDEuMjEtMS4yMSwzLjE4LDAsNC41NGMzLjYyLDMuNjIsOC4zMSw1LjU4LDEzLjQ0LDUuNThjNC45OSwwLDkuODItMS45NiwxMy40NC01LjU4YzMuMDMtMy4wMiw0LjY5LTYuNjUsNS4yOS0xMC41OGg5LjIxICBjMS44MiwwLDMuMTgtMS4zNiwzLjE4LTMuMTdWNS43N3oiLz4mI3hhOzxnIGlkPSJzaGFkb3c0NDA0LTEzIiB0cmFuc2Zvcm09InRyYW5zbGF0ZSg5LjU1OTIxNDYsLTM4LjQ4NCkiPiYjeGE7CTxnIGlkPSJwYXRoNDg4NzEiIGlua3NjYXBlOmNvbm5lY3Rvci1jdXJ2YXR1cmU9IjAiIHN0eWxlPSJmaWx0ZXI6dXJsKCNmaWx0ZXJfMik7Ij4mI3hhOwkJPHBhdGggc3R5bGU9Im9wYWNpdHk6MC4yMjtmaWxsOiM1QjlCRDU7IiBkPSJNMjYuMTMsNzMuNzJjLTMuMDIsMC01LjU5LDEuODEtNi44LDQuMzhINi4xOVY0Ni4yM2MwLTEuODEtMS4zNi0zLjE3LTMuMTctMy4xNyAgICBDMS4zNiw0My4wNiwwLDQ0LjU3LDAsNDYuMjN2MzUuMDRjMCwxLjgyLDEuMzYsMy4xNywzLjE3LDMuMTdoMTYuMzFjMS4yMSwyLjU3LDMuNzgsNC4zOCw2LjgsNC4zOGM0LjIzLDAsNy41NS0zLjMyLDcuNTUtNy41NSAgICBDMzMuNjgsNzcuMDQsMzAuMjEsNzMuNzIsMjYuMTMsNzMuNzJ6Ii8+JiN4YTsJPC9nPiYjeGE7PC9nPiYjeGE7PHBhdGggaWQ9InBhdGg0ODg3NCIgaW5rc2NhcGU6Y29ubmVjdG9yLWN1cnZhdHVyZT0iMCIgc3R5bGU9ImZpbGw6I0ZGRkZGRjsiIGQ9Ik0zNS4zNCwzMy4yNmMtMy4wMiwwLTUuNTksMS44MS02LjgsNC4zOEgxNS40VjUuNzcgIGMwLTEuODEtMS4zNi0zLjE3LTMuMTctMy4xN2MtMS42NiwwLTMuMDIsMS41MS0zLjAyLDMuMTd2MzUuMDRjMCwxLjgyLDEuMzYsMy4xNywzLjE3LDMuMTdoMTYuMzFjMS4yMSwyLjU3LDMuNzgsNC4zOCw2LjgsNC4zOCAgYzQuMjMsMCw3LjU1LTMuMzIsNy41NS03LjU1QzQyLjg5LDM2LjU4LDM5LjQyLDMzLjI2LDM1LjM0LDMzLjI2eiIvPiYjeGE7PGcgaWQ9InNoYWRvdzQ0MDUtMTgiIHRyYW5zZm9ybT0idHJhbnNsYXRlKDAuMzQ1NTE0NTYsLTcyLjE2NjkpIj4mI3hhOwk8ZyBpZD0icGF0aDQ4ODc5IiBpbmtzY2FwZTpjb25uZWN0b3ItY3VydmF0dXJlPSIwIiBzdHlsZT0iZmlsdGVyOnVybCgjZmlsdGVyXzIpOyI+JiN4YTsJCTxwYXRoIHN0eWxlPSJvcGFjaXR5OjAuMjI7ZmlsbDojNUI5QkQ1OyIgZD0iTTcyLjUsNzQuMzJIMy4wMkMxLjM2LDc0LjMyLDAsNzUuNjgsMCw3Ny4zNXYxMS40N2g3NS41MlY3Ny4zNSAgICBDNzUuNTIsNzUuNjgsNzQuMTYsNzQuMzIsNzIuNSw3NC4zMnoiLz4mI3hhOwk8L2c+JiN4YTs8L2c+JiN4YTs8cGF0aCBpZD0icGF0aDQ4ODgyIiBpbmtzY2FwZTpjb25uZWN0b3ItY3VydmF0dXJlPSIwIiBzdHlsZT0iZmlsbDojQTBBMUEyOyIgZD0iTTcyLjUsMC4xOEgzLjAyQzEuMzYsMC4xOCwwLDEuNTQsMCwzLjIxdjExLjQ3ICBoNzUuNTJWMy4yMUM3NS41MiwxLjU0LDc0LjE2LDAuMTgsNzIuNSwwLjE4eiIvPiYjeGE7PGcgaWQ9InNoYWRvdzQ0MDYtMjMiIHRyYW5zZm9ybT0idHJhbnNsYXRlKDAuMzQ1NTE0NTYsLTIyLjMyMjMpIj4mI3hhOwk8ZyBpZD0icGF0aDQ4ODg3IiBpbmtzY2FwZTpjb25uZWN0b3ItY3VydmF0dXJlPSIwIiBzdHlsZT0iZmlsdGVyOnVybCgjZmlsdGVyXzIpOyI+JiN4YTsJCTxwYXRoIHN0eWxlPSJvcGFjaXR5OjAuMjI7ZmlsbDojNUI5QkQ1OyIgZD0iTTMuMDIsMjQuNDhDMS4zNiwyNC40OCwwLDI1Ljg0LDAsMjcuNXYxMS4wM3Y0Ljk4Vjg1LjhjMCwxLjY3LDEuMzYsMy4wMiwzLjAyLDMuMDIgICAgaDMuMzJsNTkuNTItNjQuMzRIMy4wMnoiLz4mI3hhOwk8L2c+JiN4YTs8L2c+JiN4YTs8cGF0aCBpZD0icGF0aDQ4ODkwIiBpbmtzY2FwZTpjb25uZWN0b3ItY3VydmF0dXJlPSIwIiBzdHlsZT0iZmlsbDojRkZGRkZGO2ZpbGwtb3BhY2l0eTowLjI7IiBkPSJNMy4wMiwwLjE4ICBDMS4zNiwwLjE4LDAsMS41NCwwLDMuMnYxMS4wM3Y0Ljk4VjYxLjVjMCwxLjY3LDEuMzYsMy4wMiwzLjAyLDMuMDJoMy4zMkw2NS44NiwwLjE4SDMuMDJ6Ii8+JiN4YTs8L3N2Zz4=;" parent="1" vertex="1">
          <mxGeometry x="1400" y="113.50999999999999" width="92" height="78.68" as="geometry" />
        </mxCell>
        <mxCell id="LZ94WY0f2Ng10KsayG94-5" value="Request&lt;br&gt;String: fileName&lt;br&gt;" style="text;html=1;strokeColor=none;fillColor=none;align=center;verticalAlign=middle;whiteSpace=wrap;rounded=0;" parent="1" vertex="1">
          <mxGeometry x="1210" y="70" width="120" height="60" as="geometry" />
        </mxCell>
        <mxCell id="LZ94WY0f2Ng10KsayG94-6" value="/AuthorizationUpload" style="text;html=1;strokeColor=none;fillColor=none;align=center;verticalAlign=middle;whiteSpace=wrap;rounded=0;" parent="1" vertex="1">
          <mxGeometry x="1380" y="70" width="120" height="30" as="geometry" />
        </mxCell>
        <mxCell id="LZ94WY0f2Ng10KsayG94-8" style="edgeStyle=orthogonalEdgeStyle;rounded=0;orthogonalLoop=1;jettySize=auto;html=1;entryX=0;entryY=0.25;entryDx=0;entryDy=0;" parent="1" edge="1">
          <mxGeometry relative="1" as="geometry">
            <mxPoint x="1160" y="177.74" as="targetPoint" />
            <mxPoint x="1400" y="180.91999999999996" as="sourcePoint" />
            <Array as="points">
              <mxPoint x="1390" y="180.74" />
              <mxPoint x="1390" y="177.74" />
            </Array>
          </mxGeometry>
        </mxCell>
        <mxCell id="LZ94WY0f2Ng10KsayG94-9" value="Response&lt;br&gt;String: UrlSas&lt;br&gt;String: method" style="text;html=1;strokeColor=none;fillColor=none;align=center;verticalAlign=middle;whiteSpace=wrap;rounded=0;" parent="1" vertex="1">
          <mxGeometry x="1210" y="160" width="120" height="90" as="geometry" />
        </mxCell>
        <mxCell id="LZ94WY0f2Ng10KsayG94-10" value="application-cbaf-paramenter" style="shape=image;verticalLabelPosition=bottom;labelBackgroundColor=#ffffff;verticalAlign=top;aspect=fixed;imageAspect=0;image=data:image/svg+xml,PHN2ZyB4bWxuczpjYz0iaHR0cDovL2NyZWF0aXZlY29tbW9ucy5vcmcvbnMjIiB4bWxuczpkYz0iaHR0cDovL3B1cmwub3JnL2RjL2VsZW1lbnRzLzEuMS8iIHhtbG5zOmlua3NjYXBlPSJodHRwOi8vd3d3Lmlua3NjYXBlLm9yZy9uYW1lc3BhY2VzL2lua3NjYXBlIiB4bWxuczpyZGY9Imh0dHA6Ly93d3cudzMub3JnLzE5OTkvMDIvMjItcmRmLXN5bnRheC1ucyMiIHhtbG5zOnNvZGlwb2RpPSJodHRwOi8vc29kaXBvZGkuc291cmNlZm9yZ2UubmV0L0RURC9zb2RpcG9kaS0wLmR0ZCIgeG1sbnM6c3ZnPSJodHRwOi8vd3d3LnczLm9yZy8yMDAwL3N2ZyIgeG1sbnM9Imh0dHA6Ly93d3cudzMub3JnLzIwMDAvc3ZnIiB4bWxuczp4bGluaz0iaHR0cDovL3d3dy53My5vcmcvMTk5OS94bGluayIgdmVyc2lvbj0iMS4xIiBpZD0ic3ZnNDg4OTYiIGlua3NjYXBlOnZlcnNpb249IjAuOTIuMyAoMjQwNTU0NiwgMjAxOC0wMy0xMSkiIHNvZGlwb2RpOmRvY25hbWU9ImFwaV9hcHBzLnN2ZyIgeD0iMHB4IiB5PSIwcHgiIHZpZXdCb3g9IjAgMCA3NS41MiA2NC41MiIgc3R5bGU9ImVuYWJsZS1iYWNrZ3JvdW5kOm5ldyAwIDAgNzUuNTIgNjQuNTI7IiB4bWw6c3BhY2U9InByZXNlcnZlIj4mI3hhOzxmaWx0ZXIgaWQ9ImZpbHRlcl8yIj4mI3hhOwk8ZmVHYXVzc2lhbkJsdXIgaWQ9ImZlR2F1c3NpYW5CbHVyNDg4NDUiIHN0ZERldmlhdGlvbj0iMiIvPiYjeGE7PC9maWx0ZXI+JiN4YTs8c29kaXBvZGk6bmFtZWR2aWV3IGJvcmRlcmNvbG9yPSIjNjY2NjY2IiBib3JkZXJvcGFjaXR5PSIxIiBmaXQtbWFyZ2luLWJvdHRvbT0iMCIgZml0LW1hcmdpbi1sZWZ0PSIwIiBmaXQtbWFyZ2luLXJpZ2h0PSIwIiBmaXQtbWFyZ2luLXRvcD0iMCIgZ3JpZHRvbGVyYW5jZT0iMTAiIGd1aWRldG9sZXJhbmNlPSIxMCIgaWQ9Im5hbWVkdmlldzQ4ODk4IiBpbmtzY2FwZTpjdXJyZW50LWxheWVyPSJzdmc0ODg5NiIgaW5rc2NhcGU6Y3g9IjU3LjkzMjgyOCIgaW5rc2NhcGU6Y3k9IjUwLjYxMzU1MSIgaW5rc2NhcGU6cGFnZW9wYWNpdHk9IjAiIGlua3NjYXBlOnBhZ2VzaGFkb3c9IjIiIGlua3NjYXBlOndpbmRvdy1oZWlnaHQ9IjEwMTciIGlua3NjYXBlOndpbmRvdy1tYXhpbWl6ZWQ9IjEiIGlua3NjYXBlOndpbmRvdy13aWR0aD0iMTkyMCIgaW5rc2NhcGU6d2luZG93LXg9Ii04IiBpbmtzY2FwZTp3aW5kb3cteT0iLTgiIGlua3NjYXBlOnpvb209IjUuMTc2NDI5OSIgb2JqZWN0dG9sZXJhbmNlPSIxMCIgcGFnZWNvbG9yPSIjZmZmZmZmIiBzaG93Z3JpZD0iZmFsc2UiPiYjeGE7CTwvc29kaXBvZGk6bmFtZWR2aWV3PiYjeGE7PGcgaWQ9InNoYWRvdzQ0MDItMyIgdHJhbnNmb3JtPSJ0cmFuc2xhdGUoMC4zNDU1MTQ1NiwtMjIuMzIyMykiPiYjeGE7CTxnIGlkPSJwYXRoNDg4NTUiIGlua3NjYXBlOmNvbm5lY3Rvci1jdXJ2YXR1cmU9IjAiIHN0eWxlPSJmaWx0ZXI6dXJsKCNmaWx0ZXJfMik7Ij4mI3hhOwkJPHBhdGggc3R5bGU9Im9wYWNpdHk6MC4yMjtmaWxsOiM1QjlCRDU7IiBkPSJNMCw4NS44YzAsMS42NywxLjM2LDMuMDIsMy4wMiwzLjAySDcyLjVjMS42NiwwLDMuMDItMS4zNSwzLjAyLTMuMDJWMzguNTNIMFY4NS44eiIvPiYjeGE7CTwvZz4mI3hhOzwvZz4mI3hhOzxwYXRoIGlkPSJwYXRoNDg4NTgiIGlua3NjYXBlOmNvbm5lY3Rvci1jdXJ2YXR1cmU9IjAiIHN0eWxlPSJmaWxsOiM1OUI0RDk7IiBkPSJNMCw2MS41YzAsMS42NywxLjM2LDMuMDIsMy4wMiwzLjAySDcyLjUgIGMxLjY2LDAsMy4wMi0xLjM1LDMuMDItMy4wMlYxNC4yM0gwVjYxLjV6Ii8+JiN4YTs8ZyBpZD0ic2hhZG93NDQwMy04IiB0cmFuc2Zvcm09InRyYW5zbGF0ZSgyMS4wMzg2MTUsLTI2LjcwMjU4KSI+JiN4YTsJPGcgaWQ9InBhdGg0ODg2MyIgaW5rc2NhcGU6Y29ubmVjdG9yLWN1cnZhdHVyZT0iMCIgc3R5bGU9ImZpbHRlcjp1cmwoI2ZpbHRlcl8yKTsiPiYjeGE7CQk8cGF0aCBzdHlsZT0ib3BhY2l0eTowLjIyO2ZpbGw6IzVCOUJENTsiIGQ9Ik00NS43NywzNC40NWMwLTEuODEtMS4zNi0zLjE3LTMuMTgtMy4xN2MtMS44MSwwLTMuMTcsMS4zNi0zLjE3LDMuMTd2MzEuODdoLTYuMTkgICAgYy0wLjYtMy42My0yLjQyLTcuMS01LjE0LTkuOTdjLTMuNjItMy42Mi04LjMtNS41OS0xMy40NC01LjU5Yy00Ljk4LDAtOS44MiwxLjk3LTEzLjQ0LDUuNTlDMCw1Ny41NiwwLDU5LjUyLDEuMjEsNjAuODggICAgYzEuMjEsMS4yMSwzLjE3LDEuMjEsNC41MywwYzIuNDItMi40Miw1LjU5LTMuNjIsOC45MS0zLjYyczYuNSwxLjM2LDguOTEsMy42MmM0Ljk5LDQuOTksNC45OSwxMi45OSwwLDE3LjgyICAgIGMtMi40MSwyLjQyLTUuNTksMy42My04LjkxLDMuNjNzLTYuNDktMS4zNi04LjkxLTMuNjNjLTEuMjEtMS4yLTMuMTctMS4yLTQuNTMsMEMwLDc5LjkxLDAsODEuODgsMS4yMSw4My4yNCAgICBjMy42MiwzLjYyLDguMzEsNS41OCwxMy40NCw1LjU4YzQuOTksMCw5LjgyLTEuOTYsMTMuNDQtNS41OGMzLjAzLTMuMDIsNC42OS02LjY1LDUuMjktMTAuNThoOS4yMWMxLjgyLDAsMy4xOC0xLjM2LDMuMTgtMy4xNyAgICBWMzQuNDV6Ii8+JiN4YTsJPC9nPiYjeGE7PC9nPiYjeGE7PHBhdGggaWQ9InBhdGg0ODg2NiIgaW5rc2NhcGU6Y29ubmVjdG9yLWN1cnZhdHVyZT0iMCIgc3R5bGU9ImZpbGw6I0ZGRkZGRjsiIGQ9Ik02Ni40Niw1Ljc3YzAtMS44MS0xLjM2LTMuMTctMy4xOC0zLjE3ICBjLTEuODEsMC0zLjE3LDEuMzYtMy4xNywzLjE3djMxLjg3aC02LjE5Yy0wLjYtMy42My0yLjQyLTcuMS01LjE0LTkuOTdjLTMuNjItMy42Mi04LjMtNS41OS0xMy40NC01LjU5ICBjLTQuOTgsMC05LjgyLDEuOTctMTMuNDQsNS41OWMtMS4yMSwxLjIxLTEuMjEsMy4xNywwLDQuNTNjMS4yMSwxLjIxLDMuMTcsMS4yMSw0LjUzLDBjMi40Mi0yLjQyLDUuNTktMy42Miw4LjkxLTMuNjIgIHM2LjUsMS4zNiw4LjkxLDMuNjJjNC45OSw0Ljk5LDQuOTksMTIuOTksMCwxNy44MmMtMi40MSwyLjQyLTUuNTksMy42My04LjkxLDMuNjNzLTYuNDktMS4zNi04LjkxLTMuNjNjLTEuMjEtMS4yLTMuMTctMS4yLTQuNTMsMCAgYy0xLjIxLDEuMjEtMS4yMSwzLjE4LDAsNC41NGMzLjYyLDMuNjIsOC4zMSw1LjU4LDEzLjQ0LDUuNThjNC45OSwwLDkuODItMS45NiwxMy40NC01LjU4YzMuMDMtMy4wMiw0LjY5LTYuNjUsNS4yOS0xMC41OGg5LjIxICBjMS44MiwwLDMuMTgtMS4zNiwzLjE4LTMuMTdWNS43N3oiLz4mI3hhOzxnIGlkPSJzaGFkb3c0NDA0LTEzIiB0cmFuc2Zvcm09InRyYW5zbGF0ZSg5LjU1OTIxNDYsLTM4LjQ4NCkiPiYjeGE7CTxnIGlkPSJwYXRoNDg4NzEiIGlua3NjYXBlOmNvbm5lY3Rvci1jdXJ2YXR1cmU9IjAiIHN0eWxlPSJmaWx0ZXI6dXJsKCNmaWx0ZXJfMik7Ij4mI3hhOwkJPHBhdGggc3R5bGU9Im9wYWNpdHk6MC4yMjtmaWxsOiM1QjlCRDU7IiBkPSJNMjYuMTMsNzMuNzJjLTMuMDIsMC01LjU5LDEuODEtNi44LDQuMzhINi4xOVY0Ni4yM2MwLTEuODEtMS4zNi0zLjE3LTMuMTctMy4xNyAgICBDMS4zNiw0My4wNiwwLDQ0LjU3LDAsNDYuMjN2MzUuMDRjMCwxLjgyLDEuMzYsMy4xNywzLjE3LDMuMTdoMTYuMzFjMS4yMSwyLjU3LDMuNzgsNC4zOCw2LjgsNC4zOGM0LjIzLDAsNy41NS0zLjMyLDcuNTUtNy41NSAgICBDMzMuNjgsNzcuMDQsMzAuMjEsNzMuNzIsMjYuMTMsNzMuNzJ6Ii8+JiN4YTsJPC9nPiYjeGE7PC9nPiYjeGE7PHBhdGggaWQ9InBhdGg0ODg3NCIgaW5rc2NhcGU6Y29ubmVjdG9yLWN1cnZhdHVyZT0iMCIgc3R5bGU9ImZpbGw6I0ZGRkZGRjsiIGQ9Ik0zNS4zNCwzMy4yNmMtMy4wMiwwLTUuNTksMS44MS02LjgsNC4zOEgxNS40VjUuNzcgIGMwLTEuODEtMS4zNi0zLjE3LTMuMTctMy4xN2MtMS42NiwwLTMuMDIsMS41MS0zLjAyLDMuMTd2MzUuMDRjMCwxLjgyLDEuMzYsMy4xNywzLjE3LDMuMTdoMTYuMzFjMS4yMSwyLjU3LDMuNzgsNC4zOCw2LjgsNC4zOCAgYzQuMjMsMCw3LjU1LTMuMzIsNy41NS03LjU1QzQyLjg5LDM2LjU4LDM5LjQyLDMzLjI2LDM1LjM0LDMzLjI2eiIvPiYjeGE7PGcgaWQ9InNoYWRvdzQ0MDUtMTgiIHRyYW5zZm9ybT0idHJhbnNsYXRlKDAuMzQ1NTE0NTYsLTcyLjE2NjkpIj4mI3hhOwk8ZyBpZD0icGF0aDQ4ODc5IiBpbmtzY2FwZTpjb25uZWN0b3ItY3VydmF0dXJlPSIwIiBzdHlsZT0iZmlsdGVyOnVybCgjZmlsdGVyXzIpOyI+JiN4YTsJCTxwYXRoIHN0eWxlPSJvcGFjaXR5OjAuMjI7ZmlsbDojNUI5QkQ1OyIgZD0iTTcyLjUsNzQuMzJIMy4wMkMxLjM2LDc0LjMyLDAsNzUuNjgsMCw3Ny4zNXYxMS40N2g3NS41MlY3Ny4zNSAgICBDNzUuNTIsNzUuNjgsNzQuMTYsNzQuMzIsNzIuNSw3NC4zMnoiLz4mI3hhOwk8L2c+JiN4YTs8L2c+JiN4YTs8cGF0aCBpZD0icGF0aDQ4ODgyIiBpbmtzY2FwZTpjb25uZWN0b3ItY3VydmF0dXJlPSIwIiBzdHlsZT0iZmlsbDojQTBBMUEyOyIgZD0iTTcyLjUsMC4xOEgzLjAyQzEuMzYsMC4xOCwwLDEuNTQsMCwzLjIxdjExLjQ3ICBoNzUuNTJWMy4yMUM3NS41MiwxLjU0LDc0LjE2LDAuMTgsNzIuNSwwLjE4eiIvPiYjeGE7PGcgaWQ9InNoYWRvdzQ0MDYtMjMiIHRyYW5zZm9ybT0idHJhbnNsYXRlKDAuMzQ1NTE0NTYsLTIyLjMyMjMpIj4mI3hhOwk8ZyBpZD0icGF0aDQ4ODg3IiBpbmtzY2FwZTpjb25uZWN0b3ItY3VydmF0dXJlPSIwIiBzdHlsZT0iZmlsdGVyOnVybCgjZmlsdGVyXzIpOyI+JiN4YTsJCTxwYXRoIHN0eWxlPSJvcGFjaXR5OjAuMjI7ZmlsbDojNUI5QkQ1OyIgZD0iTTMuMDIsMjQuNDhDMS4zNiwyNC40OCwwLDI1Ljg0LDAsMjcuNXYxMS4wM3Y0Ljk4Vjg1LjhjMCwxLjY3LDEuMzYsMy4wMiwzLjAyLDMuMDIgICAgaDMuMzJsNTkuNTItNjQuMzRIMy4wMnoiLz4mI3hhOwk8L2c+JiN4YTs8L2c+JiN4YTs8cGF0aCBpZD0icGF0aDQ4ODkwIiBpbmtzY2FwZTpjb25uZWN0b3ItY3VydmF0dXJlPSIwIiBzdHlsZT0iZmlsbDojRkZGRkZGO2ZpbGwtb3BhY2l0eTowLjI7IiBkPSJNMy4wMiwwLjE4ICBDMS4zNiwwLjE4LDAsMS41NCwwLDMuMnYxMS4wM3Y0Ljk4VjYxLjVjMCwxLjY3LDEuMzYsMy4wMiwzLjAyLDMuMDJoMy4zMkw2NS44NiwwLjE4SDMuMDJ6Ii8+JiN4YTs8L3N2Zz4=;" parent="1" vertex="1">
          <mxGeometry x="1400" y="310" width="92" height="78.68" as="geometry" />
        </mxCell>
        <mxCell id="LZ94WY0f2Ng10KsayG94-11" value="Request&lt;br&gt;String: fileName&lt;br&gt;" style="text;html=1;strokeColor=none;fillColor=none;align=center;verticalAlign=middle;whiteSpace=wrap;rounded=0;" parent="1" vertex="1">
          <mxGeometry x="1230" y="250" width="120" height="50" as="geometry" />
        </mxCell>
        <mxCell id="LZ94WY0f2Ng10KsayG94-12" value="/AuthorizationUpload" style="text;html=1;strokeColor=none;fillColor=none;align=center;verticalAlign=middle;whiteSpace=wrap;rounded=0;" parent="1" vertex="1">
          <mxGeometry x="1240" y="300" width="120" height="30" as="geometry" />
        </mxCell>
        <mxCell id="LZ94WY0f2Ng10KsayG94-14" style="edgeStyle=orthogonalEdgeStyle;rounded=0;orthogonalLoop=1;jettySize=auto;html=1;" parent="1" edge="1">
          <mxGeometry relative="1" as="geometry">
            <mxPoint x="1470" y="310" as="sourcePoint" />
            <mxPoint x="1470" y="192.19000000000005" as="targetPoint" />
            <Array as="points">
              <mxPoint x="1470" y="250" />
              <mxPoint x="1470" y="250" />
            </Array>
          </mxGeometry>
        </mxCell>
        <mxCell id="LZ94WY0f2Ng10KsayG94-15" value="Response&amp;nbsp;&lt;br&gt;String: SasToken&lt;br&gt;" style="text;html=1;strokeColor=none;fillColor=none;align=center;verticalAlign=middle;whiteSpace=wrap;rounded=0;" parent="1" vertex="1">
          <mxGeometry x="1480" y="225" width="120" height="90" as="geometry" />
        </mxCell>
        <mxCell id="LZ94WY0f2Ng10KsayG94-16" value="VISOR" style="text;html=1;strokeColor=none;fillColor=none;align=center;verticalAlign=middle;whiteSpace=wrap;rounded=0;" parent="1" vertex="1">
          <mxGeometry x="1040" y="220" width="120" height="40" as="geometry" />
        </mxCell>
        <mxCell id="LZ94WY0f2Ng10KsayG94-17" value="" style="sketch=0;aspect=fixed;html=1;points=[];align=center;image;fontSize=12;image=img/lib/mscae/BlobBlock.svg;" parent="1" vertex="1">
          <mxGeometry x="1720" y="320.00000000000006" width="83.33" height="70" as="geometry" />
        </mxCell>
        <mxCell id="LZ94WY0f2Ng10KsayG94-18" style="edgeStyle=orthogonalEdgeStyle;rounded=0;orthogonalLoop=1;jettySize=auto;html=1;" parent="1" edge="1">
          <mxGeometry relative="1" as="geometry">
            <Array as="points">
              <mxPoint x="1590" y="330.04" />
              <mxPoint x="1590" y="330.04" />
            </Array>
            <mxPoint x="1492" y="330.04" as="sourcePoint" />
            <mxPoint x="1720" y="330.04" as="targetPoint" />
          </mxGeometry>
        </mxCell>
        <mxCell id="LZ94WY0f2Ng10KsayG94-19" style="edgeStyle=orthogonalEdgeStyle;rounded=0;orthogonalLoop=1;jettySize=auto;html=1;" parent="1" edge="1">
          <mxGeometry relative="1" as="geometry">
            <Array as="points">
              <mxPoint x="1590" y="370" />
              <mxPoint x="1590" y="370" />
            </Array>
            <mxPoint x="1720" y="370" as="sourcePoint" />
            <mxPoint x="1492" y="370" as="targetPoint" />
          </mxGeometry>
        </mxCell>
        <mxCell id="LZ94WY0f2Ng10KsayG94-20" value="SAS TOKEN" style="text;html=1;strokeColor=none;fillColor=none;align=center;verticalAlign=middle;whiteSpace=wrap;rounded=0;" parent="1" vertex="1">
          <mxGeometry x="1550" y="290" width="120" height="40" as="geometry" />
        </mxCell>
        <mxCell id="LZ94WY0f2Ng10KsayG94-21" value="Crea el fileName.xls y luego genera el sas token para acceder al archivo." style="text;html=1;strokeColor=none;fillColor=none;align=center;verticalAlign=middle;whiteSpace=wrap;rounded=0;" parent="1" vertex="1">
          <mxGeometry x="1550" y="368.68" width="120" height="90" as="geometry" />
        </mxCell>
        <mxCell id="LZ94WY0f2Ng10KsayG94-27" style="edgeStyle=orthogonalEdgeStyle;rounded=0;orthogonalLoop=1;jettySize=auto;html=1;" parent="1" source="LZ94WY0f2Ng10KsayG94-22" target="LZ94WY0f2Ng10KsayG94-24" edge="1">
          <mxGeometry relative="1" as="geometry" />
        </mxCell>
        <mxCell id="LZ94WY0f2Ng10KsayG94-22" value="" style="shape=image;verticalLabelPosition=bottom;labelBackgroundColor=#ffffff;verticalAlign=top;aspect=fixed;imageAspect=0;image=data:image/svg+xml,PHN2ZyB4bWxuczpjYz0iaHR0cDovL2NyZWF0aXZlY29tbW9ucy5vcmcvbnMjIiB4bWxuczpkYz0iaHR0cDovL3B1cmwub3JnL2RjL2VsZW1lbnRzLzEuMS8iIHhtbG5zOmlua3NjYXBlPSJodHRwOi8vd3d3Lmlua3NjYXBlLm9yZy9uYW1lc3BhY2VzL2lua3NjYXBlIiB4bWxuczpyZGY9Imh0dHA6Ly93d3cudzMub3JnLzE5OTkvMDIvMjItcmRmLXN5bnRheC1ucyMiIHhtbG5zOnNvZGlwb2RpPSJodHRwOi8vc29kaXBvZGkuc291cmNlZm9yZ2UubmV0L0RURC9zb2RpcG9kaS0wLmR0ZCIgeG1sbnM6c3ZnPSJodHRwOi8vd3d3LnczLm9yZy8yMDAwL3N2ZyIgeG1sbnM9Imh0dHA6Ly93d3cudzMub3JnLzIwMDAvc3ZnIiB4bWxuczp4bGluaz0iaHR0cDovL3d3dy53My5vcmcvMTk5OS94bGluayIgdmVyc2lvbj0iMS4xIiBpZD0ic3ZnMjMxMzAiIHg9IjBweCIgeT0iMHB4IiB2aWV3Qm94PSIwIDAgNDIgMzAiIHN0eWxlPSJlbmFibGUtYmFja2dyb3VuZDpuZXcgMCAwIDQyIDMwOyIgeG1sOnNwYWNlPSJwcmVzZXJ2ZSI+JiN4YTs8c29kaXBvZGk6bmFtZWR2aWV3IGJvcmRlcmNvbG9yPSIjNjY2NjY2IiBib3JkZXJvcGFjaXR5PSIxIiBmaXQtbWFyZ2luLWJvdHRvbT0iMCIgZml0LW1hcmdpbi1sZWZ0PSIwIiBmaXQtbWFyZ2luLXJpZ2h0PSIwIiBmaXQtbWFyZ2luLXRvcD0iMCIgZ3JpZHRvbGVyYW5jZT0iMTAiIGd1aWRldG9sZXJhbmNlPSIxMCIgaWQ9Im5hbWVkdmlldzIzMTMyIiBpbmtzY2FwZTpjdXJyZW50LWxheWVyPSJzdmcyMzEzMCIgaW5rc2NhcGU6Y3g9IjI2LjEzMzkyNSIgaW5rc2NhcGU6Y3k9IjE1Ljc4MzM2NSIgaW5rc2NhcGU6cGFnZW9wYWNpdHk9IjAiIGlua3NjYXBlOnBhZ2VzaGFkb3c9IjIiIGlua3NjYXBlOndpbmRvdy1oZWlnaHQ9IjEwMTciIGlua3NjYXBlOndpbmRvdy1tYXhpbWl6ZWQ9IjEiIGlua3NjYXBlOndpbmRvdy13aWR0aD0iMTkyMCIgaW5rc2NhcGU6d2luZG93LXg9Ii04IiBpbmtzY2FwZTp3aW5kb3cteT0iLTgiIGlua3NjYXBlOnpvb209IjE0LjU5NjcwNCIgb2JqZWN0dG9sZXJhbmNlPSIxMCIgcGFnZWNvbG9yPSIjZmZmZmZmIiBzaG93Z3JpZD0iZmFsc2UiPiYjeGE7CTwvc29kaXBvZGk6bmFtZWR2aWV3PiYjeGE7PGcgaWQ9ImcyMzEyOCIgdHJhbnNmb3JtPSJ0cmFuc2xhdGUoLTAuNzQ5OTkyMDMsLTAuNzQ5OTkyMDMpIj4mI3hhOwk8dGl0bGUgaWQ9InRpdGxlMjMwOTUiPlBhZ2UtMTwvdGl0bGU+JiN4YTsJPGcgaWQ9Imdyb3VwMTgxOS0xIiB0cmFuc2Zvcm09InRyYW5zbGF0ZSgxLjUsLTEuNSkiPiYjeGE7CQk8dGl0bGUgaWQ9InRpdGxlMjMwOTciPkFwcGxpY2F0aW9uICMxPC90aXRsZT4mI3hhOwkJPGcgaWQ9InNoYXBlMTgyMC0yIj4mI3hhOwkJCTx0aXRsZSBpZD0idGl0bGUyMzA5OSI+cmVjdDM3OTguMjc1OTE8L3RpdGxlPiYjeGE7CQkJJiN4YTsJCQkJPHBhdGggaWQ9InBhdGgyMzEwMSIgaW5rc2NhcGU6Y29ubmVjdG9yLWN1cnZhdHVyZT0iMCIgc3R5bGU9ImZpbGwtcnVsZTpldmVub2RkO2NsaXAtcnVsZTpldmVub2RkO2ZpbGw6I0ZGRkZGRjtzdHJva2U6IzU1NkE4QTtzdHJva2Utd2lkdGg6MS41O3N0cm9rZS1taXRlcmxpbWl0OjM7IiBkPSIgICAgIE0wLDI5Ljk1YzAsMC44NSwwLjY5LDEuNTUsMS41NCwxLjU1aDM3LjQxYzAuODUsMCwxLjU1LTAuNjksMS41NS0xLjU0YzAsMCwwLTAuMDEsMC0wLjAxVjQuNTRDNDAuNSwzLjY5LDM5LjgsMywzOC45NSwzSDEuNTQgICAgIEMwLjY5LDMsMCwzLjY5LDAsNC41NFYyOS45NXoiLz4mI3hhOwkJPC9nPiYjeGE7CQk8ZyBpZD0iZ3JvdXAxODIxLTQiIHRyYW5zZm9ybT0idHJhbnNsYXRlKDExLjI1LC02KSI+JiN4YTsJCQk8dGl0bGUgaWQ9InRpdGxlMjMxMDQiPmczODA4LjI3NTkyPC90aXRsZT4mI3hhOwkJCTxnIGlkPSJzaGFwZTE4MjItNSIgdHJhbnNmb3JtPSJ0cmFuc2xhdGUoMC42OTc1LC04Ljk5MjUpIj4mI3hhOwkJCQk8dGl0bGUgaWQ9InRpdGxlMjMxMDYiPnBvbHlnb24zODAyPC90aXRsZT4mI3hhOwkJCQk8cGF0aCBpZD0icGF0aDIzMTA4IiBpbmtzY2FwZTpjb25uZWN0b3ItY3VydmF0dXJlPSIwIiBzdHlsZT0iZmlsbC1ydWxlOmV2ZW5vZGQ7Y2xpcC1ydWxlOmV2ZW5vZGQ7ZmlsbDojMkJDN0Y0OyIgZD0iICAgICAgTTYuOCwyNC4zNkwwLDI3LjgxbDYuOCwzLjY5bDYuNzUtMy43Nkw2LjgsMjQuMzZ6Ii8+JiN4YTsJCQk8L2c+JiN4YTsJCQk8ZyBpZD0ic2hhcGUxODIzLTciPiYjeGE7CQkJCTx0aXRsZSBpZD0idGl0bGUyMzExMSI+cG9seWdvbjM4MDQ8L3RpdGxlPiYjeGE7CQkJCTxwYXRoIGlkPSJwYXRoMjMxMTMiIGlua3NjYXBlOmNvbm5lY3Rvci1jdXJ2YXR1cmU9IjAiIHN0eWxlPSJmaWxsLXJ1bGU6ZXZlbm9kZDtjbGlwLXJ1bGU6ZXZlbm9kZDtmaWxsOiMyQkM3RjQ7IiBkPSJNMCwyNy42NCAgICAgIGw2Ljc1LDMuODZ2LTguMjdMMCwxOS41NlYyNy42NHoiLz4mI3hhOwkJCTwvZz4mI3hhOwkJCTxnIGlkPSJzaGFwZTE4MjQtOSIgdHJhbnNmb3JtPSJ0cmFuc2xhdGUoOC4yNSkiPiYjeGE7CQkJCTx0aXRsZSBpZD0idGl0bGUyMzExNiI+cG9seWdvbjM4MDY8L3RpdGxlPiYjeGE7CQkJCTxwYXRoIGlkPSJwYXRoMjMxMTgiIGlua3NjYXBlOmNvbm5lY3Rvci1jdXJ2YXR1cmU9IjAiIHN0eWxlPSJmaWxsLXJ1bGU6ZXZlbm9kZDtjbGlwLXJ1bGU6ZXZlbm9kZDtmaWxsOiMyQkM3RjQ7IiBkPSIgICAgICBNNi43NSwyNy42NEwwLDMxLjV2LTguMjdsNi43NS0zLjY3VjI3LjY0eiIvPiYjeGE7CQkJPC9nPiYjeGE7CQk8L2c+JiN4YTsJCTxnIGlkPSJzaGFwZTE4MjUtMTEiIHRyYW5zZm9ybT0idHJhbnNsYXRlKDM2Ljc1LC0xMS4yNSkiPiYjeGE7CQkJPHRpdGxlIGlkPSJ0aXRsZTIzMTIyIj5yZWN0Mzg0Ni4yNzYwODwvdGl0bGU+JiN4YTsJCQk8cGF0aCBpZD0icGF0aDIzMTI0IiBpbmtzY2FwZTpjb25uZWN0b3ItY3VydmF0dXJlPSIwIiBzdHlsZT0iZmlsbC1ydWxlOmV2ZW5vZGQ7Y2xpcC1ydWxlOmV2ZW5vZGQ7ZmlsbDojOURBOEI3OyIgZD0iTTAsMzAuNzUgICAgIGMwLDAuNDEsMC4zNCwwLjc1LDAuNzUsMC43NWMwLjQxLDAsMC43NS0wLjM0LDAuNzUtMC43NXYtNC41YzAtMC40MS0wLjM0LTAuNzUtMC43NS0wLjc1QzAuMzQsMjUuNSwwLDI1Ljg0LDAsMjYuMjVWMzAuNzV6Ii8+JiN4YTsJCTwvZz4mI3hhOwk8L2c+JiN4YTs8L2c+JiN4YTs8L3N2Zz4=;" parent="1" vertex="1">
          <mxGeometry x="1040" y="559.29" width="120" height="85.71" as="geometry" />
        </mxCell>
        <mxCell id="LZ94WY0f2Ng10KsayG94-23" value="" style="sketch=0;aspect=fixed;html=1;points=[];align=center;image;fontSize=12;image=img/lib/mscae/BlobBlock.svg;" parent="1" vertex="1">
          <mxGeometry x="1636.67" y="559.29" width="83.33" height="70" as="geometry" />
        </mxCell>
        <mxCell id="LZ94WY0f2Ng10KsayG94-28" style="edgeStyle=orthogonalEdgeStyle;rounded=0;orthogonalLoop=1;jettySize=auto;html=1;entryX=-0.02;entryY=0.614;entryDx=0;entryDy=0;entryPerimeter=0;" parent="1" source="LZ94WY0f2Ng10KsayG94-24" target="LZ94WY0f2Ng10KsayG94-23" edge="1">
          <mxGeometry relative="1" as="geometry" />
        </mxCell>
        <mxCell id="LZ94WY0f2Ng10KsayG94-24" value="WAF" style="ellipse;whiteSpace=wrap;html=1;" parent="1" vertex="1">
          <mxGeometry x="1330" y="574.3" width="120" height="55.71" as="geometry" />
        </mxCell>
        <mxCell id="LZ94WY0f2Ng10KsayG94-25" value="Obtiene el archivo serializado" style="text;html=1;strokeColor=none;fillColor=none;align=center;verticalAlign=middle;whiteSpace=wrap;rounded=0;" parent="1" vertex="1">
          <mxGeometry x="180" y="745.71" width="120" height="50" as="geometry" />
        </mxCell>
        <mxCell id="LZ94WY0f2Ng10KsayG94-26" value="VISOR" style="text;html=1;strokeColor=none;fillColor=none;align=center;verticalAlign=middle;whiteSpace=wrap;rounded=0;" parent="1" vertex="1">
          <mxGeometry x="1040" y="650" width="120" height="40" as="geometry" />
        </mxCell>
        <mxCell id="LZ94WY0f2Ng10KsayG94-29" value="Sas Token enmascarado" style="text;html=1;strokeColor=none;fillColor=none;align=center;verticalAlign=middle;whiteSpace=wrap;rounded=0;" parent="1" vertex="1">
          <mxGeometry x="1190" y="547.9699999999999" width="120" height="50" as="geometry" />
        </mxCell>
        <mxCell id="LZ94WY0f2Ng10KsayG94-30" value="SasToken" style="text;html=1;strokeColor=none;fillColor=none;align=center;verticalAlign=middle;whiteSpace=wrap;rounded=0;" parent="1" vertex="1">
          <mxGeometry x="1490" y="559.29" width="120" height="50" as="geometry" />
        </mxCell>
        <mxCell id="LZ94WY0f2Ng10KsayG94-31" value="Carga archivo en blob storage" style="text;html=1;strokeColor=none;fillColor=none;align=center;verticalAlign=middle;whiteSpace=wrap;rounded=0;" parent="1" vertex="1">
          <mxGeometry x="1170" y="610" width="120" height="50" as="geometry" />
        </mxCell>
        <mxCell id="0cbcKrgpYcrlJENanbfO-119" style="edgeStyle=orthogonalEdgeStyle;rounded=0;orthogonalLoop=1;jettySize=auto;html=1;entryX=0;entryY=0.25;entryDx=0;entryDy=0;" parent="1" source="LZ94WY0f2Ng10KsayG94-32" target="LZ94WY0f2Ng10KsayG94-35" edge="1">
          <mxGeometry relative="1" as="geometry">
            <Array as="points">
              <mxPoint x="1359" y="860" />
            </Array>
          </mxGeometry>
        </mxCell>
        <mxCell id="LZ94WY0f2Ng10KsayG94-32" value="" style="shape=image;verticalLabelPosition=bottom;labelBackgroundColor=#ffffff;verticalAlign=top;aspect=fixed;imageAspect=0;image=data:image/svg+xml,PHN2ZyB4bWxuczpjYz0iaHR0cDovL2NyZWF0aXZlY29tbW9ucy5vcmcvbnMjIiB4bWxuczpkYz0iaHR0cDovL3B1cmwub3JnL2RjL2VsZW1lbnRzLzEuMS8iIHhtbG5zOmlua3NjYXBlPSJodHRwOi8vd3d3Lmlua3NjYXBlLm9yZy9uYW1lc3BhY2VzL2lua3NjYXBlIiB4bWxuczpyZGY9Imh0dHA6Ly93d3cudzMub3JnLzE5OTkvMDIvMjItcmRmLXN5bnRheC1ucyMiIHhtbG5zOnNvZGlwb2RpPSJodHRwOi8vc29kaXBvZGkuc291cmNlZm9yZ2UubmV0L0RURC9zb2RpcG9kaS0wLmR0ZCIgeG1sbnM6c3ZnPSJodHRwOi8vd3d3LnczLm9yZy8yMDAwL3N2ZyIgeG1sbnM9Imh0dHA6Ly93d3cudzMub3JnLzIwMDAvc3ZnIiB4bWxuczp4bGluaz0iaHR0cDovL3d3dy53My5vcmcvMTk5OS94bGluayIgdmVyc2lvbj0iMS4xIiBpZD0ic3ZnMjMxMzAiIHg9IjBweCIgeT0iMHB4IiB2aWV3Qm94PSIwIDAgNDIgMzAiIHN0eWxlPSJlbmFibGUtYmFja2dyb3VuZDpuZXcgMCAwIDQyIDMwOyIgeG1sOnNwYWNlPSJwcmVzZXJ2ZSI+JiN4YTs8c29kaXBvZGk6bmFtZWR2aWV3IGJvcmRlcmNvbG9yPSIjNjY2NjY2IiBib3JkZXJvcGFjaXR5PSIxIiBmaXQtbWFyZ2luLWJvdHRvbT0iMCIgZml0LW1hcmdpbi1sZWZ0PSIwIiBmaXQtbWFyZ2luLXJpZ2h0PSIwIiBmaXQtbWFyZ2luLXRvcD0iMCIgZ3JpZHRvbGVyYW5jZT0iMTAiIGd1aWRldG9sZXJhbmNlPSIxMCIgaWQ9Im5hbWVkdmlldzIzMTMyIiBpbmtzY2FwZTpjdXJyZW50LWxheWVyPSJzdmcyMzEzMCIgaW5rc2NhcGU6Y3g9IjI2LjEzMzkyNSIgaW5rc2NhcGU6Y3k9IjE1Ljc4MzM2NSIgaW5rc2NhcGU6cGFnZW9wYWNpdHk9IjAiIGlua3NjYXBlOnBhZ2VzaGFkb3c9IjIiIGlua3NjYXBlOndpbmRvdy1oZWlnaHQ9IjEwMTciIGlua3NjYXBlOndpbmRvdy1tYXhpbWl6ZWQ9IjEiIGlua3NjYXBlOndpbmRvdy13aWR0aD0iMTkyMCIgaW5rc2NhcGU6d2luZG93LXg9Ii04IiBpbmtzY2FwZTp3aW5kb3cteT0iLTgiIGlua3NjYXBlOnpvb209IjE0LjU5NjcwNCIgb2JqZWN0dG9sZXJhbmNlPSIxMCIgcGFnZWNvbG9yPSIjZmZmZmZmIiBzaG93Z3JpZD0iZmFsc2UiPiYjeGE7CTwvc29kaXBvZGk6bmFtZWR2aWV3PiYjeGE7PGcgaWQ9ImcyMzEyOCIgdHJhbnNmb3JtPSJ0cmFuc2xhdGUoLTAuNzQ5OTkyMDMsLTAuNzQ5OTkyMDMpIj4mI3hhOwk8dGl0bGUgaWQ9InRpdGxlMjMwOTUiPlBhZ2UtMTwvdGl0bGU+JiN4YTsJPGcgaWQ9Imdyb3VwMTgxOS0xIiB0cmFuc2Zvcm09InRyYW5zbGF0ZSgxLjUsLTEuNSkiPiYjeGE7CQk8dGl0bGUgaWQ9InRpdGxlMjMwOTciPkFwcGxpY2F0aW9uICMxPC90aXRsZT4mI3hhOwkJPGcgaWQ9InNoYXBlMTgyMC0yIj4mI3hhOwkJCTx0aXRsZSBpZD0idGl0bGUyMzA5OSI+cmVjdDM3OTguMjc1OTE8L3RpdGxlPiYjeGE7CQkJJiN4YTsJCQkJPHBhdGggaWQ9InBhdGgyMzEwMSIgaW5rc2NhcGU6Y29ubmVjdG9yLWN1cnZhdHVyZT0iMCIgc3R5bGU9ImZpbGwtcnVsZTpldmVub2RkO2NsaXAtcnVsZTpldmVub2RkO2ZpbGw6I0ZGRkZGRjtzdHJva2U6IzU1NkE4QTtzdHJva2Utd2lkdGg6MS41O3N0cm9rZS1taXRlcmxpbWl0OjM7IiBkPSIgICAgIE0wLDI5Ljk1YzAsMC44NSwwLjY5LDEuNTUsMS41NCwxLjU1aDM3LjQxYzAuODUsMCwxLjU1LTAuNjksMS41NS0xLjU0YzAsMCwwLTAuMDEsMC0wLjAxVjQuNTRDNDAuNSwzLjY5LDM5LjgsMywzOC45NSwzSDEuNTQgICAgIEMwLjY5LDMsMCwzLjY5LDAsNC41NFYyOS45NXoiLz4mI3hhOwkJPC9nPiYjeGE7CQk8ZyBpZD0iZ3JvdXAxODIxLTQiIHRyYW5zZm9ybT0idHJhbnNsYXRlKDExLjI1LC02KSI+JiN4YTsJCQk8dGl0bGUgaWQ9InRpdGxlMjMxMDQiPmczODA4LjI3NTkyPC90aXRsZT4mI3hhOwkJCTxnIGlkPSJzaGFwZTE4MjItNSIgdHJhbnNmb3JtPSJ0cmFuc2xhdGUoMC42OTc1LC04Ljk5MjUpIj4mI3hhOwkJCQk8dGl0bGUgaWQ9InRpdGxlMjMxMDYiPnBvbHlnb24zODAyPC90aXRsZT4mI3hhOwkJCQk8cGF0aCBpZD0icGF0aDIzMTA4IiBpbmtzY2FwZTpjb25uZWN0b3ItY3VydmF0dXJlPSIwIiBzdHlsZT0iZmlsbC1ydWxlOmV2ZW5vZGQ7Y2xpcC1ydWxlOmV2ZW5vZGQ7ZmlsbDojMkJDN0Y0OyIgZD0iICAgICAgTTYuOCwyNC4zNkwwLDI3LjgxbDYuOCwzLjY5bDYuNzUtMy43Nkw2LjgsMjQuMzZ6Ii8+JiN4YTsJCQk8L2c+JiN4YTsJCQk8ZyBpZD0ic2hhcGUxODIzLTciPiYjeGE7CQkJCTx0aXRsZSBpZD0idGl0bGUyMzExMSI+cG9seWdvbjM4MDQ8L3RpdGxlPiYjeGE7CQkJCTxwYXRoIGlkPSJwYXRoMjMxMTMiIGlua3NjYXBlOmNvbm5lY3Rvci1jdXJ2YXR1cmU9IjAiIHN0eWxlPSJmaWxsLXJ1bGU6ZXZlbm9kZDtjbGlwLXJ1bGU6ZXZlbm9kZDtmaWxsOiMyQkM3RjQ7IiBkPSJNMCwyNy42NCAgICAgIGw2Ljc1LDMuODZ2LTguMjdMMCwxOS41NlYyNy42NHoiLz4mI3hhOwkJCTwvZz4mI3hhOwkJCTxnIGlkPSJzaGFwZTE4MjQtOSIgdHJhbnNmb3JtPSJ0cmFuc2xhdGUoOC4yNSkiPiYjeGE7CQkJCTx0aXRsZSBpZD0idGl0bGUyMzExNiI+cG9seWdvbjM4MDY8L3RpdGxlPiYjeGE7CQkJCTxwYXRoIGlkPSJwYXRoMjMxMTgiIGlua3NjYXBlOmNvbm5lY3Rvci1jdXJ2YXR1cmU9IjAiIHN0eWxlPSJmaWxsLXJ1bGU6ZXZlbm9kZDtjbGlwLXJ1bGU6ZXZlbm9kZDtmaWxsOiMyQkM3RjQ7IiBkPSIgICAgICBNNi43NSwyNy42NEwwLDMxLjV2LTguMjdsNi43NS0zLjY3VjI3LjY0eiIvPiYjeGE7CQkJPC9nPiYjeGE7CQk8L2c+JiN4YTsJCTxnIGlkPSJzaGFwZTE4MjUtMTEiIHRyYW5zZm9ybT0idHJhbnNsYXRlKDM2Ljc1LC0xMS4yNSkiPiYjeGE7CQkJPHRpdGxlIGlkPSJ0aXRsZTIzMTIyIj5yZWN0Mzg0Ni4yNzYwODwvdGl0bGU+JiN4YTsJCQk8cGF0aCBpZD0icGF0aDIzMTI0IiBpbmtzY2FwZTpjb25uZWN0b3ItY3VydmF0dXJlPSIwIiBzdHlsZT0iZmlsbC1ydWxlOmV2ZW5vZGQ7Y2xpcC1ydWxlOmV2ZW5vZGQ7ZmlsbDojOURBOEI3OyIgZD0iTTAsMzAuNzUgICAgIGMwLDAuNDEsMC4zNCwwLjc1LDAuNzUsMC43NWMwLjQxLDAsMC43NS0wLjM0LDAuNzUtMC43NXYtNC41YzAtMC40MS0wLjM0LTAuNzUtMC43NS0wLjc1QzAuMzQsMjUuNSwwLDI1Ljg0LDAsMjYuMjVWMzAuNzV6Ii8+JiN4YTsJCTwvZz4mI3hhOwk8L2c+JiN4YTs8L2c+JiN4YTs8L3N2Zz4=;" parent="1" vertex="1">
          <mxGeometry x="1030" y="840" width="120" height="85.71" as="geometry" />
        </mxCell>
        <mxCell id="LZ94WY0f2Ng10KsayG94-33" value="VISOR" style="text;html=1;strokeColor=none;fillColor=none;align=center;verticalAlign=middle;whiteSpace=wrap;rounded=0;" parent="1" vertex="1">
          <mxGeometry x="1030" y="925.71" width="120" height="40" as="geometry" />
        </mxCell>
        <mxCell id="LZ94WY0f2Ng10KsayG94-34" value="Request&lt;br&gt;String: fileName&lt;br&gt;" style="text;html=1;strokeColor=none;fillColor=none;align=center;verticalAlign=middle;whiteSpace=wrap;rounded=0;" parent="1" vertex="1">
          <mxGeometry x="1200" y="795.71" width="120" height="60" as="geometry" />
        </mxCell>
        <mxCell id="0cbcKrgpYcrlJENanbfO-122" style="edgeStyle=orthogonalEdgeStyle;rounded=0;orthogonalLoop=1;jettySize=auto;html=1;entryX=0.5;entryY=0;entryDx=0;entryDy=0;" parent="1" source="LZ94WY0f2Ng10KsayG94-35" target="0cbcKrgpYcrlJENanbfO-68" edge="1">
          <mxGeometry relative="1" as="geometry">
            <mxPoint x="1416" y="960" as="targetPoint" />
            <Array as="points">
              <mxPoint x="1416" y="960" />
              <mxPoint x="1416" y="960" />
            </Array>
          </mxGeometry>
        </mxCell>
        <mxCell id="LZ94WY0f2Ng10KsayG94-35" value="channel-fraud.alert" style="shape=image;verticalLabelPosition=bottom;labelBackgroundColor=#ffffff;verticalAlign=top;aspect=fixed;imageAspect=0;image=data:image/svg+xml,PHN2ZyB4bWxuczpjYz0iaHR0cDovL2NyZWF0aXZlY29tbW9ucy5vcmcvbnMjIiB4bWxuczpkYz0iaHR0cDovL3B1cmwub3JnL2RjL2VsZW1lbnRzLzEuMS8iIHhtbG5zOmlua3NjYXBlPSJodHRwOi8vd3d3Lmlua3NjYXBlLm9yZy9uYW1lc3BhY2VzL2lua3NjYXBlIiB4bWxuczpyZGY9Imh0dHA6Ly93d3cudzMub3JnLzE5OTkvMDIvMjItcmRmLXN5bnRheC1ucyMiIHhtbG5zOnNvZGlwb2RpPSJodHRwOi8vc29kaXBvZGkuc291cmNlZm9yZ2UubmV0L0RURC9zb2RpcG9kaS0wLmR0ZCIgeG1sbnM6c3ZnPSJodHRwOi8vd3d3LnczLm9yZy8yMDAwL3N2ZyIgeG1sbnM9Imh0dHA6Ly93d3cudzMub3JnLzIwMDAvc3ZnIiB4bWxuczp4bGluaz0iaHR0cDovL3d3dy53My5vcmcvMTk5OS94bGluayIgdmVyc2lvbj0iMS4xIiBpZD0ic3ZnNDg4OTYiIGlua3NjYXBlOnZlcnNpb249IjAuOTIuMyAoMjQwNTU0NiwgMjAxOC0wMy0xMSkiIHNvZGlwb2RpOmRvY25hbWU9ImFwaV9hcHBzLnN2ZyIgeD0iMHB4IiB5PSIwcHgiIHZpZXdCb3g9IjAgMCA3NS41MiA2NC41MiIgc3R5bGU9ImVuYWJsZS1iYWNrZ3JvdW5kOm5ldyAwIDAgNzUuNTIgNjQuNTI7IiB4bWw6c3BhY2U9InByZXNlcnZlIj4mI3hhOzxmaWx0ZXIgaWQ9ImZpbHRlcl8yIj4mI3hhOwk8ZmVHYXVzc2lhbkJsdXIgaWQ9ImZlR2F1c3NpYW5CbHVyNDg4NDUiIHN0ZERldmlhdGlvbj0iMiIvPiYjeGE7PC9maWx0ZXI+JiN4YTs8c29kaXBvZGk6bmFtZWR2aWV3IGJvcmRlcmNvbG9yPSIjNjY2NjY2IiBib3JkZXJvcGFjaXR5PSIxIiBmaXQtbWFyZ2luLWJvdHRvbT0iMCIgZml0LW1hcmdpbi1sZWZ0PSIwIiBmaXQtbWFyZ2luLXJpZ2h0PSIwIiBmaXQtbWFyZ2luLXRvcD0iMCIgZ3JpZHRvbGVyYW5jZT0iMTAiIGd1aWRldG9sZXJhbmNlPSIxMCIgaWQ9Im5hbWVkdmlldzQ4ODk4IiBpbmtzY2FwZTpjdXJyZW50LWxheWVyPSJzdmc0ODg5NiIgaW5rc2NhcGU6Y3g9IjU3LjkzMjgyOCIgaW5rc2NhcGU6Y3k9IjUwLjYxMzU1MSIgaW5rc2NhcGU6cGFnZW9wYWNpdHk9IjAiIGlua3NjYXBlOnBhZ2VzaGFkb3c9IjIiIGlua3NjYXBlOndpbmRvdy1oZWlnaHQ9IjEwMTciIGlua3NjYXBlOndpbmRvdy1tYXhpbWl6ZWQ9IjEiIGlua3NjYXBlOndpbmRvdy13aWR0aD0iMTkyMCIgaW5rc2NhcGU6d2luZG93LXg9Ii04IiBpbmtzY2FwZTp3aW5kb3cteT0iLTgiIGlua3NjYXBlOnpvb209IjUuMTc2NDI5OSIgb2JqZWN0dG9sZXJhbmNlPSIxMCIgcGFnZWNvbG9yPSIjZmZmZmZmIiBzaG93Z3JpZD0iZmFsc2UiPiYjeGE7CTwvc29kaXBvZGk6bmFtZWR2aWV3PiYjeGE7PGcgaWQ9InNoYWRvdzQ0MDItMyIgdHJhbnNmb3JtPSJ0cmFuc2xhdGUoMC4zNDU1MTQ1NiwtMjIuMzIyMykiPiYjeGE7CTxnIGlkPSJwYXRoNDg4NTUiIGlua3NjYXBlOmNvbm5lY3Rvci1jdXJ2YXR1cmU9IjAiIHN0eWxlPSJmaWx0ZXI6dXJsKCNmaWx0ZXJfMik7Ij4mI3hhOwkJPHBhdGggc3R5bGU9Im9wYWNpdHk6MC4yMjtmaWxsOiM1QjlCRDU7IiBkPSJNMCw4NS44YzAsMS42NywxLjM2LDMuMDIsMy4wMiwzLjAySDcyLjVjMS42NiwwLDMuMDItMS4zNSwzLjAyLTMuMDJWMzguNTNIMFY4NS44eiIvPiYjeGE7CTwvZz4mI3hhOzwvZz4mI3hhOzxwYXRoIGlkPSJwYXRoNDg4NTgiIGlua3NjYXBlOmNvbm5lY3Rvci1jdXJ2YXR1cmU9IjAiIHN0eWxlPSJmaWxsOiM1OUI0RDk7IiBkPSJNMCw2MS41YzAsMS42NywxLjM2LDMuMDIsMy4wMiwzLjAySDcyLjUgIGMxLjY2LDAsMy4wMi0xLjM1LDMuMDItMy4wMlYxNC4yM0gwVjYxLjV6Ii8+JiN4YTs8ZyBpZD0ic2hhZG93NDQwMy04IiB0cmFuc2Zvcm09InRyYW5zbGF0ZSgyMS4wMzg2MTUsLTI2LjcwMjU4KSI+JiN4YTsJPGcgaWQ9InBhdGg0ODg2MyIgaW5rc2NhcGU6Y29ubmVjdG9yLWN1cnZhdHVyZT0iMCIgc3R5bGU9ImZpbHRlcjp1cmwoI2ZpbHRlcl8yKTsiPiYjeGE7CQk8cGF0aCBzdHlsZT0ib3BhY2l0eTowLjIyO2ZpbGw6IzVCOUJENTsiIGQ9Ik00NS43NywzNC40NWMwLTEuODEtMS4zNi0zLjE3LTMuMTgtMy4xN2MtMS44MSwwLTMuMTcsMS4zNi0zLjE3LDMuMTd2MzEuODdoLTYuMTkgICAgYy0wLjYtMy42My0yLjQyLTcuMS01LjE0LTkuOTdjLTMuNjItMy42Mi04LjMtNS41OS0xMy40NC01LjU5Yy00Ljk4LDAtOS44MiwxLjk3LTEzLjQ0LDUuNTlDMCw1Ny41NiwwLDU5LjUyLDEuMjEsNjAuODggICAgYzEuMjEsMS4yMSwzLjE3LDEuMjEsNC41MywwYzIuNDItMi40Miw1LjU5LTMuNjIsOC45MS0zLjYyczYuNSwxLjM2LDguOTEsMy42MmM0Ljk5LDQuOTksNC45OSwxMi45OSwwLDE3LjgyICAgIGMtMi40MSwyLjQyLTUuNTksMy42My04LjkxLDMuNjNzLTYuNDktMS4zNi04LjkxLTMuNjNjLTEuMjEtMS4yLTMuMTctMS4yLTQuNTMsMEMwLDc5LjkxLDAsODEuODgsMS4yMSw4My4yNCAgICBjMy42MiwzLjYyLDguMzEsNS41OCwxMy40NCw1LjU4YzQuOTksMCw5LjgyLTEuOTYsMTMuNDQtNS41OGMzLjAzLTMuMDIsNC42OS02LjY1LDUuMjktMTAuNThoOS4yMWMxLjgyLDAsMy4xOC0xLjM2LDMuMTgtMy4xNyAgICBWMzQuNDV6Ii8+JiN4YTsJPC9nPiYjeGE7PC9nPiYjeGE7PHBhdGggaWQ9InBhdGg0ODg2NiIgaW5rc2NhcGU6Y29ubmVjdG9yLWN1cnZhdHVyZT0iMCIgc3R5bGU9ImZpbGw6I0ZGRkZGRjsiIGQ9Ik02Ni40Niw1Ljc3YzAtMS44MS0xLjM2LTMuMTctMy4xOC0zLjE3ICBjLTEuODEsMC0zLjE3LDEuMzYtMy4xNywzLjE3djMxLjg3aC02LjE5Yy0wLjYtMy42My0yLjQyLTcuMS01LjE0LTkuOTdjLTMuNjItMy42Mi04LjMtNS41OS0xMy40NC01LjU5ICBjLTQuOTgsMC05LjgyLDEuOTctMTMuNDQsNS41OWMtMS4yMSwxLjIxLTEuMjEsMy4xNywwLDQuNTNjMS4yMSwxLjIxLDMuMTcsMS4yMSw0LjUzLDBjMi40Mi0yLjQyLDUuNTktMy42Miw4LjkxLTMuNjIgIHM2LjUsMS4zNiw4LjkxLDMuNjJjNC45OSw0Ljk5LDQuOTksMTIuOTksMCwxNy44MmMtMi40MSwyLjQyLTUuNTksMy42My04LjkxLDMuNjNzLTYuNDktMS4zNi04LjkxLTMuNjNjLTEuMjEtMS4yLTMuMTctMS4yLTQuNTMsMCAgYy0xLjIxLDEuMjEtMS4yMSwzLjE4LDAsNC41NGMzLjYyLDMuNjIsOC4zMSw1LjU4LDEzLjQ0LDUuNThjNC45OSwwLDkuODItMS45NiwxMy40NC01LjU4YzMuMDMtMy4wMiw0LjY5LTYuNjUsNS4yOS0xMC41OGg5LjIxICBjMS44MiwwLDMuMTgtMS4zNiwzLjE4LTMuMTdWNS43N3oiLz4mI3hhOzxnIGlkPSJzaGFkb3c0NDA0LTEzIiB0cmFuc2Zvcm09InRyYW5zbGF0ZSg5LjU1OTIxNDYsLTM4LjQ4NCkiPiYjeGE7CTxnIGlkPSJwYXRoNDg4NzEiIGlua3NjYXBlOmNvbm5lY3Rvci1jdXJ2YXR1cmU9IjAiIHN0eWxlPSJmaWx0ZXI6dXJsKCNmaWx0ZXJfMik7Ij4mI3hhOwkJPHBhdGggc3R5bGU9Im9wYWNpdHk6MC4yMjtmaWxsOiM1QjlCRDU7IiBkPSJNMjYuMTMsNzMuNzJjLTMuMDIsMC01LjU5LDEuODEtNi44LDQuMzhINi4xOVY0Ni4yM2MwLTEuODEtMS4zNi0zLjE3LTMuMTctMy4xNyAgICBDMS4zNiw0My4wNiwwLDQ0LjU3LDAsNDYuMjN2MzUuMDRjMCwxLjgyLDEuMzYsMy4xNywzLjE3LDMuMTdoMTYuMzFjMS4yMSwyLjU3LDMuNzgsNC4zOCw2LjgsNC4zOGM0LjIzLDAsNy41NS0zLjMyLDcuNTUtNy41NSAgICBDMzMuNjgsNzcuMDQsMzAuMjEsNzMuNzIsMjYuMTMsNzMuNzJ6Ii8+JiN4YTsJPC9nPiYjeGE7PC9nPiYjeGE7PHBhdGggaWQ9InBhdGg0ODg3NCIgaW5rc2NhcGU6Y29ubmVjdG9yLWN1cnZhdHVyZT0iMCIgc3R5bGU9ImZpbGw6I0ZGRkZGRjsiIGQ9Ik0zNS4zNCwzMy4yNmMtMy4wMiwwLTUuNTksMS44MS02LjgsNC4zOEgxNS40VjUuNzcgIGMwLTEuODEtMS4zNi0zLjE3LTMuMTctMy4xN2MtMS42NiwwLTMuMDIsMS41MS0zLjAyLDMuMTd2MzUuMDRjMCwxLjgyLDEuMzYsMy4xNywzLjE3LDMuMTdoMTYuMzFjMS4yMSwyLjU3LDMuNzgsNC4zOCw2LjgsNC4zOCAgYzQuMjMsMCw3LjU1LTMuMzIsNy41NS03LjU1QzQyLjg5LDM2LjU4LDM5LjQyLDMzLjI2LDM1LjM0LDMzLjI2eiIvPiYjeGE7PGcgaWQ9InNoYWRvdzQ0MDUtMTgiIHRyYW5zZm9ybT0idHJhbnNsYXRlKDAuMzQ1NTE0NTYsLTcyLjE2NjkpIj4mI3hhOwk8ZyBpZD0icGF0aDQ4ODc5IiBpbmtzY2FwZTpjb25uZWN0b3ItY3VydmF0dXJlPSIwIiBzdHlsZT0iZmlsdGVyOnVybCgjZmlsdGVyXzIpOyI+JiN4YTsJCTxwYXRoIHN0eWxlPSJvcGFjaXR5OjAuMjI7ZmlsbDojNUI5QkQ1OyIgZD0iTTcyLjUsNzQuMzJIMy4wMkMxLjM2LDc0LjMyLDAsNzUuNjgsMCw3Ny4zNXYxMS40N2g3NS41MlY3Ny4zNSAgICBDNzUuNTIsNzUuNjgsNzQuMTYsNzQuMzIsNzIuNSw3NC4zMnoiLz4mI3hhOwk8L2c+JiN4YTs8L2c+JiN4YTs8cGF0aCBpZD0icGF0aDQ4ODgyIiBpbmtzY2FwZTpjb25uZWN0b3ItY3VydmF0dXJlPSIwIiBzdHlsZT0iZmlsbDojQTBBMUEyOyIgZD0iTTcyLjUsMC4xOEgzLjAyQzEuMzYsMC4xOCwwLDEuNTQsMCwzLjIxdjExLjQ3ICBoNzUuNTJWMy4yMUM3NS41MiwxLjU0LDc0LjE2LDAuMTgsNzIuNSwwLjE4eiIvPiYjeGE7PGcgaWQ9InNoYWRvdzQ0MDYtMjMiIHRyYW5zZm9ybT0idHJhbnNsYXRlKDAuMzQ1NTE0NTYsLTIyLjMyMjMpIj4mI3hhOwk8ZyBpZD0icGF0aDQ4ODg3IiBpbmtzY2FwZTpjb25uZWN0b3ItY3VydmF0dXJlPSIwIiBzdHlsZT0iZmlsdGVyOnVybCgjZmlsdGVyXzIpOyI+JiN4YTsJCTxwYXRoIHN0eWxlPSJvcGFjaXR5OjAuMjI7ZmlsbDojNUI5QkQ1OyIgZD0iTTMuMDIsMjQuNDhDMS4zNiwyNC40OCwwLDI1Ljg0LDAsMjcuNXYxMS4wM3Y0Ljk4Vjg1LjhjMCwxLjY3LDEuMzYsMy4wMiwzLjAyLDMuMDIgICAgaDMuMzJsNTkuNTItNjQuMzRIMy4wMnoiLz4mI3hhOwk8L2c+JiN4YTs8L2c+JiN4YTs8cGF0aCBpZD0icGF0aDQ4ODkwIiBpbmtzY2FwZTpjb25uZWN0b3ItY3VydmF0dXJlPSIwIiBzdHlsZT0iZmlsbDojRkZGRkZGO2ZpbGwtb3BhY2l0eTowLjI7IiBkPSJNMy4wMiwwLjE4ICBDMS4zNiwwLjE4LDAsMS41NCwwLDMuMnYxMS4wM3Y0Ljk4VjYxLjVjMCwxLjY3LDEuMzYsMy4wMiwzLjAyLDMuMDJoMy4zMkw2NS44NiwwLjE4SDMuMDJ6Ii8+JiN4YTs8L3N2Zz4=;" parent="1" vertex="1">
          <mxGeometry x="1370" y="840" width="92" height="78.68" as="geometry" />
        </mxCell>
        <mxCell id="0cbcKrgpYcrlJENanbfO-1" style="edgeStyle=orthogonalEdgeStyle;rounded=0;orthogonalLoop=1;jettySize=auto;html=1;exitX=0.25;exitY=1;exitDx=0;exitDy=0;" parent="1" edge="1">
          <mxGeometry relative="1" as="geometry">
            <mxPoint x="430" y="339.67999999999995" as="sourcePoint" />
            <mxPoint x="430" y="218.68" as="targetPoint" />
            <Array as="points">
              <mxPoint x="430" y="299.67999999999995" />
              <mxPoint x="430" y="299.67999999999995" />
            </Array>
          </mxGeometry>
        </mxCell>
        <mxCell id="0cbcKrgpYcrlJENanbfO-4" style="edgeStyle=orthogonalEdgeStyle;rounded=0;orthogonalLoop=1;jettySize=auto;html=1;exitX=0.25;exitY=1;exitDx=0;exitDy=0;" parent="1" edge="1">
          <mxGeometry relative="1" as="geometry">
            <Array as="points">
              <mxPoint x="383" y="300" />
              <mxPoint x="383" y="300" />
            </Array>
            <mxPoint x="383" y="218.68000000000006" as="sourcePoint" />
            <mxPoint x="383" y="340" as="targetPoint" />
          </mxGeometry>
        </mxCell>
        <mxCell id="0cbcKrgpYcrlJENanbfO-13" value="Request&lt;br&gt;String: fileName&lt;br&gt;T: filter" style="text;html=1;strokeColor=none;fillColor=none;align=center;verticalAlign=middle;whiteSpace=wrap;rounded=0;" parent="1" vertex="1">
          <mxGeometry x="210" y="90" width="120" height="70" as="geometry" />
        </mxCell>
        <mxCell id="0cbcKrgpYcrlJENanbfO-14" value="VISOR" style="text;html=1;strokeColor=none;fillColor=none;align=center;verticalAlign=middle;whiteSpace=wrap;rounded=0;" parent="1" vertex="1">
          <mxGeometry x="60" y="230" width="120" height="40" as="geometry" />
        </mxCell>
        <mxCell id="0cbcKrgpYcrlJENanbfO-26" style="edgeStyle=orthogonalEdgeStyle;rounded=0;orthogonalLoop=1;jettySize=auto;html=1;" parent="1" source="0cbcKrgpYcrlJENanbfO-27" target="0cbcKrgpYcrlJENanbfO-32" edge="1">
          <mxGeometry relative="1" as="geometry" />
        </mxCell>
        <mxCell id="0cbcKrgpYcrlJENanbfO-27" value="" style="shape=image;verticalLabelPosition=bottom;labelBackgroundColor=#ffffff;verticalAlign=top;aspect=fixed;imageAspect=0;image=data:image/svg+xml,PHN2ZyB4bWxuczpjYz0iaHR0cDovL2NyZWF0aXZlY29tbW9ucy5vcmcvbnMjIiB4bWxuczpkYz0iaHR0cDovL3B1cmwub3JnL2RjL2VsZW1lbnRzLzEuMS8iIHhtbG5zOmlua3NjYXBlPSJodHRwOi8vd3d3Lmlua3NjYXBlLm9yZy9uYW1lc3BhY2VzL2lua3NjYXBlIiB4bWxuczpyZGY9Imh0dHA6Ly93d3cudzMub3JnLzE5OTkvMDIvMjItcmRmLXN5bnRheC1ucyMiIHhtbG5zOnNvZGlwb2RpPSJodHRwOi8vc29kaXBvZGkuc291cmNlZm9yZ2UubmV0L0RURC9zb2RpcG9kaS0wLmR0ZCIgeG1sbnM6c3ZnPSJodHRwOi8vd3d3LnczLm9yZy8yMDAwL3N2ZyIgeG1sbnM9Imh0dHA6Ly93d3cudzMub3JnLzIwMDAvc3ZnIiB4bWxuczp4bGluaz0iaHR0cDovL3d3dy53My5vcmcvMTk5OS94bGluayIgdmVyc2lvbj0iMS4xIiBpZD0ic3ZnMjMxMzAiIHg9IjBweCIgeT0iMHB4IiB2aWV3Qm94PSIwIDAgNDIgMzAiIHN0eWxlPSJlbmFibGUtYmFja2dyb3VuZDpuZXcgMCAwIDQyIDMwOyIgeG1sOnNwYWNlPSJwcmVzZXJ2ZSI+JiN4YTs8c29kaXBvZGk6bmFtZWR2aWV3IGJvcmRlcmNvbG9yPSIjNjY2NjY2IiBib3JkZXJvcGFjaXR5PSIxIiBmaXQtbWFyZ2luLWJvdHRvbT0iMCIgZml0LW1hcmdpbi1sZWZ0PSIwIiBmaXQtbWFyZ2luLXJpZ2h0PSIwIiBmaXQtbWFyZ2luLXRvcD0iMCIgZ3JpZHRvbGVyYW5jZT0iMTAiIGd1aWRldG9sZXJhbmNlPSIxMCIgaWQ9Im5hbWVkdmlldzIzMTMyIiBpbmtzY2FwZTpjdXJyZW50LWxheWVyPSJzdmcyMzEzMCIgaW5rc2NhcGU6Y3g9IjI2LjEzMzkyNSIgaW5rc2NhcGU6Y3k9IjE1Ljc4MzM2NSIgaW5rc2NhcGU6cGFnZW9wYWNpdHk9IjAiIGlua3NjYXBlOnBhZ2VzaGFkb3c9IjIiIGlua3NjYXBlOndpbmRvdy1oZWlnaHQ9IjEwMTciIGlua3NjYXBlOndpbmRvdy1tYXhpbWl6ZWQ9IjEiIGlua3NjYXBlOndpbmRvdy13aWR0aD0iMTkyMCIgaW5rc2NhcGU6d2luZG93LXg9Ii04IiBpbmtzY2FwZTp3aW5kb3cteT0iLTgiIGlua3NjYXBlOnpvb209IjE0LjU5NjcwNCIgb2JqZWN0dG9sZXJhbmNlPSIxMCIgcGFnZWNvbG9yPSIjZmZmZmZmIiBzaG93Z3JpZD0iZmFsc2UiPiYjeGE7CTwvc29kaXBvZGk6bmFtZWR2aWV3PiYjeGE7PGcgaWQ9ImcyMzEyOCIgdHJhbnNmb3JtPSJ0cmFuc2xhdGUoLTAuNzQ5OTkyMDMsLTAuNzQ5OTkyMDMpIj4mI3hhOwk8dGl0bGUgaWQ9InRpdGxlMjMwOTUiPlBhZ2UtMTwvdGl0bGU+JiN4YTsJPGcgaWQ9Imdyb3VwMTgxOS0xIiB0cmFuc2Zvcm09InRyYW5zbGF0ZSgxLjUsLTEuNSkiPiYjeGE7CQk8dGl0bGUgaWQ9InRpdGxlMjMwOTciPkFwcGxpY2F0aW9uICMxPC90aXRsZT4mI3hhOwkJPGcgaWQ9InNoYXBlMTgyMC0yIj4mI3hhOwkJCTx0aXRsZSBpZD0idGl0bGUyMzA5OSI+cmVjdDM3OTguMjc1OTE8L3RpdGxlPiYjeGE7CQkJJiN4YTsJCQkJPHBhdGggaWQ9InBhdGgyMzEwMSIgaW5rc2NhcGU6Y29ubmVjdG9yLWN1cnZhdHVyZT0iMCIgc3R5bGU9ImZpbGwtcnVsZTpldmVub2RkO2NsaXAtcnVsZTpldmVub2RkO2ZpbGw6I0ZGRkZGRjtzdHJva2U6IzU1NkE4QTtzdHJva2Utd2lkdGg6MS41O3N0cm9rZS1taXRlcmxpbWl0OjM7IiBkPSIgICAgIE0wLDI5Ljk1YzAsMC44NSwwLjY5LDEuNTUsMS41NCwxLjU1aDM3LjQxYzAuODUsMCwxLjU1LTAuNjksMS41NS0xLjU0YzAsMCwwLTAuMDEsMC0wLjAxVjQuNTRDNDAuNSwzLjY5LDM5LjgsMywzOC45NSwzSDEuNTQgICAgIEMwLjY5LDMsMCwzLjY5LDAsNC41NFYyOS45NXoiLz4mI3hhOwkJPC9nPiYjeGE7CQk8ZyBpZD0iZ3JvdXAxODIxLTQiIHRyYW5zZm9ybT0idHJhbnNsYXRlKDExLjI1LC02KSI+JiN4YTsJCQk8dGl0bGUgaWQ9InRpdGxlMjMxMDQiPmczODA4LjI3NTkyPC90aXRsZT4mI3hhOwkJCTxnIGlkPSJzaGFwZTE4MjItNSIgdHJhbnNmb3JtPSJ0cmFuc2xhdGUoMC42OTc1LC04Ljk5MjUpIj4mI3hhOwkJCQk8dGl0bGUgaWQ9InRpdGxlMjMxMDYiPnBvbHlnb24zODAyPC90aXRsZT4mI3hhOwkJCQk8cGF0aCBpZD0icGF0aDIzMTA4IiBpbmtzY2FwZTpjb25uZWN0b3ItY3VydmF0dXJlPSIwIiBzdHlsZT0iZmlsbC1ydWxlOmV2ZW5vZGQ7Y2xpcC1ydWxlOmV2ZW5vZGQ7ZmlsbDojMkJDN0Y0OyIgZD0iICAgICAgTTYuOCwyNC4zNkwwLDI3LjgxbDYuOCwzLjY5bDYuNzUtMy43Nkw2LjgsMjQuMzZ6Ii8+JiN4YTsJCQk8L2c+JiN4YTsJCQk8ZyBpZD0ic2hhcGUxODIzLTciPiYjeGE7CQkJCTx0aXRsZSBpZD0idGl0bGUyMzExMSI+cG9seWdvbjM4MDQ8L3RpdGxlPiYjeGE7CQkJCTxwYXRoIGlkPSJwYXRoMjMxMTMiIGlua3NjYXBlOmNvbm5lY3Rvci1jdXJ2YXR1cmU9IjAiIHN0eWxlPSJmaWxsLXJ1bGU6ZXZlbm9kZDtjbGlwLXJ1bGU6ZXZlbm9kZDtmaWxsOiMyQkM3RjQ7IiBkPSJNMCwyNy42NCAgICAgIGw2Ljc1LDMuODZ2LTguMjdMMCwxOS41NlYyNy42NHoiLz4mI3hhOwkJCTwvZz4mI3hhOwkJCTxnIGlkPSJzaGFwZTE4MjQtOSIgdHJhbnNmb3JtPSJ0cmFuc2xhdGUoOC4yNSkiPiYjeGE7CQkJCTx0aXRsZSBpZD0idGl0bGUyMzExNiI+cG9seWdvbjM4MDY8L3RpdGxlPiYjeGE7CQkJCTxwYXRoIGlkPSJwYXRoMjMxMTgiIGlua3NjYXBlOmNvbm5lY3Rvci1jdXJ2YXR1cmU9IjAiIHN0eWxlPSJmaWxsLXJ1bGU6ZXZlbm9kZDtjbGlwLXJ1bGU6ZXZlbm9kZDtmaWxsOiMyQkM3RjQ7IiBkPSIgICAgICBNNi43NSwyNy42NEwwLDMxLjV2LTguMjdsNi43NS0zLjY3VjI3LjY0eiIvPiYjeGE7CQkJPC9nPiYjeGE7CQk8L2c+JiN4YTsJCTxnIGlkPSJzaGFwZTE4MjUtMTEiIHRyYW5zZm9ybT0idHJhbnNsYXRlKDM2Ljc1LC0xMS4yNSkiPiYjeGE7CQkJPHRpdGxlIGlkPSJ0aXRsZTIzMTIyIj5yZWN0Mzg0Ni4yNzYwODwvdGl0bGU+JiN4YTsJCQk8cGF0aCBpZD0icGF0aDIzMTI0IiBpbmtzY2FwZTpjb25uZWN0b3ItY3VydmF0dXJlPSIwIiBzdHlsZT0iZmlsbC1ydWxlOmV2ZW5vZGQ7Y2xpcC1ydWxlOmV2ZW5vZGQ7ZmlsbDojOURBOEI3OyIgZD0iTTAsMzAuNzUgICAgIGMwLDAuNDEsMC4zNCwwLjc1LDAuNzUsMC43NWMwLjQxLDAsMC43NS0wLjM0LDAuNzUtMC43NXYtNC41YzAtMC40MS0wLjM0LTAuNzUtMC43NS0wLjc1QzAuMzQsMjUuNSwwLDI1Ljg0LDAsMjYuMjVWMzAuNzV6Ii8+JiN4YTsJCTwvZz4mI3hhOwk8L2c+JiN4YTs8L2c+JiN4YTs8L3N2Zz4=;" parent="1" vertex="1">
          <mxGeometry x="60" y="690" width="120" height="85.71" as="geometry" />
        </mxCell>
        <mxCell id="0cbcKrgpYcrlJENanbfO-28" value="VISOR" style="text;html=1;strokeColor=none;fillColor=none;align=center;verticalAlign=middle;whiteSpace=wrap;rounded=0;" parent="1" vertex="1">
          <mxGeometry x="60" y="780" width="120" height="40" as="geometry" />
        </mxCell>
        <mxCell id="0cbcKrgpYcrlJENanbfO-29" value="" style="sketch=0;aspect=fixed;html=1;points=[];align=center;image;fontSize=12;image=img/lib/mscae/BlobBlock.svg;" parent="1" vertex="1">
          <mxGeometry x="670" y="690" width="83.33" height="70" as="geometry" />
        </mxCell>
        <mxCell id="0cbcKrgpYcrlJENanbfO-30" value="BLOBSTORAGE" style="text;html=1;strokeColor=none;fillColor=none;align=center;verticalAlign=middle;whiteSpace=wrap;rounded=0;" parent="1" vertex="1">
          <mxGeometry x="651.66" y="770" width="120" height="40" as="geometry" />
        </mxCell>
        <mxCell id="0cbcKrgpYcrlJENanbfO-31" style="edgeStyle=orthogonalEdgeStyle;rounded=0;orthogonalLoop=1;jettySize=auto;html=1;entryX=-0.012;entryY=0.614;entryDx=0;entryDy=0;entryPerimeter=0;" parent="1" source="0cbcKrgpYcrlJENanbfO-32" target="0cbcKrgpYcrlJENanbfO-29" edge="1">
          <mxGeometry relative="1" as="geometry" />
        </mxCell>
        <mxCell id="0cbcKrgpYcrlJENanbfO-32" value="WAF" style="ellipse;whiteSpace=wrap;html=1;" parent="1" vertex="1">
          <mxGeometry x="354" y="705" width="120" height="55.71" as="geometry" />
        </mxCell>
        <mxCell id="0cbcKrgpYcrlJENanbfO-33" value="Sas Token enmascarado" style="text;html=1;strokeColor=none;fillColor=none;align=center;verticalAlign=middle;whiteSpace=wrap;rounded=0;" parent="1" vertex="1">
          <mxGeometry x="210" y="680" width="120" height="50" as="geometry" />
        </mxCell>
        <mxCell id="0cbcKrgpYcrlJENanbfO-34" value="SasToken" style="text;html=1;strokeColor=none;fillColor=none;align=center;verticalAlign=middle;whiteSpace=wrap;rounded=0;" parent="1" vertex="1">
          <mxGeometry x="520" y="680" width="120" height="50" as="geometry" />
        </mxCell>
        <mxCell id="0cbcKrgpYcrlJENanbfO-38" style="edgeStyle=orthogonalEdgeStyle;rounded=0;orthogonalLoop=1;jettySize=auto;html=1;" parent="1" edge="1">
          <mxGeometry relative="1" as="geometry">
            <Array as="points">
              <mxPoint x="1420" y="250" />
              <mxPoint x="1420" y="250" />
            </Array>
            <mxPoint x="1420" y="192.19000000000005" as="sourcePoint" />
            <mxPoint x="1420" y="310" as="targetPoint" />
          </mxGeometry>
        </mxCell>
        <mxCell id="0cbcKrgpYcrlJENanbfO-47" style="edgeStyle=orthogonalEdgeStyle;rounded=0;orthogonalLoop=1;jettySize=auto;html=1;" parent="1" edge="1">
          <mxGeometry relative="1" as="geometry">
            <mxPoint x="1470" y="310" as="sourcePoint" />
            <mxPoint x="1470" y="192.19000000000005" as="targetPoint" />
            <Array as="points">
              <mxPoint x="1470" y="250" />
              <mxPoint x="1470" y="250" />
            </Array>
          </mxGeometry>
        </mxCell>
        <mxCell id="0cbcKrgpYcrlJENanbfO-55" style="edgeStyle=orthogonalEdgeStyle;rounded=0;orthogonalLoop=1;jettySize=auto;html=1;" parent="1" edge="1">
          <mxGeometry relative="1" as="geometry">
            <mxPoint x="1160" y="602.145" as="sourcePoint" />
            <mxPoint x="1330.0001169609081" y="602.0999999999999" as="targetPoint" />
          </mxGeometry>
        </mxCell>
        <mxCell id="0cbcKrgpYcrlJENanbfO-60" value="Obtiene el archivo serializado" style="text;html=1;strokeColor=none;fillColor=none;align=center;verticalAlign=middle;whiteSpace=wrap;rounded=0;" parent="1" vertex="1">
          <mxGeometry x="180" y="745.71" width="120" height="50" as="geometry" />
        </mxCell>
        <mxCell id="0cbcKrgpYcrlJENanbfO-128" style="edgeStyle=orthogonalEdgeStyle;rounded=0;orthogonalLoop=1;jettySize=auto;html=1;entryX=-0.012;entryY=0.439;entryDx=0;entryDy=0;entryPerimeter=0;" parent="1" source="0cbcKrgpYcrlJENanbfO-68" target="0cbcKrgpYcrlJENanbfO-123" edge="1">
          <mxGeometry relative="1" as="geometry" />
        </mxCell>
        <mxCell id="0cbcKrgpYcrlJENanbfO-68" value="bussines-fraud.alert" style="shape=image;verticalLabelPosition=bottom;labelBackgroundColor=#ffffff;verticalAlign=top;aspect=fixed;imageAspect=0;image=data:image/svg+xml,PHN2ZyB4bWxuczpjYz0iaHR0cDovL2NyZWF0aXZlY29tbW9ucy5vcmcvbnMjIiB4bWxuczpkYz0iaHR0cDovL3B1cmwub3JnL2RjL2VsZW1lbnRzLzEuMS8iIHhtbG5zOmlua3NjYXBlPSJodHRwOi8vd3d3Lmlua3NjYXBlLm9yZy9uYW1lc3BhY2VzL2lua3NjYXBlIiB4bWxuczpyZGY9Imh0dHA6Ly93d3cudzMub3JnLzE5OTkvMDIvMjItcmRmLXN5bnRheC1ucyMiIHhtbG5zOnNvZGlwb2RpPSJodHRwOi8vc29kaXBvZGkuc291cmNlZm9yZ2UubmV0L0RURC9zb2RpcG9kaS0wLmR0ZCIgeG1sbnM6c3ZnPSJodHRwOi8vd3d3LnczLm9yZy8yMDAwL3N2ZyIgeG1sbnM9Imh0dHA6Ly93d3cudzMub3JnLzIwMDAvc3ZnIiB4bWxuczp4bGluaz0iaHR0cDovL3d3dy53My5vcmcvMTk5OS94bGluayIgdmVyc2lvbj0iMS4xIiBpZD0ic3ZnNDg4OTYiIGlua3NjYXBlOnZlcnNpb249IjAuOTIuMyAoMjQwNTU0NiwgMjAxOC0wMy0xMSkiIHNvZGlwb2RpOmRvY25hbWU9ImFwaV9hcHBzLnN2ZyIgeD0iMHB4IiB5PSIwcHgiIHZpZXdCb3g9IjAgMCA3NS41MiA2NC41MiIgc3R5bGU9ImVuYWJsZS1iYWNrZ3JvdW5kOm5ldyAwIDAgNzUuNTIgNjQuNTI7IiB4bWw6c3BhY2U9InByZXNlcnZlIj4mI3hhOzxmaWx0ZXIgaWQ9ImZpbHRlcl8yIj4mI3hhOwk8ZmVHYXVzc2lhbkJsdXIgaWQ9ImZlR2F1c3NpYW5CbHVyNDg4NDUiIHN0ZERldmlhdGlvbj0iMiIvPiYjeGE7PC9maWx0ZXI+JiN4YTs8c29kaXBvZGk6bmFtZWR2aWV3IGJvcmRlcmNvbG9yPSIjNjY2NjY2IiBib3JkZXJvcGFjaXR5PSIxIiBmaXQtbWFyZ2luLWJvdHRvbT0iMCIgZml0LW1hcmdpbi1sZWZ0PSIwIiBmaXQtbWFyZ2luLXJpZ2h0PSIwIiBmaXQtbWFyZ2luLXRvcD0iMCIgZ3JpZHRvbGVyYW5jZT0iMTAiIGd1aWRldG9sZXJhbmNlPSIxMCIgaWQ9Im5hbWVkdmlldzQ4ODk4IiBpbmtzY2FwZTpjdXJyZW50LWxheWVyPSJzdmc0ODg5NiIgaW5rc2NhcGU6Y3g9IjU3LjkzMjgyOCIgaW5rc2NhcGU6Y3k9IjUwLjYxMzU1MSIgaW5rc2NhcGU6cGFnZW9wYWNpdHk9IjAiIGlua3NjYXBlOnBhZ2VzaGFkb3c9IjIiIGlua3NjYXBlOndpbmRvdy1oZWlnaHQ9IjEwMTciIGlua3NjYXBlOndpbmRvdy1tYXhpbWl6ZWQ9IjEiIGlua3NjYXBlOndpbmRvdy13aWR0aD0iMTkyMCIgaW5rc2NhcGU6d2luZG93LXg9Ii04IiBpbmtzY2FwZTp3aW5kb3cteT0iLTgiIGlua3NjYXBlOnpvb209IjUuMTc2NDI5OSIgb2JqZWN0dG9sZXJhbmNlPSIxMCIgcGFnZWNvbG9yPSIjZmZmZmZmIiBzaG93Z3JpZD0iZmFsc2UiPiYjeGE7CTwvc29kaXBvZGk6bmFtZWR2aWV3PiYjeGE7PGcgaWQ9InNoYWRvdzQ0MDItMyIgdHJhbnNmb3JtPSJ0cmFuc2xhdGUoMC4zNDU1MTQ1NiwtMjIuMzIyMykiPiYjeGE7CTxnIGlkPSJwYXRoNDg4NTUiIGlua3NjYXBlOmNvbm5lY3Rvci1jdXJ2YXR1cmU9IjAiIHN0eWxlPSJmaWx0ZXI6dXJsKCNmaWx0ZXJfMik7Ij4mI3hhOwkJPHBhdGggc3R5bGU9Im9wYWNpdHk6MC4yMjtmaWxsOiM1QjlCRDU7IiBkPSJNMCw4NS44YzAsMS42NywxLjM2LDMuMDIsMy4wMiwzLjAySDcyLjVjMS42NiwwLDMuMDItMS4zNSwzLjAyLTMuMDJWMzguNTNIMFY4NS44eiIvPiYjeGE7CTwvZz4mI3hhOzwvZz4mI3hhOzxwYXRoIGlkPSJwYXRoNDg4NTgiIGlua3NjYXBlOmNvbm5lY3Rvci1jdXJ2YXR1cmU9IjAiIHN0eWxlPSJmaWxsOiM1OUI0RDk7IiBkPSJNMCw2MS41YzAsMS42NywxLjM2LDMuMDIsMy4wMiwzLjAySDcyLjUgIGMxLjY2LDAsMy4wMi0xLjM1LDMuMDItMy4wMlYxNC4yM0gwVjYxLjV6Ii8+JiN4YTs8ZyBpZD0ic2hhZG93NDQwMy04IiB0cmFuc2Zvcm09InRyYW5zbGF0ZSgyMS4wMzg2MTUsLTI2LjcwMjU4KSI+JiN4YTsJPGcgaWQ9InBhdGg0ODg2MyIgaW5rc2NhcGU6Y29ubmVjdG9yLWN1cnZhdHVyZT0iMCIgc3R5bGU9ImZpbHRlcjp1cmwoI2ZpbHRlcl8yKTsiPiYjeGE7CQk8cGF0aCBzdHlsZT0ib3BhY2l0eTowLjIyO2ZpbGw6IzVCOUJENTsiIGQ9Ik00NS43NywzNC40NWMwLTEuODEtMS4zNi0zLjE3LTMuMTgtMy4xN2MtMS44MSwwLTMuMTcsMS4zNi0zLjE3LDMuMTd2MzEuODdoLTYuMTkgICAgYy0wLjYtMy42My0yLjQyLTcuMS01LjE0LTkuOTdjLTMuNjItMy42Mi04LjMtNS41OS0xMy40NC01LjU5Yy00Ljk4LDAtOS44MiwxLjk3LTEzLjQ0LDUuNTlDMCw1Ny41NiwwLDU5LjUyLDEuMjEsNjAuODggICAgYzEuMjEsMS4yMSwzLjE3LDEuMjEsNC41MywwYzIuNDItMi40Miw1LjU5LTMuNjIsOC45MS0zLjYyczYuNSwxLjM2LDguOTEsMy42MmM0Ljk5LDQuOTksNC45OSwxMi45OSwwLDE3LjgyICAgIGMtMi40MSwyLjQyLTUuNTksMy42My04LjkxLDMuNjNzLTYuNDktMS4zNi04LjkxLTMuNjNjLTEuMjEtMS4yLTMuMTctMS4yLTQuNTMsMEMwLDc5LjkxLDAsODEuODgsMS4yMSw4My4yNCAgICBjMy42MiwzLjYyLDguMzEsNS41OCwxMy40NCw1LjU4YzQuOTksMCw5LjgyLTEuOTYsMTMuNDQtNS41OGMzLjAzLTMuMDIsNC42OS02LjY1LDUuMjktMTAuNThoOS4yMWMxLjgyLDAsMy4xOC0xLjM2LDMuMTgtMy4xNyAgICBWMzQuNDV6Ii8+JiN4YTsJPC9nPiYjeGE7PC9nPiYjeGE7PHBhdGggaWQ9InBhdGg0ODg2NiIgaW5rc2NhcGU6Y29ubmVjdG9yLWN1cnZhdHVyZT0iMCIgc3R5bGU9ImZpbGw6I0ZGRkZGRjsiIGQ9Ik02Ni40Niw1Ljc3YzAtMS44MS0xLjM2LTMuMTctMy4xOC0zLjE3ICBjLTEuODEsMC0zLjE3LDEuMzYtMy4xNywzLjE3djMxLjg3aC02LjE5Yy0wLjYtMy42My0yLjQyLTcuMS01LjE0LTkuOTdjLTMuNjItMy42Mi04LjMtNS41OS0xMy40NC01LjU5ICBjLTQuOTgsMC05LjgyLDEuOTctMTMuNDQsNS41OWMtMS4yMSwxLjIxLTEuMjEsMy4xNywwLDQuNTNjMS4yMSwxLjIxLDMuMTcsMS4yMSw0LjUzLDBjMi40Mi0yLjQyLDUuNTktMy42Miw4LjkxLTMuNjIgIHM2LjUsMS4zNiw4LjkxLDMuNjJjNC45OSw0Ljk5LDQuOTksMTIuOTksMCwxNy44MmMtMi40MSwyLjQyLTUuNTksMy42My04LjkxLDMuNjNzLTYuNDktMS4zNi04LjkxLTMuNjNjLTEuMjEtMS4yLTMuMTctMS4yLTQuNTMsMCAgYy0xLjIxLDEuMjEtMS4yMSwzLjE4LDAsNC41NGMzLjYyLDMuNjIsOC4zMSw1LjU4LDEzLjQ0LDUuNThjNC45OSwwLDkuODItMS45NiwxMy40NC01LjU4YzMuMDMtMy4wMiw0LjY5LTYuNjUsNS4yOS0xMC41OGg5LjIxICBjMS44MiwwLDMuMTgtMS4zNiwzLjE4LTMuMTdWNS43N3oiLz4mI3hhOzxnIGlkPSJzaGFkb3c0NDA0LTEzIiB0cmFuc2Zvcm09InRyYW5zbGF0ZSg5LjU1OTIxNDYsLTM4LjQ4NCkiPiYjeGE7CTxnIGlkPSJwYXRoNDg4NzEiIGlua3NjYXBlOmNvbm5lY3Rvci1jdXJ2YXR1cmU9IjAiIHN0eWxlPSJmaWx0ZXI6dXJsKCNmaWx0ZXJfMik7Ij4mI3hhOwkJPHBhdGggc3R5bGU9Im9wYWNpdHk6MC4yMjtmaWxsOiM1QjlCRDU7IiBkPSJNMjYuMTMsNzMuNzJjLTMuMDIsMC01LjU5LDEuODEtNi44LDQuMzhINi4xOVY0Ni4yM2MwLTEuODEtMS4zNi0zLjE3LTMuMTctMy4xNyAgICBDMS4zNiw0My4wNiwwLDQ0LjU3LDAsNDYuMjN2MzUuMDRjMCwxLjgyLDEuMzYsMy4xNywzLjE3LDMuMTdoMTYuMzFjMS4yMSwyLjU3LDMuNzgsNC4zOCw2LjgsNC4zOGM0LjIzLDAsNy41NS0zLjMyLDcuNTUtNy41NSAgICBDMzMuNjgsNzcuMDQsMzAuMjEsNzMuNzIsMjYuMTMsNzMuNzJ6Ii8+JiN4YTsJPC9nPiYjeGE7PC9nPiYjeGE7PHBhdGggaWQ9InBhdGg0ODg3NCIgaW5rc2NhcGU6Y29ubmVjdG9yLWN1cnZhdHVyZT0iMCIgc3R5bGU9ImZpbGw6I0ZGRkZGRjsiIGQ9Ik0zNS4zNCwzMy4yNmMtMy4wMiwwLTUuNTksMS44MS02LjgsNC4zOEgxNS40VjUuNzcgIGMwLTEuODEtMS4zNi0zLjE3LTMuMTctMy4xN2MtMS42NiwwLTMuMDIsMS41MS0zLjAyLDMuMTd2MzUuMDRjMCwxLjgyLDEuMzYsMy4xNywzLjE3LDMuMTdoMTYuMzFjMS4yMSwyLjU3LDMuNzgsNC4zOCw2LjgsNC4zOCAgYzQuMjMsMCw3LjU1LTMuMzIsNy41NS03LjU1QzQyLjg5LDM2LjU4LDM5LjQyLDMzLjI2LDM1LjM0LDMzLjI2eiIvPiYjeGE7PGcgaWQ9InNoYWRvdzQ0MDUtMTgiIHRyYW5zZm9ybT0idHJhbnNsYXRlKDAuMzQ1NTE0NTYsLTcyLjE2NjkpIj4mI3hhOwk8ZyBpZD0icGF0aDQ4ODc5IiBpbmtzY2FwZTpjb25uZWN0b3ItY3VydmF0dXJlPSIwIiBzdHlsZT0iZmlsdGVyOnVybCgjZmlsdGVyXzIpOyI+JiN4YTsJCTxwYXRoIHN0eWxlPSJvcGFjaXR5OjAuMjI7ZmlsbDojNUI5QkQ1OyIgZD0iTTcyLjUsNzQuMzJIMy4wMkMxLjM2LDc0LjMyLDAsNzUuNjgsMCw3Ny4zNXYxMS40N2g3NS41MlY3Ny4zNSAgICBDNzUuNTIsNzUuNjgsNzQuMTYsNzQuMzIsNzIuNSw3NC4zMnoiLz4mI3hhOwk8L2c+JiN4YTs8L2c+JiN4YTs8cGF0aCBpZD0icGF0aDQ4ODgyIiBpbmtzY2FwZTpjb25uZWN0b3ItY3VydmF0dXJlPSIwIiBzdHlsZT0iZmlsbDojQTBBMUEyOyIgZD0iTTcyLjUsMC4xOEgzLjAyQzEuMzYsMC4xOCwwLDEuNTQsMCwzLjIxdjExLjQ3ICBoNzUuNTJWMy4yMUM3NS41MiwxLjU0LDc0LjE2LDAuMTgsNzIuNSwwLjE4eiIvPiYjeGE7PGcgaWQ9InNoYWRvdzQ0MDYtMjMiIHRyYW5zZm9ybT0idHJhbnNsYXRlKDAuMzQ1NTE0NTYsLTIyLjMyMjMpIj4mI3hhOwk8ZyBpZD0icGF0aDQ4ODg3IiBpbmtzY2FwZTpjb25uZWN0b3ItY3VydmF0dXJlPSIwIiBzdHlsZT0iZmlsdGVyOnVybCgjZmlsdGVyXzIpOyI+JiN4YTsJCTxwYXRoIHN0eWxlPSJvcGFjaXR5OjAuMjI7ZmlsbDojNUI5QkQ1OyIgZD0iTTMuMDIsMjQuNDhDMS4zNiwyNC40OCwwLDI1Ljg0LDAsMjcuNXYxMS4wM3Y0Ljk4Vjg1LjhjMCwxLjY3LDEuMzYsMy4wMiwzLjAyLDMuMDIgICAgaDMuMzJsNTkuNTItNjQuMzRIMy4wMnoiLz4mI3hhOwk8L2c+JiN4YTs8L2c+JiN4YTs8cGF0aCBpZD0icGF0aDQ4ODkwIiBpbmtzY2FwZTpjb25uZWN0b3ItY3VydmF0dXJlPSIwIiBzdHlsZT0iZmlsbDojRkZGRkZGO2ZpbGwtb3BhY2l0eTowLjI7IiBkPSJNMy4wMiwwLjE4ICBDMS4zNiwwLjE4LDAsMS41NCwwLDMuMnYxMS4wM3Y0Ljk4VjYxLjVjMCwxLjY3LDEuMzYsMy4wMiwzLjAyLDMuMDJoMy4zMkw2NS44NiwwLjE4SDMuMDJ6Ii8+JiN4YTs8L3N2Zz4=;" parent="1" vertex="1">
          <mxGeometry x="1370" y="1025.61" width="92" height="78.68" as="geometry" />
        </mxCell>
        <mxCell id="0cbcKrgpYcrlJENanbfO-69" style="edgeStyle=orthogonalEdgeStyle;rounded=0;orthogonalLoop=1;jettySize=auto;html=1;entryX=0;entryY=0.5;entryDx=0;entryDy=0;" parent="1" source="0cbcKrgpYcrlJENanbfO-70" target="0cbcKrgpYcrlJENanbfO-73" edge="1">
          <mxGeometry relative="1" as="geometry" />
        </mxCell>
        <mxCell id="0cbcKrgpYcrlJENanbfO-70" value="" style="shape=image;verticalLabelPosition=bottom;labelBackgroundColor=#ffffff;verticalAlign=top;aspect=fixed;imageAspect=0;image=data:image/svg+xml,PHN2ZyB4bWxuczpjYz0iaHR0cDovL2NyZWF0aXZlY29tbW9ucy5vcmcvbnMjIiB4bWxuczpkYz0iaHR0cDovL3B1cmwub3JnL2RjL2VsZW1lbnRzLzEuMS8iIHhtbG5zOmlua3NjYXBlPSJodHRwOi8vd3d3Lmlua3NjYXBlLm9yZy9uYW1lc3BhY2VzL2lua3NjYXBlIiB4bWxuczpyZGY9Imh0dHA6Ly93d3cudzMub3JnLzE5OTkvMDIvMjItcmRmLXN5bnRheC1ucyMiIHhtbG5zOnNvZGlwb2RpPSJodHRwOi8vc29kaXBvZGkuc291cmNlZm9yZ2UubmV0L0RURC9zb2RpcG9kaS0wLmR0ZCIgeG1sbnM6c3ZnPSJodHRwOi8vd3d3LnczLm9yZy8yMDAwL3N2ZyIgeG1sbnM9Imh0dHA6Ly93d3cudzMub3JnLzIwMDAvc3ZnIiB4bWxuczp4bGluaz0iaHR0cDovL3d3dy53My5vcmcvMTk5OS94bGluayIgdmVyc2lvbj0iMS4xIiBpZD0ic3ZnMjMxMzAiIHg9IjBweCIgeT0iMHB4IiB2aWV3Qm94PSIwIDAgNDIgMzAiIHN0eWxlPSJlbmFibGUtYmFja2dyb3VuZDpuZXcgMCAwIDQyIDMwOyIgeG1sOnNwYWNlPSJwcmVzZXJ2ZSI+JiN4YTs8c29kaXBvZGk6bmFtZWR2aWV3IGJvcmRlcmNvbG9yPSIjNjY2NjY2IiBib3JkZXJvcGFjaXR5PSIxIiBmaXQtbWFyZ2luLWJvdHRvbT0iMCIgZml0LW1hcmdpbi1sZWZ0PSIwIiBmaXQtbWFyZ2luLXJpZ2h0PSIwIiBmaXQtbWFyZ2luLXRvcD0iMCIgZ3JpZHRvbGVyYW5jZT0iMTAiIGd1aWRldG9sZXJhbmNlPSIxMCIgaWQ9Im5hbWVkdmlldzIzMTMyIiBpbmtzY2FwZTpjdXJyZW50LWxheWVyPSJzdmcyMzEzMCIgaW5rc2NhcGU6Y3g9IjI2LjEzMzkyNSIgaW5rc2NhcGU6Y3k9IjE1Ljc4MzM2NSIgaW5rc2NhcGU6cGFnZW9wYWNpdHk9IjAiIGlua3NjYXBlOnBhZ2VzaGFkb3c9IjIiIGlua3NjYXBlOndpbmRvdy1oZWlnaHQ9IjEwMTciIGlua3NjYXBlOndpbmRvdy1tYXhpbWl6ZWQ9IjEiIGlua3NjYXBlOndpbmRvdy13aWR0aD0iMTkyMCIgaW5rc2NhcGU6d2luZG93LXg9Ii04IiBpbmtzY2FwZTp3aW5kb3cteT0iLTgiIGlua3NjYXBlOnpvb209IjE0LjU5NjcwNCIgb2JqZWN0dG9sZXJhbmNlPSIxMCIgcGFnZWNvbG9yPSIjZmZmZmZmIiBzaG93Z3JpZD0iZmFsc2UiPiYjeGE7CTwvc29kaXBvZGk6bmFtZWR2aWV3PiYjeGE7PGcgaWQ9ImcyMzEyOCIgdHJhbnNmb3JtPSJ0cmFuc2xhdGUoLTAuNzQ5OTkyMDMsLTAuNzQ5OTkyMDMpIj4mI3hhOwk8dGl0bGUgaWQ9InRpdGxlMjMwOTUiPlBhZ2UtMTwvdGl0bGU+JiN4YTsJPGcgaWQ9Imdyb3VwMTgxOS0xIiB0cmFuc2Zvcm09InRyYW5zbGF0ZSgxLjUsLTEuNSkiPiYjeGE7CQk8dGl0bGUgaWQ9InRpdGxlMjMwOTciPkFwcGxpY2F0aW9uICMxPC90aXRsZT4mI3hhOwkJPGcgaWQ9InNoYXBlMTgyMC0yIj4mI3hhOwkJCTx0aXRsZSBpZD0idGl0bGUyMzA5OSI+cmVjdDM3OTguMjc1OTE8L3RpdGxlPiYjeGE7CQkJJiN4YTsJCQkJPHBhdGggaWQ9InBhdGgyMzEwMSIgaW5rc2NhcGU6Y29ubmVjdG9yLWN1cnZhdHVyZT0iMCIgc3R5bGU9ImZpbGwtcnVsZTpldmVub2RkO2NsaXAtcnVsZTpldmVub2RkO2ZpbGw6I0ZGRkZGRjtzdHJva2U6IzU1NkE4QTtzdHJva2Utd2lkdGg6MS41O3N0cm9rZS1taXRlcmxpbWl0OjM7IiBkPSIgICAgIE0wLDI5Ljk1YzAsMC44NSwwLjY5LDEuNTUsMS41NCwxLjU1aDM3LjQxYzAuODUsMCwxLjU1LTAuNjksMS41NS0xLjU0YzAsMCwwLTAuMDEsMC0wLjAxVjQuNTRDNDAuNSwzLjY5LDM5LjgsMywzOC45NSwzSDEuNTQgICAgIEMwLjY5LDMsMCwzLjY5LDAsNC41NFYyOS45NXoiLz4mI3hhOwkJPC9nPiYjeGE7CQk8ZyBpZD0iZ3JvdXAxODIxLTQiIHRyYW5zZm9ybT0idHJhbnNsYXRlKDExLjI1LC02KSI+JiN4YTsJCQk8dGl0bGUgaWQ9InRpdGxlMjMxMDQiPmczODA4LjI3NTkyPC90aXRsZT4mI3hhOwkJCTxnIGlkPSJzaGFwZTE4MjItNSIgdHJhbnNmb3JtPSJ0cmFuc2xhdGUoMC42OTc1LC04Ljk5MjUpIj4mI3hhOwkJCQk8dGl0bGUgaWQ9InRpdGxlMjMxMDYiPnBvbHlnb24zODAyPC90aXRsZT4mI3hhOwkJCQk8cGF0aCBpZD0icGF0aDIzMTA4IiBpbmtzY2FwZTpjb25uZWN0b3ItY3VydmF0dXJlPSIwIiBzdHlsZT0iZmlsbC1ydWxlOmV2ZW5vZGQ7Y2xpcC1ydWxlOmV2ZW5vZGQ7ZmlsbDojMkJDN0Y0OyIgZD0iICAgICAgTTYuOCwyNC4zNkwwLDI3LjgxbDYuOCwzLjY5bDYuNzUtMy43Nkw2LjgsMjQuMzZ6Ii8+JiN4YTsJCQk8L2c+JiN4YTsJCQk8ZyBpZD0ic2hhcGUxODIzLTciPiYjeGE7CQkJCTx0aXRsZSBpZD0idGl0bGUyMzExMSI+cG9seWdvbjM4MDQ8L3RpdGxlPiYjeGE7CQkJCTxwYXRoIGlkPSJwYXRoMjMxMTMiIGlua3NjYXBlOmNvbm5lY3Rvci1jdXJ2YXR1cmU9IjAiIHN0eWxlPSJmaWxsLXJ1bGU6ZXZlbm9kZDtjbGlwLXJ1bGU6ZXZlbm9kZDtmaWxsOiMyQkM3RjQ7IiBkPSJNMCwyNy42NCAgICAgIGw2Ljc1LDMuODZ2LTguMjdMMCwxOS41NlYyNy42NHoiLz4mI3hhOwkJCTwvZz4mI3hhOwkJCTxnIGlkPSJzaGFwZTE4MjQtOSIgdHJhbnNmb3JtPSJ0cmFuc2xhdGUoOC4yNSkiPiYjeGE7CQkJCTx0aXRsZSBpZD0idGl0bGUyMzExNiI+cG9seWdvbjM4MDY8L3RpdGxlPiYjeGE7CQkJCTxwYXRoIGlkPSJwYXRoMjMxMTgiIGlua3NjYXBlOmNvbm5lY3Rvci1jdXJ2YXR1cmU9IjAiIHN0eWxlPSJmaWxsLXJ1bGU6ZXZlbm9kZDtjbGlwLXJ1bGU6ZXZlbm9kZDtmaWxsOiMyQkM3RjQ7IiBkPSIgICAgICBNNi43NSwyNy42NEwwLDMxLjV2LTguMjdsNi43NS0zLjY3VjI3LjY0eiIvPiYjeGE7CQkJPC9nPiYjeGE7CQk8L2c+JiN4YTsJCTxnIGlkPSJzaGFwZTE4MjUtMTEiIHRyYW5zZm9ybT0idHJhbnNsYXRlKDM2Ljc1LC0xMS4yNSkiPiYjeGE7CQkJPHRpdGxlIGlkPSJ0aXRsZTIzMTIyIj5yZWN0Mzg0Ni4yNzYwODwvdGl0bGU+JiN4YTsJCQk8cGF0aCBpZD0icGF0aDIzMTI0IiBpbmtzY2FwZTpjb25uZWN0b3ItY3VydmF0dXJlPSIwIiBzdHlsZT0iZmlsbC1ydWxlOmV2ZW5vZGQ7Y2xpcC1ydWxlOmV2ZW5vZGQ7ZmlsbDojOURBOEI3OyIgZD0iTTAsMzAuNzUgICAgIGMwLDAuNDEsMC4zNCwwLjc1LDAuNzUsMC43NWMwLjQxLDAsMC43NS0wLjM0LDAuNzUtMC43NXYtNC41YzAtMC40MS0wLjM0LTAuNzUtMC43NS0wLjc1QzAuMzQsMjUuNSwwLDI1Ljg0LDAsMjYuMjVWMzAuNzV6Ii8+JiN4YTsJCTwvZz4mI3hhOwk8L2c+JiN4YTs8L2c+JiN4YTs8L3N2Zz4=;" parent="1" vertex="1">
          <mxGeometry x="70" y="954.29" width="120" height="85.71" as="geometry" />
        </mxCell>
        <mxCell id="0cbcKrgpYcrlJENanbfO-71" value="VISOR" style="text;html=1;strokeColor=none;fillColor=none;align=center;verticalAlign=middle;whiteSpace=wrap;rounded=0;" parent="1" vertex="1">
          <mxGeometry x="70" y="1040" width="120" height="40" as="geometry" />
        </mxCell>
        <mxCell id="0cbcKrgpYcrlJENanbfO-72" style="edgeStyle=orthogonalEdgeStyle;rounded=0;orthogonalLoop=1;jettySize=auto;html=1;entryX=0.478;entryY=0.127;entryDx=0;entryDy=0;entryPerimeter=0;" parent="1" source="0cbcKrgpYcrlJENanbfO-73" target="0cbcKrgpYcrlJENanbfO-75" edge="1">
          <mxGeometry relative="1" as="geometry" />
        </mxCell>
        <mxCell id="0cbcKrgpYcrlJENanbfO-73" value="channel-report" style="shape=image;verticalLabelPosition=bottom;labelBackgroundColor=#ffffff;verticalAlign=top;aspect=fixed;imageAspect=0;image=data:image/svg+xml,PHN2ZyB4bWxuczpjYz0iaHR0cDovL2NyZWF0aXZlY29tbW9ucy5vcmcvbnMjIiB4bWxuczpkYz0iaHR0cDovL3B1cmwub3JnL2RjL2VsZW1lbnRzLzEuMS8iIHhtbG5zOmlua3NjYXBlPSJodHRwOi8vd3d3Lmlua3NjYXBlLm9yZy9uYW1lc3BhY2VzL2lua3NjYXBlIiB4bWxuczpyZGY9Imh0dHA6Ly93d3cudzMub3JnLzE5OTkvMDIvMjItcmRmLXN5bnRheC1ucyMiIHhtbG5zOnNvZGlwb2RpPSJodHRwOi8vc29kaXBvZGkuc291cmNlZm9yZ2UubmV0L0RURC9zb2RpcG9kaS0wLmR0ZCIgeG1sbnM6c3ZnPSJodHRwOi8vd3d3LnczLm9yZy8yMDAwL3N2ZyIgeG1sbnM9Imh0dHA6Ly93d3cudzMub3JnLzIwMDAvc3ZnIiB4bWxuczp4bGluaz0iaHR0cDovL3d3dy53My5vcmcvMTk5OS94bGluayIgdmVyc2lvbj0iMS4xIiBpZD0ic3ZnNDg4OTYiIGlua3NjYXBlOnZlcnNpb249IjAuOTIuMyAoMjQwNTU0NiwgMjAxOC0wMy0xMSkiIHNvZGlwb2RpOmRvY25hbWU9ImFwaV9hcHBzLnN2ZyIgeD0iMHB4IiB5PSIwcHgiIHZpZXdCb3g9IjAgMCA3NS41MiA2NC41MiIgc3R5bGU9ImVuYWJsZS1iYWNrZ3JvdW5kOm5ldyAwIDAgNzUuNTIgNjQuNTI7IiB4bWw6c3BhY2U9InByZXNlcnZlIj4mI3hhOzxmaWx0ZXIgaWQ9ImZpbHRlcl8yIj4mI3hhOwk8ZmVHYXVzc2lhbkJsdXIgaWQ9ImZlR2F1c3NpYW5CbHVyNDg4NDUiIHN0ZERldmlhdGlvbj0iMiIvPiYjeGE7PC9maWx0ZXI+JiN4YTs8c29kaXBvZGk6bmFtZWR2aWV3IGJvcmRlcmNvbG9yPSIjNjY2NjY2IiBib3JkZXJvcGFjaXR5PSIxIiBmaXQtbWFyZ2luLWJvdHRvbT0iMCIgZml0LW1hcmdpbi1sZWZ0PSIwIiBmaXQtbWFyZ2luLXJpZ2h0PSIwIiBmaXQtbWFyZ2luLXRvcD0iMCIgZ3JpZHRvbGVyYW5jZT0iMTAiIGd1aWRldG9sZXJhbmNlPSIxMCIgaWQ9Im5hbWVkdmlldzQ4ODk4IiBpbmtzY2FwZTpjdXJyZW50LWxheWVyPSJzdmc0ODg5NiIgaW5rc2NhcGU6Y3g9IjU3LjkzMjgyOCIgaW5rc2NhcGU6Y3k9IjUwLjYxMzU1MSIgaW5rc2NhcGU6cGFnZW9wYWNpdHk9IjAiIGlua3NjYXBlOnBhZ2VzaGFkb3c9IjIiIGlua3NjYXBlOndpbmRvdy1oZWlnaHQ9IjEwMTciIGlua3NjYXBlOndpbmRvdy1tYXhpbWl6ZWQ9IjEiIGlua3NjYXBlOndpbmRvdy13aWR0aD0iMTkyMCIgaW5rc2NhcGU6d2luZG93LXg9Ii04IiBpbmtzY2FwZTp3aW5kb3cteT0iLTgiIGlua3NjYXBlOnpvb209IjUuMTc2NDI5OSIgb2JqZWN0dG9sZXJhbmNlPSIxMCIgcGFnZWNvbG9yPSIjZmZmZmZmIiBzaG93Z3JpZD0iZmFsc2UiPiYjeGE7CTwvc29kaXBvZGk6bmFtZWR2aWV3PiYjeGE7PGcgaWQ9InNoYWRvdzQ0MDItMyIgdHJhbnNmb3JtPSJ0cmFuc2xhdGUoMC4zNDU1MTQ1NiwtMjIuMzIyMykiPiYjeGE7CTxnIGlkPSJwYXRoNDg4NTUiIGlua3NjYXBlOmNvbm5lY3Rvci1jdXJ2YXR1cmU9IjAiIHN0eWxlPSJmaWx0ZXI6dXJsKCNmaWx0ZXJfMik7Ij4mI3hhOwkJPHBhdGggc3R5bGU9Im9wYWNpdHk6MC4yMjtmaWxsOiM1QjlCRDU7IiBkPSJNMCw4NS44YzAsMS42NywxLjM2LDMuMDIsMy4wMiwzLjAySDcyLjVjMS42NiwwLDMuMDItMS4zNSwzLjAyLTMuMDJWMzguNTNIMFY4NS44eiIvPiYjeGE7CTwvZz4mI3hhOzwvZz4mI3hhOzxwYXRoIGlkPSJwYXRoNDg4NTgiIGlua3NjYXBlOmNvbm5lY3Rvci1jdXJ2YXR1cmU9IjAiIHN0eWxlPSJmaWxsOiM1OUI0RDk7IiBkPSJNMCw2MS41YzAsMS42NywxLjM2LDMuMDIsMy4wMiwzLjAySDcyLjUgIGMxLjY2LDAsMy4wMi0xLjM1LDMuMDItMy4wMlYxNC4yM0gwVjYxLjV6Ii8+JiN4YTs8ZyBpZD0ic2hhZG93NDQwMy04IiB0cmFuc2Zvcm09InRyYW5zbGF0ZSgyMS4wMzg2MTUsLTI2LjcwMjU4KSI+JiN4YTsJPGcgaWQ9InBhdGg0ODg2MyIgaW5rc2NhcGU6Y29ubmVjdG9yLWN1cnZhdHVyZT0iMCIgc3R5bGU9ImZpbHRlcjp1cmwoI2ZpbHRlcl8yKTsiPiYjeGE7CQk8cGF0aCBzdHlsZT0ib3BhY2l0eTowLjIyO2ZpbGw6IzVCOUJENTsiIGQ9Ik00NS43NywzNC40NWMwLTEuODEtMS4zNi0zLjE3LTMuMTgtMy4xN2MtMS44MSwwLTMuMTcsMS4zNi0zLjE3LDMuMTd2MzEuODdoLTYuMTkgICAgYy0wLjYtMy42My0yLjQyLTcuMS01LjE0LTkuOTdjLTMuNjItMy42Mi04LjMtNS41OS0xMy40NC01LjU5Yy00Ljk4LDAtOS44MiwxLjk3LTEzLjQ0LDUuNTlDMCw1Ny41NiwwLDU5LjUyLDEuMjEsNjAuODggICAgYzEuMjEsMS4yMSwzLjE3LDEuMjEsNC41MywwYzIuNDItMi40Miw1LjU5LTMuNjIsOC45MS0zLjYyczYuNSwxLjM2LDguOTEsMy42MmM0Ljk5LDQuOTksNC45OSwxMi45OSwwLDE3LjgyICAgIGMtMi40MSwyLjQyLTUuNTksMy42My04LjkxLDMuNjNzLTYuNDktMS4zNi04LjkxLTMuNjNjLTEuMjEtMS4yLTMuMTctMS4yLTQuNTMsMEMwLDc5LjkxLDAsODEuODgsMS4yMSw4My4yNCAgICBjMy42MiwzLjYyLDguMzEsNS41OCwxMy40NCw1LjU4YzQuOTksMCw5LjgyLTEuOTYsMTMuNDQtNS41OGMzLjAzLTMuMDIsNC42OS02LjY1LDUuMjktMTAuNThoOS4yMWMxLjgyLDAsMy4xOC0xLjM2LDMuMTgtMy4xNyAgICBWMzQuNDV6Ii8+JiN4YTsJPC9nPiYjeGE7PC9nPiYjeGE7PHBhdGggaWQ9InBhdGg0ODg2NiIgaW5rc2NhcGU6Y29ubmVjdG9yLWN1cnZhdHVyZT0iMCIgc3R5bGU9ImZpbGw6I0ZGRkZGRjsiIGQ9Ik02Ni40Niw1Ljc3YzAtMS44MS0xLjM2LTMuMTctMy4xOC0zLjE3ICBjLTEuODEsMC0zLjE3LDEuMzYtMy4xNywzLjE3djMxLjg3aC02LjE5Yy0wLjYtMy42My0yLjQyLTcuMS01LjE0LTkuOTdjLTMuNjItMy42Mi04LjMtNS41OS0xMy40NC01LjU5ICBjLTQuOTgsMC05LjgyLDEuOTctMTMuNDQsNS41OWMtMS4yMSwxLjIxLTEuMjEsMy4xNywwLDQuNTNjMS4yMSwxLjIxLDMuMTcsMS4yMSw0LjUzLDBjMi40Mi0yLjQyLDUuNTktMy42Miw4LjkxLTMuNjIgIHM2LjUsMS4zNiw4LjkxLDMuNjJjNC45OSw0Ljk5LDQuOTksMTIuOTksMCwxNy44MmMtMi40MSwyLjQyLTUuNTksMy42My04LjkxLDMuNjNzLTYuNDktMS4zNi04LjkxLTMuNjNjLTEuMjEtMS4yLTMuMTctMS4yLTQuNTMsMCAgYy0xLjIxLDEuMjEtMS4yMSwzLjE4LDAsNC41NGMzLjYyLDMuNjIsOC4zMSw1LjU4LDEzLjQ0LDUuNThjNC45OSwwLDkuODItMS45NiwxMy40NC01LjU4YzMuMDMtMy4wMiw0LjY5LTYuNjUsNS4yOS0xMC41OGg5LjIxICBjMS44MiwwLDMuMTgtMS4zNiwzLjE4LTMuMTdWNS43N3oiLz4mI3hhOzxnIGlkPSJzaGFkb3c0NDA0LTEzIiB0cmFuc2Zvcm09InRyYW5zbGF0ZSg5LjU1OTIxNDYsLTM4LjQ4NCkiPiYjeGE7CTxnIGlkPSJwYXRoNDg4NzEiIGlua3NjYXBlOmNvbm5lY3Rvci1jdXJ2YXR1cmU9IjAiIHN0eWxlPSJmaWx0ZXI6dXJsKCNmaWx0ZXJfMik7Ij4mI3hhOwkJPHBhdGggc3R5bGU9Im9wYWNpdHk6MC4yMjtmaWxsOiM1QjlCRDU7IiBkPSJNMjYuMTMsNzMuNzJjLTMuMDIsMC01LjU5LDEuODEtNi44LDQuMzhINi4xOVY0Ni4yM2MwLTEuODEtMS4zNi0zLjE3LTMuMTctMy4xNyAgICBDMS4zNiw0My4wNiwwLDQ0LjU3LDAsNDYuMjN2MzUuMDRjMCwxLjgyLDEuMzYsMy4xNywzLjE3LDMuMTdoMTYuMzFjMS4yMSwyLjU3LDMuNzgsNC4zOCw2LjgsNC4zOGM0LjIzLDAsNy41NS0zLjMyLDcuNTUtNy41NSAgICBDMzMuNjgsNzcuMDQsMzAuMjEsNzMuNzIsMjYuMTMsNzMuNzJ6Ii8+JiN4YTsJPC9nPiYjeGE7PC9nPiYjeGE7PHBhdGggaWQ9InBhdGg0ODg3NCIgaW5rc2NhcGU6Y29ubmVjdG9yLWN1cnZhdHVyZT0iMCIgc3R5bGU9ImZpbGw6I0ZGRkZGRjsiIGQ9Ik0zNS4zNCwzMy4yNmMtMy4wMiwwLTUuNTksMS44MS02LjgsNC4zOEgxNS40VjUuNzcgIGMwLTEuODEtMS4zNi0zLjE3LTMuMTctMy4xN2MtMS42NiwwLTMuMDIsMS41MS0zLjAyLDMuMTd2MzUuMDRjMCwxLjgyLDEuMzYsMy4xNywzLjE3LDMuMTdoMTYuMzFjMS4yMSwyLjU3LDMuNzgsNC4zOCw2LjgsNC4zOCAgYzQuMjMsMCw3LjU1LTMuMzIsNy41NS03LjU1QzQyLjg5LDM2LjU4LDM5LjQyLDMzLjI2LDM1LjM0LDMzLjI2eiIvPiYjeGE7PGcgaWQ9InNoYWRvdzQ0MDUtMTgiIHRyYW5zZm9ybT0idHJhbnNsYXRlKDAuMzQ1NTE0NTYsLTcyLjE2NjkpIj4mI3hhOwk8ZyBpZD0icGF0aDQ4ODc5IiBpbmtzY2FwZTpjb25uZWN0b3ItY3VydmF0dXJlPSIwIiBzdHlsZT0iZmlsdGVyOnVybCgjZmlsdGVyXzIpOyI+JiN4YTsJCTxwYXRoIHN0eWxlPSJvcGFjaXR5OjAuMjI7ZmlsbDojNUI5QkQ1OyIgZD0iTTcyLjUsNzQuMzJIMy4wMkMxLjM2LDc0LjMyLDAsNzUuNjgsMCw3Ny4zNXYxMS40N2g3NS41MlY3Ny4zNSAgICBDNzUuNTIsNzUuNjgsNzQuMTYsNzQuMzIsNzIuNSw3NC4zMnoiLz4mI3hhOwk8L2c+JiN4YTs8L2c+JiN4YTs8cGF0aCBpZD0icGF0aDQ4ODgyIiBpbmtzY2FwZTpjb25uZWN0b3ItY3VydmF0dXJlPSIwIiBzdHlsZT0iZmlsbDojQTBBMUEyOyIgZD0iTTcyLjUsMC4xOEgzLjAyQzEuMzYsMC4xOCwwLDEuNTQsMCwzLjIxdjExLjQ3ICBoNzUuNTJWMy4yMUM3NS41MiwxLjU0LDc0LjE2LDAuMTgsNzIuNSwwLjE4eiIvPiYjeGE7PGcgaWQ9InNoYWRvdzQ0MDYtMjMiIHRyYW5zZm9ybT0idHJhbnNsYXRlKDAuMzQ1NTE0NTYsLTIyLjMyMjMpIj4mI3hhOwk8ZyBpZD0icGF0aDQ4ODg3IiBpbmtzY2FwZTpjb25uZWN0b3ItY3VydmF0dXJlPSIwIiBzdHlsZT0iZmlsdGVyOnVybCgjZmlsdGVyXzIpOyI+JiN4YTsJCTxwYXRoIHN0eWxlPSJvcGFjaXR5OjAuMjI7ZmlsbDojNUI5QkQ1OyIgZD0iTTMuMDIsMjQuNDhDMS4zNiwyNC40OCwwLDI1Ljg0LDAsMjcuNXYxMS4wM3Y0Ljk4Vjg1LjhjMCwxLjY3LDEuMzYsMy4wMiwzLjAyLDMuMDIgICAgaDMuMzJsNTkuNTItNjQuMzRIMy4wMnoiLz4mI3hhOwk8L2c+JiN4YTs8L2c+JiN4YTs8cGF0aCBpZD0icGF0aDQ4ODkwIiBpbmtzY2FwZTpjb25uZWN0b3ItY3VydmF0dXJlPSIwIiBzdHlsZT0iZmlsbDojRkZGRkZGO2ZpbGwtb3BhY2l0eTowLjI7IiBkPSJNMy4wMiwwLjE4ICBDMS4zNiwwLjE4LDAsMS41NCwwLDMuMnYxMS4wM3Y0Ljk4VjYxLjVjMCwxLjY3LDEuMzYsMy4wMiwzLjAyLDMuMDJoMy4zMkw2NS44NiwwLjE4SDMuMDJ6Ii8+JiN4YTs8L3N2Zz4=;" parent="1" vertex="1">
          <mxGeometry x="344" y="957.81" width="92" height="78.68" as="geometry" />
        </mxCell>
        <mxCell id="0cbcKrgpYcrlJENanbfO-74" style="edgeStyle=orthogonalEdgeStyle;rounded=0;orthogonalLoop=1;jettySize=auto;html=1;entryX=-0.008;entryY=0.447;entryDx=0;entryDy=0;entryPerimeter=0;" parent="1" source="0cbcKrgpYcrlJENanbfO-75" target="0cbcKrgpYcrlJENanbfO-76" edge="1">
          <mxGeometry relative="1" as="geometry" />
        </mxCell>
        <mxCell id="0cbcKrgpYcrlJENanbfO-75" value="bussines-report" style="shape=image;verticalLabelPosition=bottom;labelBackgroundColor=#ffffff;verticalAlign=top;aspect=fixed;imageAspect=0;image=data:image/svg+xml,PHN2ZyB4bWxuczpjYz0iaHR0cDovL2NyZWF0aXZlY29tbW9ucy5vcmcvbnMjIiB4bWxuczpkYz0iaHR0cDovL3B1cmwub3JnL2RjL2VsZW1lbnRzLzEuMS8iIHhtbG5zOmlua3NjYXBlPSJodHRwOi8vd3d3Lmlua3NjYXBlLm9yZy9uYW1lc3BhY2VzL2lua3NjYXBlIiB4bWxuczpyZGY9Imh0dHA6Ly93d3cudzMub3JnLzE5OTkvMDIvMjItcmRmLXN5bnRheC1ucyMiIHhtbG5zOnNvZGlwb2RpPSJodHRwOi8vc29kaXBvZGkuc291cmNlZm9yZ2UubmV0L0RURC9zb2RpcG9kaS0wLmR0ZCIgeG1sbnM6c3ZnPSJodHRwOi8vd3d3LnczLm9yZy8yMDAwL3N2ZyIgeG1sbnM9Imh0dHA6Ly93d3cudzMub3JnLzIwMDAvc3ZnIiB4bWxuczp4bGluaz0iaHR0cDovL3d3dy53My5vcmcvMTk5OS94bGluayIgdmVyc2lvbj0iMS4xIiBpZD0ic3ZnNDg4OTYiIGlua3NjYXBlOnZlcnNpb249IjAuOTIuMyAoMjQwNTU0NiwgMjAxOC0wMy0xMSkiIHNvZGlwb2RpOmRvY25hbWU9ImFwaV9hcHBzLnN2ZyIgeD0iMHB4IiB5PSIwcHgiIHZpZXdCb3g9IjAgMCA3NS41MiA2NC41MiIgc3R5bGU9ImVuYWJsZS1iYWNrZ3JvdW5kOm5ldyAwIDAgNzUuNTIgNjQuNTI7IiB4bWw6c3BhY2U9InByZXNlcnZlIj4mI3hhOzxmaWx0ZXIgaWQ9ImZpbHRlcl8yIj4mI3hhOwk8ZmVHYXVzc2lhbkJsdXIgaWQ9ImZlR2F1c3NpYW5CbHVyNDg4NDUiIHN0ZERldmlhdGlvbj0iMiIvPiYjeGE7PC9maWx0ZXI+JiN4YTs8c29kaXBvZGk6bmFtZWR2aWV3IGJvcmRlcmNvbG9yPSIjNjY2NjY2IiBib3JkZXJvcGFjaXR5PSIxIiBmaXQtbWFyZ2luLWJvdHRvbT0iMCIgZml0LW1hcmdpbi1sZWZ0PSIwIiBmaXQtbWFyZ2luLXJpZ2h0PSIwIiBmaXQtbWFyZ2luLXRvcD0iMCIgZ3JpZHRvbGVyYW5jZT0iMTAiIGd1aWRldG9sZXJhbmNlPSIxMCIgaWQ9Im5hbWVkdmlldzQ4ODk4IiBpbmtzY2FwZTpjdXJyZW50LWxheWVyPSJzdmc0ODg5NiIgaW5rc2NhcGU6Y3g9IjU3LjkzMjgyOCIgaW5rc2NhcGU6Y3k9IjUwLjYxMzU1MSIgaW5rc2NhcGU6cGFnZW9wYWNpdHk9IjAiIGlua3NjYXBlOnBhZ2VzaGFkb3c9IjIiIGlua3NjYXBlOndpbmRvdy1oZWlnaHQ9IjEwMTciIGlua3NjYXBlOndpbmRvdy1tYXhpbWl6ZWQ9IjEiIGlua3NjYXBlOndpbmRvdy13aWR0aD0iMTkyMCIgaW5rc2NhcGU6d2luZG93LXg9Ii04IiBpbmtzY2FwZTp3aW5kb3cteT0iLTgiIGlua3NjYXBlOnpvb209IjUuMTc2NDI5OSIgb2JqZWN0dG9sZXJhbmNlPSIxMCIgcGFnZWNvbG9yPSIjZmZmZmZmIiBzaG93Z3JpZD0iZmFsc2UiPiYjeGE7CTwvc29kaXBvZGk6bmFtZWR2aWV3PiYjeGE7PGcgaWQ9InNoYWRvdzQ0MDItMyIgdHJhbnNmb3JtPSJ0cmFuc2xhdGUoMC4zNDU1MTQ1NiwtMjIuMzIyMykiPiYjeGE7CTxnIGlkPSJwYXRoNDg4NTUiIGlua3NjYXBlOmNvbm5lY3Rvci1jdXJ2YXR1cmU9IjAiIHN0eWxlPSJmaWx0ZXI6dXJsKCNmaWx0ZXJfMik7Ij4mI3hhOwkJPHBhdGggc3R5bGU9Im9wYWNpdHk6MC4yMjtmaWxsOiM1QjlCRDU7IiBkPSJNMCw4NS44YzAsMS42NywxLjM2LDMuMDIsMy4wMiwzLjAySDcyLjVjMS42NiwwLDMuMDItMS4zNSwzLjAyLTMuMDJWMzguNTNIMFY4NS44eiIvPiYjeGE7CTwvZz4mI3hhOzwvZz4mI3hhOzxwYXRoIGlkPSJwYXRoNDg4NTgiIGlua3NjYXBlOmNvbm5lY3Rvci1jdXJ2YXR1cmU9IjAiIHN0eWxlPSJmaWxsOiM1OUI0RDk7IiBkPSJNMCw2MS41YzAsMS42NywxLjM2LDMuMDIsMy4wMiwzLjAySDcyLjUgIGMxLjY2LDAsMy4wMi0xLjM1LDMuMDItMy4wMlYxNC4yM0gwVjYxLjV6Ii8+JiN4YTs8ZyBpZD0ic2hhZG93NDQwMy04IiB0cmFuc2Zvcm09InRyYW5zbGF0ZSgyMS4wMzg2MTUsLTI2LjcwMjU4KSI+JiN4YTsJPGcgaWQ9InBhdGg0ODg2MyIgaW5rc2NhcGU6Y29ubmVjdG9yLWN1cnZhdHVyZT0iMCIgc3R5bGU9ImZpbHRlcjp1cmwoI2ZpbHRlcl8yKTsiPiYjeGE7CQk8cGF0aCBzdHlsZT0ib3BhY2l0eTowLjIyO2ZpbGw6IzVCOUJENTsiIGQ9Ik00NS43NywzNC40NWMwLTEuODEtMS4zNi0zLjE3LTMuMTgtMy4xN2MtMS44MSwwLTMuMTcsMS4zNi0zLjE3LDMuMTd2MzEuODdoLTYuMTkgICAgYy0wLjYtMy42My0yLjQyLTcuMS01LjE0LTkuOTdjLTMuNjItMy42Mi04LjMtNS41OS0xMy40NC01LjU5Yy00Ljk4LDAtOS44MiwxLjk3LTEzLjQ0LDUuNTlDMCw1Ny41NiwwLDU5LjUyLDEuMjEsNjAuODggICAgYzEuMjEsMS4yMSwzLjE3LDEuMjEsNC41MywwYzIuNDItMi40Miw1LjU5LTMuNjIsOC45MS0zLjYyczYuNSwxLjM2LDguOTEsMy42MmM0Ljk5LDQuOTksNC45OSwxMi45OSwwLDE3LjgyICAgIGMtMi40MSwyLjQyLTUuNTksMy42My04LjkxLDMuNjNzLTYuNDktMS4zNi04LjkxLTMuNjNjLTEuMjEtMS4yLTMuMTctMS4yLTQuNTMsMEMwLDc5LjkxLDAsODEuODgsMS4yMSw4My4yNCAgICBjMy42MiwzLjYyLDguMzEsNS41OCwxMy40NCw1LjU4YzQuOTksMCw5LjgyLTEuOTYsMTMuNDQtNS41OGMzLjAzLTMuMDIsNC42OS02LjY1LDUuMjktMTAuNThoOS4yMWMxLjgyLDAsMy4xOC0xLjM2LDMuMTgtMy4xNyAgICBWMzQuNDV6Ii8+JiN4YTsJPC9nPiYjeGE7PC9nPiYjeGE7PHBhdGggaWQ9InBhdGg0ODg2NiIgaW5rc2NhcGU6Y29ubmVjdG9yLWN1cnZhdHVyZT0iMCIgc3R5bGU9ImZpbGw6I0ZGRkZGRjsiIGQ9Ik02Ni40Niw1Ljc3YzAtMS44MS0xLjM2LTMuMTctMy4xOC0zLjE3ICBjLTEuODEsMC0zLjE3LDEuMzYtMy4xNywzLjE3djMxLjg3aC02LjE5Yy0wLjYtMy42My0yLjQyLTcuMS01LjE0LTkuOTdjLTMuNjItMy42Mi04LjMtNS41OS0xMy40NC01LjU5ICBjLTQuOTgsMC05LjgyLDEuOTctMTMuNDQsNS41OWMtMS4yMSwxLjIxLTEuMjEsMy4xNywwLDQuNTNjMS4yMSwxLjIxLDMuMTcsMS4yMSw0LjUzLDBjMi40Mi0yLjQyLDUuNTktMy42Miw4LjkxLTMuNjIgIHM2LjUsMS4zNiw4LjkxLDMuNjJjNC45OSw0Ljk5LDQuOTksMTIuOTksMCwxNy44MmMtMi40MSwyLjQyLTUuNTksMy42My04LjkxLDMuNjNzLTYuNDktMS4zNi04LjkxLTMuNjNjLTEuMjEtMS4yLTMuMTctMS4yLTQuNTMsMCAgYy0xLjIxLDEuMjEtMS4yMSwzLjE4LDAsNC41NGMzLjYyLDMuNjIsOC4zMSw1LjU4LDEzLjQ0LDUuNThjNC45OSwwLDkuODItMS45NiwxMy40NC01LjU4YzMuMDMtMy4wMiw0LjY5LTYuNjUsNS4yOS0xMC41OGg5LjIxICBjMS44MiwwLDMuMTgtMS4zNiwzLjE4LTMuMTdWNS43N3oiLz4mI3hhOzxnIGlkPSJzaGFkb3c0NDA0LTEzIiB0cmFuc2Zvcm09InRyYW5zbGF0ZSg5LjU1OTIxNDYsLTM4LjQ4NCkiPiYjeGE7CTxnIGlkPSJwYXRoNDg4NzEiIGlua3NjYXBlOmNvbm5lY3Rvci1jdXJ2YXR1cmU9IjAiIHN0eWxlPSJmaWx0ZXI6dXJsKCNmaWx0ZXJfMik7Ij4mI3hhOwkJPHBhdGggc3R5bGU9Im9wYWNpdHk6MC4yMjtmaWxsOiM1QjlCRDU7IiBkPSJNMjYuMTMsNzMuNzJjLTMuMDIsMC01LjU5LDEuODEtNi44LDQuMzhINi4xOVY0Ni4yM2MwLTEuODEtMS4zNi0zLjE3LTMuMTctMy4xNyAgICBDMS4zNiw0My4wNiwwLDQ0LjU3LDAsNDYuMjN2MzUuMDRjMCwxLjgyLDEuMzYsMy4xNywzLjE3LDMuMTdoMTYuMzFjMS4yMSwyLjU3LDMuNzgsNC4zOCw2LjgsNC4zOGM0LjIzLDAsNy41NS0zLjMyLDcuNTUtNy41NSAgICBDMzMuNjgsNzcuMDQsMzAuMjEsNzMuNzIsMjYuMTMsNzMuNzJ6Ii8+JiN4YTsJPC9nPiYjeGE7PC9nPiYjeGE7PHBhdGggaWQ9InBhdGg0ODg3NCIgaW5rc2NhcGU6Y29ubmVjdG9yLWN1cnZhdHVyZT0iMCIgc3R5bGU9ImZpbGw6I0ZGRkZGRjsiIGQ9Ik0zNS4zNCwzMy4yNmMtMy4wMiwwLTUuNTksMS44MS02LjgsNC4zOEgxNS40VjUuNzcgIGMwLTEuODEtMS4zNi0zLjE3LTMuMTctMy4xN2MtMS42NiwwLTMuMDIsMS41MS0zLjAyLDMuMTd2MzUuMDRjMCwxLjgyLDEuMzYsMy4xNywzLjE3LDMuMTdoMTYuMzFjMS4yMSwyLjU3LDMuNzgsNC4zOCw2LjgsNC4zOCAgYzQuMjMsMCw3LjU1LTMuMzIsNy41NS03LjU1QzQyLjg5LDM2LjU4LDM5LjQyLDMzLjI2LDM1LjM0LDMzLjI2eiIvPiYjeGE7PGcgaWQ9InNoYWRvdzQ0MDUtMTgiIHRyYW5zZm9ybT0idHJhbnNsYXRlKDAuMzQ1NTE0NTYsLTcyLjE2NjkpIj4mI3hhOwk8ZyBpZD0icGF0aDQ4ODc5IiBpbmtzY2FwZTpjb25uZWN0b3ItY3VydmF0dXJlPSIwIiBzdHlsZT0iZmlsdGVyOnVybCgjZmlsdGVyXzIpOyI+JiN4YTsJCTxwYXRoIHN0eWxlPSJvcGFjaXR5OjAuMjI7ZmlsbDojNUI5QkQ1OyIgZD0iTTcyLjUsNzQuMzJIMy4wMkMxLjM2LDc0LjMyLDAsNzUuNjgsMCw3Ny4zNXYxMS40N2g3NS41MlY3Ny4zNSAgICBDNzUuNTIsNzUuNjgsNzQuMTYsNzQuMzIsNzIuNSw3NC4zMnoiLz4mI3hhOwk8L2c+JiN4YTs8L2c+JiN4YTs8cGF0aCBpZD0icGF0aDQ4ODgyIiBpbmtzY2FwZTpjb25uZWN0b3ItY3VydmF0dXJlPSIwIiBzdHlsZT0iZmlsbDojQTBBMUEyOyIgZD0iTTcyLjUsMC4xOEgzLjAyQzEuMzYsMC4xOCwwLDEuNTQsMCwzLjIxdjExLjQ3ICBoNzUuNTJWMy4yMUM3NS41MiwxLjU0LDc0LjE2LDAuMTgsNzIuNSwwLjE4eiIvPiYjeGE7PGcgaWQ9InNoYWRvdzQ0MDYtMjMiIHRyYW5zZm9ybT0idHJhbnNsYXRlKDAuMzQ1NTE0NTYsLTIyLjMyMjMpIj4mI3hhOwk8ZyBpZD0icGF0aDQ4ODg3IiBpbmtzY2FwZTpjb25uZWN0b3ItY3VydmF0dXJlPSIwIiBzdHlsZT0iZmlsdGVyOnVybCgjZmlsdGVyXzIpOyI+JiN4YTsJCTxwYXRoIHN0eWxlPSJvcGFjaXR5OjAuMjI7ZmlsbDojNUI5QkQ1OyIgZD0iTTMuMDIsMjQuNDhDMS4zNiwyNC40OCwwLDI1Ljg0LDAsMjcuNXYxMS4wM3Y0Ljk4Vjg1LjhjMCwxLjY3LDEuMzYsMy4wMiwzLjAyLDMuMDIgICAgaDMuMzJsNTkuNTItNjQuMzRIMy4wMnoiLz4mI3hhOwk8L2c+JiN4YTs8L2c+JiN4YTs8cGF0aCBpZD0icGF0aDQ4ODkwIiBpbmtzY2FwZTpjb25uZWN0b3ItY3VydmF0dXJlPSIwIiBzdHlsZT0iZmlsbDojRkZGRkZGO2ZpbGwtb3BhY2l0eTowLjI7IiBkPSJNMy4wMiwwLjE4ICBDMS4zNiwwLjE4LDAsMS41NCwwLDMuMnYxMS4wM3Y0Ljk4VjYxLjVjMCwxLjY3LDEuMzYsMy4wMiwzLjAyLDMuMDJoMy4zMkw2NS44NiwwLjE4SDMuMDJ6Ii8+JiN4YTs8L3N2Zz4=;" parent="1" vertex="1">
          <mxGeometry x="346" y="1134.29" width="92" height="78.68" as="geometry" />
        </mxCell>
        <mxCell id="0cbcKrgpYcrlJENanbfO-76" value="" style="sketch=0;aspect=fixed;html=1;points=[];align=center;image;fontSize=12;image=img/lib/mscae/BlobBlock.svg;" parent="1" vertex="1">
          <mxGeometry x="669.99" y="1142.97" width="83.33" height="70" as="geometry" />
        </mxCell>
        <mxCell id="0cbcKrgpYcrlJENanbfO-77" value="/report-general" style="text;html=1;strokeColor=none;fillColor=none;align=center;verticalAlign=middle;whiteSpace=wrap;rounded=0;" parent="1" vertex="1">
          <mxGeometry x="330" y="914.29" width="120" height="30" as="geometry" />
        </mxCell>
        <mxCell id="0cbcKrgpYcrlJENanbfO-78" value="BLOBSTORAGE" style="text;html=1;strokeColor=none;fillColor=none;align=center;verticalAlign=middle;whiteSpace=wrap;rounded=0;" parent="1" vertex="1">
          <mxGeometry x="651.66" y="1204.29" width="120" height="40" as="geometry" />
        </mxCell>
        <mxCell id="0cbcKrgpYcrlJENanbfO-79" value="Request&lt;br&gt;String: fileName&lt;br&gt;T: filter" style="text;html=1;strokeColor=none;fillColor=none;align=center;verticalAlign=middle;whiteSpace=wrap;rounded=0;" parent="1" vertex="1">
          <mxGeometry x="210" y="920" width="120" height="70" as="geometry" />
        </mxCell>
        <mxCell id="0cbcKrgpYcrlJENanbfO-80" style="edgeStyle=orthogonalEdgeStyle;rounded=0;orthogonalLoop=1;jettySize=auto;html=1;entryX=0;entryY=0.25;entryDx=0;entryDy=0;" parent="1" source="0cbcKrgpYcrlJENanbfO-81" target="0cbcKrgpYcrlJENanbfO-84" edge="1">
          <mxGeometry relative="1" as="geometry">
            <Array as="points">
              <mxPoint x="360" y="1324.29" />
            </Array>
          </mxGeometry>
        </mxCell>
        <mxCell id="0cbcKrgpYcrlJENanbfO-81" value="" style="shape=image;verticalLabelPosition=bottom;labelBackgroundColor=#ffffff;verticalAlign=top;aspect=fixed;imageAspect=0;image=data:image/svg+xml,PHN2ZyB4bWxuczpjYz0iaHR0cDovL2NyZWF0aXZlY29tbW9ucy5vcmcvbnMjIiB4bWxuczpkYz0iaHR0cDovL3B1cmwub3JnL2RjL2VsZW1lbnRzLzEuMS8iIHhtbG5zOmlua3NjYXBlPSJodHRwOi8vd3d3Lmlua3NjYXBlLm9yZy9uYW1lc3BhY2VzL2lua3NjYXBlIiB4bWxuczpyZGY9Imh0dHA6Ly93d3cudzMub3JnLzE5OTkvMDIvMjItcmRmLXN5bnRheC1ucyMiIHhtbG5zOnNvZGlwb2RpPSJodHRwOi8vc29kaXBvZGkuc291cmNlZm9yZ2UubmV0L0RURC9zb2RpcG9kaS0wLmR0ZCIgeG1sbnM6c3ZnPSJodHRwOi8vd3d3LnczLm9yZy8yMDAwL3N2ZyIgeG1sbnM9Imh0dHA6Ly93d3cudzMub3JnLzIwMDAvc3ZnIiB4bWxuczp4bGluaz0iaHR0cDovL3d3dy53My5vcmcvMTk5OS94bGluayIgdmVyc2lvbj0iMS4xIiBpZD0ic3ZnMjMxMzAiIHg9IjBweCIgeT0iMHB4IiB2aWV3Qm94PSIwIDAgNDIgMzAiIHN0eWxlPSJlbmFibGUtYmFja2dyb3VuZDpuZXcgMCAwIDQyIDMwOyIgeG1sOnNwYWNlPSJwcmVzZXJ2ZSI+JiN4YTs8c29kaXBvZGk6bmFtZWR2aWV3IGJvcmRlcmNvbG9yPSIjNjY2NjY2IiBib3JkZXJvcGFjaXR5PSIxIiBmaXQtbWFyZ2luLWJvdHRvbT0iMCIgZml0LW1hcmdpbi1sZWZ0PSIwIiBmaXQtbWFyZ2luLXJpZ2h0PSIwIiBmaXQtbWFyZ2luLXRvcD0iMCIgZ3JpZHRvbGVyYW5jZT0iMTAiIGd1aWRldG9sZXJhbmNlPSIxMCIgaWQ9Im5hbWVkdmlldzIzMTMyIiBpbmtzY2FwZTpjdXJyZW50LWxheWVyPSJzdmcyMzEzMCIgaW5rc2NhcGU6Y3g9IjI2LjEzMzkyNSIgaW5rc2NhcGU6Y3k9IjE1Ljc4MzM2NSIgaW5rc2NhcGU6cGFnZW9wYWNpdHk9IjAiIGlua3NjYXBlOnBhZ2VzaGFkb3c9IjIiIGlua3NjYXBlOndpbmRvdy1oZWlnaHQ9IjEwMTciIGlua3NjYXBlOndpbmRvdy1tYXhpbWl6ZWQ9IjEiIGlua3NjYXBlOndpbmRvdy13aWR0aD0iMTkyMCIgaW5rc2NhcGU6d2luZG93LXg9Ii04IiBpbmtzY2FwZTp3aW5kb3cteT0iLTgiIGlua3NjYXBlOnpvb209IjE0LjU5NjcwNCIgb2JqZWN0dG9sZXJhbmNlPSIxMCIgcGFnZWNvbG9yPSIjZmZmZmZmIiBzaG93Z3JpZD0iZmFsc2UiPiYjeGE7CTwvc29kaXBvZGk6bmFtZWR2aWV3PiYjeGE7PGcgaWQ9ImcyMzEyOCIgdHJhbnNmb3JtPSJ0cmFuc2xhdGUoLTAuNzQ5OTkyMDMsLTAuNzQ5OTkyMDMpIj4mI3hhOwk8dGl0bGUgaWQ9InRpdGxlMjMwOTUiPlBhZ2UtMTwvdGl0bGU+JiN4YTsJPGcgaWQ9Imdyb3VwMTgxOS0xIiB0cmFuc2Zvcm09InRyYW5zbGF0ZSgxLjUsLTEuNSkiPiYjeGE7CQk8dGl0bGUgaWQ9InRpdGxlMjMwOTciPkFwcGxpY2F0aW9uICMxPC90aXRsZT4mI3hhOwkJPGcgaWQ9InNoYXBlMTgyMC0yIj4mI3hhOwkJCTx0aXRsZSBpZD0idGl0bGUyMzA5OSI+cmVjdDM3OTguMjc1OTE8L3RpdGxlPiYjeGE7CQkJJiN4YTsJCQkJPHBhdGggaWQ9InBhdGgyMzEwMSIgaW5rc2NhcGU6Y29ubmVjdG9yLWN1cnZhdHVyZT0iMCIgc3R5bGU9ImZpbGwtcnVsZTpldmVub2RkO2NsaXAtcnVsZTpldmVub2RkO2ZpbGw6I0ZGRkZGRjtzdHJva2U6IzU1NkE4QTtzdHJva2Utd2lkdGg6MS41O3N0cm9rZS1taXRlcmxpbWl0OjM7IiBkPSIgICAgIE0wLDI5Ljk1YzAsMC44NSwwLjY5LDEuNTUsMS41NCwxLjU1aDM3LjQxYzAuODUsMCwxLjU1LTAuNjksMS41NS0xLjU0YzAsMCwwLTAuMDEsMC0wLjAxVjQuNTRDNDAuNSwzLjY5LDM5LjgsMywzOC45NSwzSDEuNTQgICAgIEMwLjY5LDMsMCwzLjY5LDAsNC41NFYyOS45NXoiLz4mI3hhOwkJPC9nPiYjeGE7CQk8ZyBpZD0iZ3JvdXAxODIxLTQiIHRyYW5zZm9ybT0idHJhbnNsYXRlKDExLjI1LC02KSI+JiN4YTsJCQk8dGl0bGUgaWQ9InRpdGxlMjMxMDQiPmczODA4LjI3NTkyPC90aXRsZT4mI3hhOwkJCTxnIGlkPSJzaGFwZTE4MjItNSIgdHJhbnNmb3JtPSJ0cmFuc2xhdGUoMC42OTc1LC04Ljk5MjUpIj4mI3hhOwkJCQk8dGl0bGUgaWQ9InRpdGxlMjMxMDYiPnBvbHlnb24zODAyPC90aXRsZT4mI3hhOwkJCQk8cGF0aCBpZD0icGF0aDIzMTA4IiBpbmtzY2FwZTpjb25uZWN0b3ItY3VydmF0dXJlPSIwIiBzdHlsZT0iZmlsbC1ydWxlOmV2ZW5vZGQ7Y2xpcC1ydWxlOmV2ZW5vZGQ7ZmlsbDojMkJDN0Y0OyIgZD0iICAgICAgTTYuOCwyNC4zNkwwLDI3LjgxbDYuOCwzLjY5bDYuNzUtMy43Nkw2LjgsMjQuMzZ6Ii8+JiN4YTsJCQk8L2c+JiN4YTsJCQk8ZyBpZD0ic2hhcGUxODIzLTciPiYjeGE7CQkJCTx0aXRsZSBpZD0idGl0bGUyMzExMSI+cG9seWdvbjM4MDQ8L3RpdGxlPiYjeGE7CQkJCTxwYXRoIGlkPSJwYXRoMjMxMTMiIGlua3NjYXBlOmNvbm5lY3Rvci1jdXJ2YXR1cmU9IjAiIHN0eWxlPSJmaWxsLXJ1bGU6ZXZlbm9kZDtjbGlwLXJ1bGU6ZXZlbm9kZDtmaWxsOiMyQkM3RjQ7IiBkPSJNMCwyNy42NCAgICAgIGw2Ljc1LDMuODZ2LTguMjdMMCwxOS41NlYyNy42NHoiLz4mI3hhOwkJCTwvZz4mI3hhOwkJCTxnIGlkPSJzaGFwZTE4MjQtOSIgdHJhbnNmb3JtPSJ0cmFuc2xhdGUoOC4yNSkiPiYjeGE7CQkJCTx0aXRsZSBpZD0idGl0bGUyMzExNiI+cG9seWdvbjM4MDY8L3RpdGxlPiYjeGE7CQkJCTxwYXRoIGlkPSJwYXRoMjMxMTgiIGlua3NjYXBlOmNvbm5lY3Rvci1jdXJ2YXR1cmU9IjAiIHN0eWxlPSJmaWxsLXJ1bGU6ZXZlbm9kZDtjbGlwLXJ1bGU6ZXZlbm9kZDtmaWxsOiMyQkM3RjQ7IiBkPSIgICAgICBNNi43NSwyNy42NEwwLDMxLjV2LTguMjdsNi43NS0zLjY3VjI3LjY0eiIvPiYjeGE7CQkJPC9nPiYjeGE7CQk8L2c+JiN4YTsJCTxnIGlkPSJzaGFwZTE4MjUtMTEiIHRyYW5zZm9ybT0idHJhbnNsYXRlKDM2Ljc1LC0xMS4yNSkiPiYjeGE7CQkJPHRpdGxlIGlkPSJ0aXRsZTIzMTIyIj5yZWN0Mzg0Ni4yNzYwODwvdGl0bGU+JiN4YTsJCQk8cGF0aCBpZD0icGF0aDIzMTI0IiBpbmtzY2FwZTpjb25uZWN0b3ItY3VydmF0dXJlPSIwIiBzdHlsZT0iZmlsbC1ydWxlOmV2ZW5vZGQ7Y2xpcC1ydWxlOmV2ZW5vZGQ7ZmlsbDojOURBOEI3OyIgZD0iTTAsMzAuNzUgICAgIGMwLDAuNDEsMC4zNCwwLjc1LDAuNzUsMC43NWMwLjQxLDAsMC43NS0wLjM0LDAuNzUtMC43NXYtNC41YzAtMC40MS0wLjM0LTAuNzUtMC43NS0wLjc1QzAuMzQsMjUuNSwwLDI1Ljg0LDAsMjYuMjVWMzAuNzV6Ii8+JiN4YTsJCTwvZz4mI3hhOwk8L2c+JiN4YTs8L2c+JiN4YTs8L3N2Zz4=;" parent="1" vertex="1">
          <mxGeometry x="60" y="1304.29" width="120" height="85.71" as="geometry" />
        </mxCell>
        <mxCell id="0cbcKrgpYcrlJENanbfO-82" value="VISOR" style="text;html=1;strokeColor=none;fillColor=none;align=center;verticalAlign=middle;whiteSpace=wrap;rounded=0;" parent="1" vertex="1">
          <mxGeometry x="60" y="1390" width="120" height="40" as="geometry" />
        </mxCell>
        <mxCell id="0cbcKrgpYcrlJENanbfO-83" style="edgeStyle=orthogonalEdgeStyle;rounded=0;orthogonalLoop=1;jettySize=auto;html=1;" parent="1" source="0cbcKrgpYcrlJENanbfO-84" target="0cbcKrgpYcrlJENanbfO-88" edge="1">
          <mxGeometry relative="1" as="geometry">
            <Array as="points">
              <mxPoint x="380" y="1444.29" />
              <mxPoint x="380" y="1444.29" />
            </Array>
          </mxGeometry>
        </mxCell>
        <mxCell id="0cbcKrgpYcrlJENanbfO-84" value="channel-application-paramenter" style="shape=image;verticalLabelPosition=bottom;labelBackgroundColor=#ffffff;verticalAlign=top;aspect=fixed;imageAspect=0;image=data:image/svg+xml,PHN2ZyB4bWxuczpjYz0iaHR0cDovL2NyZWF0aXZlY29tbW9ucy5vcmcvbnMjIiB4bWxuczpkYz0iaHR0cDovL3B1cmwub3JnL2RjL2VsZW1lbnRzLzEuMS8iIHhtbG5zOmlua3NjYXBlPSJodHRwOi8vd3d3Lmlua3NjYXBlLm9yZy9uYW1lc3BhY2VzL2lua3NjYXBlIiB4bWxuczpyZGY9Imh0dHA6Ly93d3cudzMub3JnLzE5OTkvMDIvMjItcmRmLXN5bnRheC1ucyMiIHhtbG5zOnNvZGlwb2RpPSJodHRwOi8vc29kaXBvZGkuc291cmNlZm9yZ2UubmV0L0RURC9zb2RpcG9kaS0wLmR0ZCIgeG1sbnM6c3ZnPSJodHRwOi8vd3d3LnczLm9yZy8yMDAwL3N2ZyIgeG1sbnM9Imh0dHA6Ly93d3cudzMub3JnLzIwMDAvc3ZnIiB4bWxuczp4bGluaz0iaHR0cDovL3d3dy53My5vcmcvMTk5OS94bGluayIgdmVyc2lvbj0iMS4xIiBpZD0ic3ZnNDg4OTYiIGlua3NjYXBlOnZlcnNpb249IjAuOTIuMyAoMjQwNTU0NiwgMjAxOC0wMy0xMSkiIHNvZGlwb2RpOmRvY25hbWU9ImFwaV9hcHBzLnN2ZyIgeD0iMHB4IiB5PSIwcHgiIHZpZXdCb3g9IjAgMCA3NS41MiA2NC41MiIgc3R5bGU9ImVuYWJsZS1iYWNrZ3JvdW5kOm5ldyAwIDAgNzUuNTIgNjQuNTI7IiB4bWw6c3BhY2U9InByZXNlcnZlIj4mI3hhOzxmaWx0ZXIgaWQ9ImZpbHRlcl8yIj4mI3hhOwk8ZmVHYXVzc2lhbkJsdXIgaWQ9ImZlR2F1c3NpYW5CbHVyNDg4NDUiIHN0ZERldmlhdGlvbj0iMiIvPiYjeGE7PC9maWx0ZXI+JiN4YTs8c29kaXBvZGk6bmFtZWR2aWV3IGJvcmRlcmNvbG9yPSIjNjY2NjY2IiBib3JkZXJvcGFjaXR5PSIxIiBmaXQtbWFyZ2luLWJvdHRvbT0iMCIgZml0LW1hcmdpbi1sZWZ0PSIwIiBmaXQtbWFyZ2luLXJpZ2h0PSIwIiBmaXQtbWFyZ2luLXRvcD0iMCIgZ3JpZHRvbGVyYW5jZT0iMTAiIGd1aWRldG9sZXJhbmNlPSIxMCIgaWQ9Im5hbWVkdmlldzQ4ODk4IiBpbmtzY2FwZTpjdXJyZW50LWxheWVyPSJzdmc0ODg5NiIgaW5rc2NhcGU6Y3g9IjU3LjkzMjgyOCIgaW5rc2NhcGU6Y3k9IjUwLjYxMzU1MSIgaW5rc2NhcGU6cGFnZW9wYWNpdHk9IjAiIGlua3NjYXBlOnBhZ2VzaGFkb3c9IjIiIGlua3NjYXBlOndpbmRvdy1oZWlnaHQ9IjEwMTciIGlua3NjYXBlOndpbmRvdy1tYXhpbWl6ZWQ9IjEiIGlua3NjYXBlOndpbmRvdy13aWR0aD0iMTkyMCIgaW5rc2NhcGU6d2luZG93LXg9Ii04IiBpbmtzY2FwZTp3aW5kb3cteT0iLTgiIGlua3NjYXBlOnpvb209IjUuMTc2NDI5OSIgb2JqZWN0dG9sZXJhbmNlPSIxMCIgcGFnZWNvbG9yPSIjZmZmZmZmIiBzaG93Z3JpZD0iZmFsc2UiPiYjeGE7CTwvc29kaXBvZGk6bmFtZWR2aWV3PiYjeGE7PGcgaWQ9InNoYWRvdzQ0MDItMyIgdHJhbnNmb3JtPSJ0cmFuc2xhdGUoMC4zNDU1MTQ1NiwtMjIuMzIyMykiPiYjeGE7CTxnIGlkPSJwYXRoNDg4NTUiIGlua3NjYXBlOmNvbm5lY3Rvci1jdXJ2YXR1cmU9IjAiIHN0eWxlPSJmaWx0ZXI6dXJsKCNmaWx0ZXJfMik7Ij4mI3hhOwkJPHBhdGggc3R5bGU9Im9wYWNpdHk6MC4yMjtmaWxsOiM1QjlCRDU7IiBkPSJNMCw4NS44YzAsMS42NywxLjM2LDMuMDIsMy4wMiwzLjAySDcyLjVjMS42NiwwLDMuMDItMS4zNSwzLjAyLTMuMDJWMzguNTNIMFY4NS44eiIvPiYjeGE7CTwvZz4mI3hhOzwvZz4mI3hhOzxwYXRoIGlkPSJwYXRoNDg4NTgiIGlua3NjYXBlOmNvbm5lY3Rvci1jdXJ2YXR1cmU9IjAiIHN0eWxlPSJmaWxsOiM1OUI0RDk7IiBkPSJNMCw2MS41YzAsMS42NywxLjM2LDMuMDIsMy4wMiwzLjAySDcyLjUgIGMxLjY2LDAsMy4wMi0xLjM1LDMuMDItMy4wMlYxNC4yM0gwVjYxLjV6Ii8+JiN4YTs8ZyBpZD0ic2hhZG93NDQwMy04IiB0cmFuc2Zvcm09InRyYW5zbGF0ZSgyMS4wMzg2MTUsLTI2LjcwMjU4KSI+JiN4YTsJPGcgaWQ9InBhdGg0ODg2MyIgaW5rc2NhcGU6Y29ubmVjdG9yLWN1cnZhdHVyZT0iMCIgc3R5bGU9ImZpbHRlcjp1cmwoI2ZpbHRlcl8yKTsiPiYjeGE7CQk8cGF0aCBzdHlsZT0ib3BhY2l0eTowLjIyO2ZpbGw6IzVCOUJENTsiIGQ9Ik00NS43NywzNC40NWMwLTEuODEtMS4zNi0zLjE3LTMuMTgtMy4xN2MtMS44MSwwLTMuMTcsMS4zNi0zLjE3LDMuMTd2MzEuODdoLTYuMTkgICAgYy0wLjYtMy42My0yLjQyLTcuMS01LjE0LTkuOTdjLTMuNjItMy42Mi04LjMtNS41OS0xMy40NC01LjU5Yy00Ljk4LDAtOS44MiwxLjk3LTEzLjQ0LDUuNTlDMCw1Ny41NiwwLDU5LjUyLDEuMjEsNjAuODggICAgYzEuMjEsMS4yMSwzLjE3LDEuMjEsNC41MywwYzIuNDItMi40Miw1LjU5LTMuNjIsOC45MS0zLjYyczYuNSwxLjM2LDguOTEsMy42MmM0Ljk5LDQuOTksNC45OSwxMi45OSwwLDE3LjgyICAgIGMtMi40MSwyLjQyLTUuNTksMy42My04LjkxLDMuNjNzLTYuNDktMS4zNi04LjkxLTMuNjNjLTEuMjEtMS4yLTMuMTctMS4yLTQuNTMsMEMwLDc5LjkxLDAsODEuODgsMS4yMSw4My4yNCAgICBjMy42MiwzLjYyLDguMzEsNS41OCwxMy40NCw1LjU4YzQuOTksMCw5LjgyLTEuOTYsMTMuNDQtNS41OGMzLjAzLTMuMDIsNC42OS02LjY1LDUuMjktMTAuNThoOS4yMWMxLjgyLDAsMy4xOC0xLjM2LDMuMTgtMy4xNyAgICBWMzQuNDV6Ii8+JiN4YTsJPC9nPiYjeGE7PC9nPiYjeGE7PHBhdGggaWQ9InBhdGg0ODg2NiIgaW5rc2NhcGU6Y29ubmVjdG9yLWN1cnZhdHVyZT0iMCIgc3R5bGU9ImZpbGw6I0ZGRkZGRjsiIGQ9Ik02Ni40Niw1Ljc3YzAtMS44MS0xLjM2LTMuMTctMy4xOC0zLjE3ICBjLTEuODEsMC0zLjE3LDEuMzYtMy4xNywzLjE3djMxLjg3aC02LjE5Yy0wLjYtMy42My0yLjQyLTcuMS01LjE0LTkuOTdjLTMuNjItMy42Mi04LjMtNS41OS0xMy40NC01LjU5ICBjLTQuOTgsMC05LjgyLDEuOTctMTMuNDQsNS41OWMtMS4yMSwxLjIxLTEuMjEsMy4xNywwLDQuNTNjMS4yMSwxLjIxLDMuMTcsMS4yMSw0LjUzLDBjMi40Mi0yLjQyLDUuNTktMy42Miw4LjkxLTMuNjIgIHM2LjUsMS4zNiw4LjkxLDMuNjJjNC45OSw0Ljk5LDQuOTksMTIuOTksMCwxNy44MmMtMi40MSwyLjQyLTUuNTksMy42My04LjkxLDMuNjNzLTYuNDktMS4zNi04LjkxLTMuNjNjLTEuMjEtMS4yLTMuMTctMS4yLTQuNTMsMCAgYy0xLjIxLDEuMjEtMS4yMSwzLjE4LDAsNC41NGMzLjYyLDMuNjIsOC4zMSw1LjU4LDEzLjQ0LDUuNThjNC45OSwwLDkuODItMS45NiwxMy40NC01LjU4YzMuMDMtMy4wMiw0LjY5LTYuNjUsNS4yOS0xMC41OGg5LjIxICBjMS44MiwwLDMuMTgtMS4zNiwzLjE4LTMuMTdWNS43N3oiLz4mI3hhOzxnIGlkPSJzaGFkb3c0NDA0LTEzIiB0cmFuc2Zvcm09InRyYW5zbGF0ZSg5LjU1OTIxNDYsLTM4LjQ4NCkiPiYjeGE7CTxnIGlkPSJwYXRoNDg4NzEiIGlua3NjYXBlOmNvbm5lY3Rvci1jdXJ2YXR1cmU9IjAiIHN0eWxlPSJmaWx0ZXI6dXJsKCNmaWx0ZXJfMik7Ij4mI3hhOwkJPHBhdGggc3R5bGU9Im9wYWNpdHk6MC4yMjtmaWxsOiM1QjlCRDU7IiBkPSJNMjYuMTMsNzMuNzJjLTMuMDIsMC01LjU5LDEuODEtNi44LDQuMzhINi4xOVY0Ni4yM2MwLTEuODEtMS4zNi0zLjE3LTMuMTctMy4xNyAgICBDMS4zNiw0My4wNiwwLDQ0LjU3LDAsNDYuMjN2MzUuMDRjMCwxLjgyLDEuMzYsMy4xNywzLjE3LDMuMTdoMTYuMzFjMS4yMSwyLjU3LDMuNzgsNC4zOCw2LjgsNC4zOGM0LjIzLDAsNy41NS0zLjMyLDcuNTUtNy41NSAgICBDMzMuNjgsNzcuMDQsMzAuMjEsNzMuNzIsMjYuMTMsNzMuNzJ6Ii8+JiN4YTsJPC9nPiYjeGE7PC9nPiYjeGE7PHBhdGggaWQ9InBhdGg0ODg3NCIgaW5rc2NhcGU6Y29ubmVjdG9yLWN1cnZhdHVyZT0iMCIgc3R5bGU9ImZpbGw6I0ZGRkZGRjsiIGQ9Ik0zNS4zNCwzMy4yNmMtMy4wMiwwLTUuNTksMS44MS02LjgsNC4zOEgxNS40VjUuNzcgIGMwLTEuODEtMS4zNi0zLjE3LTMuMTctMy4xN2MtMS42NiwwLTMuMDIsMS41MS0zLjAyLDMuMTd2MzUuMDRjMCwxLjgyLDEuMzYsMy4xNywzLjE3LDMuMTdoMTYuMzFjMS4yMSwyLjU3LDMuNzgsNC4zOCw2LjgsNC4zOCAgYzQuMjMsMCw3LjU1LTMuMzIsNy41NS03LjU1QzQyLjg5LDM2LjU4LDM5LjQyLDMzLjI2LDM1LjM0LDMzLjI2eiIvPiYjeGE7PGcgaWQ9InNoYWRvdzQ0MDUtMTgiIHRyYW5zZm9ybT0idHJhbnNsYXRlKDAuMzQ1NTE0NTYsLTcyLjE2NjkpIj4mI3hhOwk8ZyBpZD0icGF0aDQ4ODc5IiBpbmtzY2FwZTpjb25uZWN0b3ItY3VydmF0dXJlPSIwIiBzdHlsZT0iZmlsdGVyOnVybCgjZmlsdGVyXzIpOyI+JiN4YTsJCTxwYXRoIHN0eWxlPSJvcGFjaXR5OjAuMjI7ZmlsbDojNUI5QkQ1OyIgZD0iTTcyLjUsNzQuMzJIMy4wMkMxLjM2LDc0LjMyLDAsNzUuNjgsMCw3Ny4zNXYxMS40N2g3NS41MlY3Ny4zNSAgICBDNzUuNTIsNzUuNjgsNzQuMTYsNzQuMzIsNzIuNSw3NC4zMnoiLz4mI3hhOwk8L2c+JiN4YTs8L2c+JiN4YTs8cGF0aCBpZD0icGF0aDQ4ODgyIiBpbmtzY2FwZTpjb25uZWN0b3ItY3VydmF0dXJlPSIwIiBzdHlsZT0iZmlsbDojQTBBMUEyOyIgZD0iTTcyLjUsMC4xOEgzLjAyQzEuMzYsMC4xOCwwLDEuNTQsMCwzLjIxdjExLjQ3ICBoNzUuNTJWMy4yMUM3NS41MiwxLjU0LDc0LjE2LDAuMTgsNzIuNSwwLjE4eiIvPiYjeGE7PGcgaWQ9InNoYWRvdzQ0MDYtMjMiIHRyYW5zZm9ybT0idHJhbnNsYXRlKDAuMzQ1NTE0NTYsLTIyLjMyMjMpIj4mI3hhOwk8ZyBpZD0icGF0aDQ4ODg3IiBpbmtzY2FwZTpjb25uZWN0b3ItY3VydmF0dXJlPSIwIiBzdHlsZT0iZmlsdGVyOnVybCgjZmlsdGVyXzIpOyI+JiN4YTsJCTxwYXRoIHN0eWxlPSJvcGFjaXR5OjAuMjI7ZmlsbDojNUI5QkQ1OyIgZD0iTTMuMDIsMjQuNDhDMS4zNiwyNC40OCwwLDI1Ljg0LDAsMjcuNXYxMS4wM3Y0Ljk4Vjg1LjhjMCwxLjY3LDEuMzYsMy4wMiwzLjAyLDMuMDIgICAgaDMuMzJsNTkuNTItNjQuMzRIMy4wMnoiLz4mI3hhOwk8L2c+JiN4YTs8L2c+JiN4YTs8cGF0aCBpZD0icGF0aDQ4ODkwIiBpbmtzY2FwZTpjb25uZWN0b3ItY3VydmF0dXJlPSIwIiBzdHlsZT0iZmlsbDojRkZGRkZGO2ZpbGwtb3BhY2l0eTowLjI7IiBkPSJNMy4wMiwwLjE4ICBDMS4zNiwwLjE4LDAsMS41NCwwLDMuMnYxMS4wM3Y0Ljk4VjYxLjVjMCwxLjY3LDEuMzYsMy4wMiwzLjAyLDMuMDJoMy4zMkw2NS44NiwwLjE4SDMuMDJ6Ii8+JiN4YTs8L3N2Zz4=;" parent="1" vertex="1">
          <mxGeometry x="360" y="1304.29" width="92" height="78.68" as="geometry" />
        </mxCell>
        <mxCell id="0cbcKrgpYcrlJENanbfO-85" value="/AuthorizationDownload" style="text;html=1;strokeColor=none;fillColor=none;align=center;verticalAlign=middle;whiteSpace=wrap;rounded=0;" parent="1" vertex="1">
          <mxGeometry x="346" y="1274.29" width="120" height="30" as="geometry" />
        </mxCell>
        <mxCell id="0cbcKrgpYcrlJENanbfO-86" value="Request&lt;br&gt;String: fileName&lt;br&gt;" style="text;html=1;strokeColor=none;fillColor=none;align=center;verticalAlign=middle;whiteSpace=wrap;rounded=0;" parent="1" vertex="1">
          <mxGeometry x="200" y="1259.29" width="120" height="60" as="geometry" />
        </mxCell>
        <mxCell id="0cbcKrgpYcrlJENanbfO-87" style="edgeStyle=orthogonalEdgeStyle;rounded=0;orthogonalLoop=1;jettySize=auto;html=1;entryX=-0.028;entryY=0.767;entryDx=0;entryDy=0;entryPerimeter=0;" parent="1" source="0cbcKrgpYcrlJENanbfO-88" target="0cbcKrgpYcrlJENanbfO-90" edge="1">
          <mxGeometry relative="1" as="geometry">
            <mxPoint x="680" y="1573.63" as="targetPoint" />
            <Array as="points">
              <mxPoint x="680" y="1594.29" />
              <mxPoint x="680" y="1592.29" />
            </Array>
          </mxGeometry>
        </mxCell>
        <mxCell id="0cbcKrgpYcrlJENanbfO-88" value="application-cbaf-paramenter" style="shape=image;verticalLabelPosition=bottom;labelBackgroundColor=#ffffff;verticalAlign=top;aspect=fixed;imageAspect=0;image=data:image/svg+xml,PHN2ZyB4bWxuczpjYz0iaHR0cDovL2NyZWF0aXZlY29tbW9ucy5vcmcvbnMjIiB4bWxuczpkYz0iaHR0cDovL3B1cmwub3JnL2RjL2VsZW1lbnRzLzEuMS8iIHhtbG5zOmlua3NjYXBlPSJodHRwOi8vd3d3Lmlua3NjYXBlLm9yZy9uYW1lc3BhY2VzL2lua3NjYXBlIiB4bWxuczpyZGY9Imh0dHA6Ly93d3cudzMub3JnLzE5OTkvMDIvMjItcmRmLXN5bnRheC1ucyMiIHhtbG5zOnNvZGlwb2RpPSJodHRwOi8vc29kaXBvZGkuc291cmNlZm9yZ2UubmV0L0RURC9zb2RpcG9kaS0wLmR0ZCIgeG1sbnM6c3ZnPSJodHRwOi8vd3d3LnczLm9yZy8yMDAwL3N2ZyIgeG1sbnM9Imh0dHA6Ly93d3cudzMub3JnLzIwMDAvc3ZnIiB4bWxuczp4bGluaz0iaHR0cDovL3d3dy53My5vcmcvMTk5OS94bGluayIgdmVyc2lvbj0iMS4xIiBpZD0ic3ZnNDg4OTYiIGlua3NjYXBlOnZlcnNpb249IjAuOTIuMyAoMjQwNTU0NiwgMjAxOC0wMy0xMSkiIHNvZGlwb2RpOmRvY25hbWU9ImFwaV9hcHBzLnN2ZyIgeD0iMHB4IiB5PSIwcHgiIHZpZXdCb3g9IjAgMCA3NS41MiA2NC41MiIgc3R5bGU9ImVuYWJsZS1iYWNrZ3JvdW5kOm5ldyAwIDAgNzUuNTIgNjQuNTI7IiB4bWw6c3BhY2U9InByZXNlcnZlIj4mI3hhOzxmaWx0ZXIgaWQ9ImZpbHRlcl8yIj4mI3hhOwk8ZmVHYXVzc2lhbkJsdXIgaWQ9ImZlR2F1c3NpYW5CbHVyNDg4NDUiIHN0ZERldmlhdGlvbj0iMiIvPiYjeGE7PC9maWx0ZXI+JiN4YTs8c29kaXBvZGk6bmFtZWR2aWV3IGJvcmRlcmNvbG9yPSIjNjY2NjY2IiBib3JkZXJvcGFjaXR5PSIxIiBmaXQtbWFyZ2luLWJvdHRvbT0iMCIgZml0LW1hcmdpbi1sZWZ0PSIwIiBmaXQtbWFyZ2luLXJpZ2h0PSIwIiBmaXQtbWFyZ2luLXRvcD0iMCIgZ3JpZHRvbGVyYW5jZT0iMTAiIGd1aWRldG9sZXJhbmNlPSIxMCIgaWQ9Im5hbWVkdmlldzQ4ODk4IiBpbmtzY2FwZTpjdXJyZW50LWxheWVyPSJzdmc0ODg5NiIgaW5rc2NhcGU6Y3g9IjU3LjkzMjgyOCIgaW5rc2NhcGU6Y3k9IjUwLjYxMzU1MSIgaW5rc2NhcGU6cGFnZW9wYWNpdHk9IjAiIGlua3NjYXBlOnBhZ2VzaGFkb3c9IjIiIGlua3NjYXBlOndpbmRvdy1oZWlnaHQ9IjEwMTciIGlua3NjYXBlOndpbmRvdy1tYXhpbWl6ZWQ9IjEiIGlua3NjYXBlOndpbmRvdy13aWR0aD0iMTkyMCIgaW5rc2NhcGU6d2luZG93LXg9Ii04IiBpbmtzY2FwZTp3aW5kb3cteT0iLTgiIGlua3NjYXBlOnpvb209IjUuMTc2NDI5OSIgb2JqZWN0dG9sZXJhbmNlPSIxMCIgcGFnZWNvbG9yPSIjZmZmZmZmIiBzaG93Z3JpZD0iZmFsc2UiPiYjeGE7CTwvc29kaXBvZGk6bmFtZWR2aWV3PiYjeGE7PGcgaWQ9InNoYWRvdzQ0MDItMyIgdHJhbnNmb3JtPSJ0cmFuc2xhdGUoMC4zNDU1MTQ1NiwtMjIuMzIyMykiPiYjeGE7CTxnIGlkPSJwYXRoNDg4NTUiIGlua3NjYXBlOmNvbm5lY3Rvci1jdXJ2YXR1cmU9IjAiIHN0eWxlPSJmaWx0ZXI6dXJsKCNmaWx0ZXJfMik7Ij4mI3hhOwkJPHBhdGggc3R5bGU9Im9wYWNpdHk6MC4yMjtmaWxsOiM1QjlCRDU7IiBkPSJNMCw4NS44YzAsMS42NywxLjM2LDMuMDIsMy4wMiwzLjAySDcyLjVjMS42NiwwLDMuMDItMS4zNSwzLjAyLTMuMDJWMzguNTNIMFY4NS44eiIvPiYjeGE7CTwvZz4mI3hhOzwvZz4mI3hhOzxwYXRoIGlkPSJwYXRoNDg4NTgiIGlua3NjYXBlOmNvbm5lY3Rvci1jdXJ2YXR1cmU9IjAiIHN0eWxlPSJmaWxsOiM1OUI0RDk7IiBkPSJNMCw2MS41YzAsMS42NywxLjM2LDMuMDIsMy4wMiwzLjAySDcyLjUgIGMxLjY2LDAsMy4wMi0xLjM1LDMuMDItMy4wMlYxNC4yM0gwVjYxLjV6Ii8+JiN4YTs8ZyBpZD0ic2hhZG93NDQwMy04IiB0cmFuc2Zvcm09InRyYW5zbGF0ZSgyMS4wMzg2MTUsLTI2LjcwMjU4KSI+JiN4YTsJPGcgaWQ9InBhdGg0ODg2MyIgaW5rc2NhcGU6Y29ubmVjdG9yLWN1cnZhdHVyZT0iMCIgc3R5bGU9ImZpbHRlcjp1cmwoI2ZpbHRlcl8yKTsiPiYjeGE7CQk8cGF0aCBzdHlsZT0ib3BhY2l0eTowLjIyO2ZpbGw6IzVCOUJENTsiIGQ9Ik00NS43NywzNC40NWMwLTEuODEtMS4zNi0zLjE3LTMuMTgtMy4xN2MtMS44MSwwLTMuMTcsMS4zNi0zLjE3LDMuMTd2MzEuODdoLTYuMTkgICAgYy0wLjYtMy42My0yLjQyLTcuMS01LjE0LTkuOTdjLTMuNjItMy42Mi04LjMtNS41OS0xMy40NC01LjU5Yy00Ljk4LDAtOS44MiwxLjk3LTEzLjQ0LDUuNTlDMCw1Ny41NiwwLDU5LjUyLDEuMjEsNjAuODggICAgYzEuMjEsMS4yMSwzLjE3LDEuMjEsNC41MywwYzIuNDItMi40Miw1LjU5LTMuNjIsOC45MS0zLjYyczYuNSwxLjM2LDguOTEsMy42MmM0Ljk5LDQuOTksNC45OSwxMi45OSwwLDE3LjgyICAgIGMtMi40MSwyLjQyLTUuNTksMy42My04LjkxLDMuNjNzLTYuNDktMS4zNi04LjkxLTMuNjNjLTEuMjEtMS4yLTMuMTctMS4yLTQuNTMsMEMwLDc5LjkxLDAsODEuODgsMS4yMSw4My4yNCAgICBjMy42MiwzLjYyLDguMzEsNS41OCwxMy40NCw1LjU4YzQuOTksMCw5LjgyLTEuOTYsMTMuNDQtNS41OGMzLjAzLTMuMDIsNC42OS02LjY1LDUuMjktMTAuNThoOS4yMWMxLjgyLDAsMy4xOC0xLjM2LDMuMTgtMy4xNyAgICBWMzQuNDV6Ii8+JiN4YTsJPC9nPiYjeGE7PC9nPiYjeGE7PHBhdGggaWQ9InBhdGg0ODg2NiIgaW5rc2NhcGU6Y29ubmVjdG9yLWN1cnZhdHVyZT0iMCIgc3R5bGU9ImZpbGw6I0ZGRkZGRjsiIGQ9Ik02Ni40Niw1Ljc3YzAtMS44MS0xLjM2LTMuMTctMy4xOC0zLjE3ICBjLTEuODEsMC0zLjE3LDEuMzYtMy4xNywzLjE3djMxLjg3aC02LjE5Yy0wLjYtMy42My0yLjQyLTcuMS01LjE0LTkuOTdjLTMuNjItMy42Mi04LjMtNS41OS0xMy40NC01LjU5ICBjLTQuOTgsMC05LjgyLDEuOTctMTMuNDQsNS41OWMtMS4yMSwxLjIxLTEuMjEsMy4xNywwLDQuNTNjMS4yMSwxLjIxLDMuMTcsMS4yMSw0LjUzLDBjMi40Mi0yLjQyLDUuNTktMy42Miw4LjkxLTMuNjIgIHM2LjUsMS4zNiw4LjkxLDMuNjJjNC45OSw0Ljk5LDQuOTksMTIuOTksMCwxNy44MmMtMi40MSwyLjQyLTUuNTksMy42My04LjkxLDMuNjNzLTYuNDktMS4zNi04LjkxLTMuNjNjLTEuMjEtMS4yLTMuMTctMS4yLTQuNTMsMCAgYy0xLjIxLDEuMjEtMS4yMSwzLjE4LDAsNC41NGMzLjYyLDMuNjIsOC4zMSw1LjU4LDEzLjQ0LDUuNThjNC45OSwwLDkuODItMS45NiwxMy40NC01LjU4YzMuMDMtMy4wMiw0LjY5LTYuNjUsNS4yOS0xMC41OGg5LjIxICBjMS44MiwwLDMuMTgtMS4zNiwzLjE4LTMuMTdWNS43N3oiLz4mI3hhOzxnIGlkPSJzaGFkb3c0NDA0LTEzIiB0cmFuc2Zvcm09InRyYW5zbGF0ZSg5LjU1OTIxNDYsLTM4LjQ4NCkiPiYjeGE7CTxnIGlkPSJwYXRoNDg4NzEiIGlua3NjYXBlOmNvbm5lY3Rvci1jdXJ2YXR1cmU9IjAiIHN0eWxlPSJmaWx0ZXI6dXJsKCNmaWx0ZXJfMik7Ij4mI3hhOwkJPHBhdGggc3R5bGU9Im9wYWNpdHk6MC4yMjtmaWxsOiM1QjlCRDU7IiBkPSJNMjYuMTMsNzMuNzJjLTMuMDIsMC01LjU5LDEuODEtNi44LDQuMzhINi4xOVY0Ni4yM2MwLTEuODEtMS4zNi0zLjE3LTMuMTctMy4xNyAgICBDMS4zNiw0My4wNiwwLDQ0LjU3LDAsNDYuMjN2MzUuMDRjMCwxLjgyLDEuMzYsMy4xNywzLjE3LDMuMTdoMTYuMzFjMS4yMSwyLjU3LDMuNzgsNC4zOCw2LjgsNC4zOGM0LjIzLDAsNy41NS0zLjMyLDcuNTUtNy41NSAgICBDMzMuNjgsNzcuMDQsMzAuMjEsNzMuNzIsMjYuMTMsNzMuNzJ6Ii8+JiN4YTsJPC9nPiYjeGE7PC9nPiYjeGE7PHBhdGggaWQ9InBhdGg0ODg3NCIgaW5rc2NhcGU6Y29ubmVjdG9yLWN1cnZhdHVyZT0iMCIgc3R5bGU9ImZpbGw6I0ZGRkZGRjsiIGQ9Ik0zNS4zNCwzMy4yNmMtMy4wMiwwLTUuNTksMS44MS02LjgsNC4zOEgxNS40VjUuNzcgIGMwLTEuODEtMS4zNi0zLjE3LTMuMTctMy4xN2MtMS42NiwwLTMuMDIsMS41MS0zLjAyLDMuMTd2MzUuMDRjMCwxLjgyLDEuMzYsMy4xNywzLjE3LDMuMTdoMTYuMzFjMS4yMSwyLjU3LDMuNzgsNC4zOCw2LjgsNC4zOCAgYzQuMjMsMCw3LjU1LTMuMzIsNy41NS03LjU1QzQyLjg5LDM2LjU4LDM5LjQyLDMzLjI2LDM1LjM0LDMzLjI2eiIvPiYjeGE7PGcgaWQ9InNoYWRvdzQ0MDUtMTgiIHRyYW5zZm9ybT0idHJhbnNsYXRlKDAuMzQ1NTE0NTYsLTcyLjE2NjkpIj4mI3hhOwk8ZyBpZD0icGF0aDQ4ODc5IiBpbmtzY2FwZTpjb25uZWN0b3ItY3VydmF0dXJlPSIwIiBzdHlsZT0iZmlsdGVyOnVybCgjZmlsdGVyXzIpOyI+JiN4YTsJCTxwYXRoIHN0eWxlPSJvcGFjaXR5OjAuMjI7ZmlsbDojNUI5QkQ1OyIgZD0iTTcyLjUsNzQuMzJIMy4wMkMxLjM2LDc0LjMyLDAsNzUuNjgsMCw3Ny4zNXYxMS40N2g3NS41MlY3Ny4zNSAgICBDNzUuNTIsNzUuNjgsNzQuMTYsNzQuMzIsNzIuNSw3NC4zMnoiLz4mI3hhOwk8L2c+JiN4YTs8L2c+JiN4YTs8cGF0aCBpZD0icGF0aDQ4ODgyIiBpbmtzY2FwZTpjb25uZWN0b3ItY3VydmF0dXJlPSIwIiBzdHlsZT0iZmlsbDojQTBBMUEyOyIgZD0iTTcyLjUsMC4xOEgzLjAyQzEuMzYsMC4xOCwwLDEuNTQsMCwzLjIxdjExLjQ3ICBoNzUuNTJWMy4yMUM3NS41MiwxLjU0LDc0LjE2LDAuMTgsNzIuNSwwLjE4eiIvPiYjeGE7PGcgaWQ9InNoYWRvdzQ0MDYtMjMiIHRyYW5zZm9ybT0idHJhbnNsYXRlKDAuMzQ1NTE0NTYsLTIyLjMyMjMpIj4mI3hhOwk8ZyBpZD0icGF0aDQ4ODg3IiBpbmtzY2FwZTpjb25uZWN0b3ItY3VydmF0dXJlPSIwIiBzdHlsZT0iZmlsdGVyOnVybCgjZmlsdGVyXzIpOyI+JiN4YTsJCTxwYXRoIHN0eWxlPSJvcGFjaXR5OjAuMjI7ZmlsbDojNUI5QkQ1OyIgZD0iTTMuMDIsMjQuNDhDMS4zNiwyNC40OCwwLDI1Ljg0LDAsMjcuNXYxMS4wM3Y0Ljk4Vjg1LjhjMCwxLjY3LDEuMzYsMy4wMiwzLjAyLDMuMDIgICAgaDMuMzJsNTkuNTItNjQuMzRIMy4wMnoiLz4mI3hhOwk8L2c+JiN4YTs8L2c+JiN4YTs8cGF0aCBpZD0icGF0aDQ4ODkwIiBpbmtzY2FwZTpjb25uZWN0b3ItY3VydmF0dXJlPSIwIiBzdHlsZT0iZmlsbDojRkZGRkZGO2ZpbGwtb3BhY2l0eTowLjI7IiBkPSJNMy4wMiwwLjE4ICBDMS4zNiwwLjE4LDAsMS41NCwwLDMuMnYxMS4wM3Y0Ljk4VjYxLjVjMCwxLjY3LDEuMzYsMy4wMiwzLjAyLDMuMDJoMy4zMkw2NS44NiwwLjE4SDMuMDJ6Ii8+JiN4YTs8L3N2Zz4=;" parent="1" vertex="1">
          <mxGeometry x="360" y="1534.29" width="92" height="78.68" as="geometry" />
        </mxCell>
        <mxCell id="0cbcKrgpYcrlJENanbfO-89" value="/AuthorizationDownload" style="text;html=1;strokeColor=none;fillColor=none;align=center;verticalAlign=middle;whiteSpace=wrap;rounded=0;" parent="1" vertex="1">
          <mxGeometry x="290" y="1454.29" width="120" height="30" as="geometry" />
        </mxCell>
        <mxCell id="0cbcKrgpYcrlJENanbfO-90" value="" style="sketch=0;aspect=fixed;html=1;points=[];align=center;image;fontSize=12;image=img/lib/mscae/BlobBlock.svg;" parent="1" vertex="1">
          <mxGeometry x="688.3199999999999" y="1538.6299999999999" width="83.33" height="70" as="geometry" />
        </mxCell>
        <mxCell id="0cbcKrgpYcrlJENanbfO-91" style="edgeStyle=orthogonalEdgeStyle;rounded=0;orthogonalLoop=1;jettySize=auto;html=1;entryX=0.008;entryY=0.588;entryDx=0;entryDy=0;entryPerimeter=0;" parent="1" source="0cbcKrgpYcrlJENanbfO-92" target="0cbcKrgpYcrlJENanbfO-96" edge="1">
          <mxGeometry relative="1" as="geometry" />
        </mxCell>
        <mxCell id="0cbcKrgpYcrlJENanbfO-92" value="" style="shape=image;verticalLabelPosition=bottom;labelBackgroundColor=#ffffff;verticalAlign=top;aspect=fixed;imageAspect=0;image=data:image/svg+xml,PHN2ZyB4bWxuczpjYz0iaHR0cDovL2NyZWF0aXZlY29tbW9ucy5vcmcvbnMjIiB4bWxuczpkYz0iaHR0cDovL3B1cmwub3JnL2RjL2VsZW1lbnRzLzEuMS8iIHhtbG5zOmlua3NjYXBlPSJodHRwOi8vd3d3Lmlua3NjYXBlLm9yZy9uYW1lc3BhY2VzL2lua3NjYXBlIiB4bWxuczpyZGY9Imh0dHA6Ly93d3cudzMub3JnLzE5OTkvMDIvMjItcmRmLXN5bnRheC1ucyMiIHhtbG5zOnNvZGlwb2RpPSJodHRwOi8vc29kaXBvZGkuc291cmNlZm9yZ2UubmV0L0RURC9zb2RpcG9kaS0wLmR0ZCIgeG1sbnM6c3ZnPSJodHRwOi8vd3d3LnczLm9yZy8yMDAwL3N2ZyIgeG1sbnM9Imh0dHA6Ly93d3cudzMub3JnLzIwMDAvc3ZnIiB4bWxuczp4bGluaz0iaHR0cDovL3d3dy53My5vcmcvMTk5OS94bGluayIgdmVyc2lvbj0iMS4xIiBpZD0ic3ZnMjMxMzAiIHg9IjBweCIgeT0iMHB4IiB2aWV3Qm94PSIwIDAgNDIgMzAiIHN0eWxlPSJlbmFibGUtYmFja2dyb3VuZDpuZXcgMCAwIDQyIDMwOyIgeG1sOnNwYWNlPSJwcmVzZXJ2ZSI+JiN4YTs8c29kaXBvZGk6bmFtZWR2aWV3IGJvcmRlcmNvbG9yPSIjNjY2NjY2IiBib3JkZXJvcGFjaXR5PSIxIiBmaXQtbWFyZ2luLWJvdHRvbT0iMCIgZml0LW1hcmdpbi1sZWZ0PSIwIiBmaXQtbWFyZ2luLXJpZ2h0PSIwIiBmaXQtbWFyZ2luLXRvcD0iMCIgZ3JpZHRvbGVyYW5jZT0iMTAiIGd1aWRldG9sZXJhbmNlPSIxMCIgaWQ9Im5hbWVkdmlldzIzMTMyIiBpbmtzY2FwZTpjdXJyZW50LWxheWVyPSJzdmcyMzEzMCIgaW5rc2NhcGU6Y3g9IjI2LjEzMzkyNSIgaW5rc2NhcGU6Y3k9IjE1Ljc4MzM2NSIgaW5rc2NhcGU6cGFnZW9wYWNpdHk9IjAiIGlua3NjYXBlOnBhZ2VzaGFkb3c9IjIiIGlua3NjYXBlOndpbmRvdy1oZWlnaHQ9IjEwMTciIGlua3NjYXBlOndpbmRvdy1tYXhpbWl6ZWQ9IjEiIGlua3NjYXBlOndpbmRvdy13aWR0aD0iMTkyMCIgaW5rc2NhcGU6d2luZG93LXg9Ii04IiBpbmtzY2FwZTp3aW5kb3cteT0iLTgiIGlua3NjYXBlOnpvb209IjE0LjU5NjcwNCIgb2JqZWN0dG9sZXJhbmNlPSIxMCIgcGFnZWNvbG9yPSIjZmZmZmZmIiBzaG93Z3JpZD0iZmFsc2UiPiYjeGE7CTwvc29kaXBvZGk6bmFtZWR2aWV3PiYjeGE7PGcgaWQ9ImcyMzEyOCIgdHJhbnNmb3JtPSJ0cmFuc2xhdGUoLTAuNzQ5OTkyMDMsLTAuNzQ5OTkyMDMpIj4mI3hhOwk8dGl0bGUgaWQ9InRpdGxlMjMwOTUiPlBhZ2UtMTwvdGl0bGU+JiN4YTsJPGcgaWQ9Imdyb3VwMTgxOS0xIiB0cmFuc2Zvcm09InRyYW5zbGF0ZSgxLjUsLTEuNSkiPiYjeGE7CQk8dGl0bGUgaWQ9InRpdGxlMjMwOTciPkFwcGxpY2F0aW9uICMxPC90aXRsZT4mI3hhOwkJPGcgaWQ9InNoYXBlMTgyMC0yIj4mI3hhOwkJCTx0aXRsZSBpZD0idGl0bGUyMzA5OSI+cmVjdDM3OTguMjc1OTE8L3RpdGxlPiYjeGE7CQkJJiN4YTsJCQkJPHBhdGggaWQ9InBhdGgyMzEwMSIgaW5rc2NhcGU6Y29ubmVjdG9yLWN1cnZhdHVyZT0iMCIgc3R5bGU9ImZpbGwtcnVsZTpldmVub2RkO2NsaXAtcnVsZTpldmVub2RkO2ZpbGw6I0ZGRkZGRjtzdHJva2U6IzU1NkE4QTtzdHJva2Utd2lkdGg6MS41O3N0cm9rZS1taXRlcmxpbWl0OjM7IiBkPSIgICAgIE0wLDI5Ljk1YzAsMC44NSwwLjY5LDEuNTUsMS41NCwxLjU1aDM3LjQxYzAuODUsMCwxLjU1LTAuNjksMS41NS0xLjU0YzAsMCwwLTAuMDEsMC0wLjAxVjQuNTRDNDAuNSwzLjY5LDM5LjgsMywzOC45NSwzSDEuNTQgICAgIEMwLjY5LDMsMCwzLjY5LDAsNC41NFYyOS45NXoiLz4mI3hhOwkJPC9nPiYjeGE7CQk8ZyBpZD0iZ3JvdXAxODIxLTQiIHRyYW5zZm9ybT0idHJhbnNsYXRlKDExLjI1LC02KSI+JiN4YTsJCQk8dGl0bGUgaWQ9InRpdGxlMjMxMDQiPmczODA4LjI3NTkyPC90aXRsZT4mI3hhOwkJCTxnIGlkPSJzaGFwZTE4MjItNSIgdHJhbnNmb3JtPSJ0cmFuc2xhdGUoMC42OTc1LC04Ljk5MjUpIj4mI3hhOwkJCQk8dGl0bGUgaWQ9InRpdGxlMjMxMDYiPnBvbHlnb24zODAyPC90aXRsZT4mI3hhOwkJCQk8cGF0aCBpZD0icGF0aDIzMTA4IiBpbmtzY2FwZTpjb25uZWN0b3ItY3VydmF0dXJlPSIwIiBzdHlsZT0iZmlsbC1ydWxlOmV2ZW5vZGQ7Y2xpcC1ydWxlOmV2ZW5vZGQ7ZmlsbDojMkJDN0Y0OyIgZD0iICAgICAgTTYuOCwyNC4zNkwwLDI3LjgxbDYuOCwzLjY5bDYuNzUtMy43Nkw2LjgsMjQuMzZ6Ii8+JiN4YTsJCQk8L2c+JiN4YTsJCQk8ZyBpZD0ic2hhcGUxODIzLTciPiYjeGE7CQkJCTx0aXRsZSBpZD0idGl0bGUyMzExMSI+cG9seWdvbjM4MDQ8L3RpdGxlPiYjeGE7CQkJCTxwYXRoIGlkPSJwYXRoMjMxMTMiIGlua3NjYXBlOmNvbm5lY3Rvci1jdXJ2YXR1cmU9IjAiIHN0eWxlPSJmaWxsLXJ1bGU6ZXZlbm9kZDtjbGlwLXJ1bGU6ZXZlbm9kZDtmaWxsOiMyQkM3RjQ7IiBkPSJNMCwyNy42NCAgICAgIGw2Ljc1LDMuODZ2LTguMjdMMCwxOS41NlYyNy42NHoiLz4mI3hhOwkJCTwvZz4mI3hhOwkJCTxnIGlkPSJzaGFwZTE4MjQtOSIgdHJhbnNmb3JtPSJ0cmFuc2xhdGUoOC4yNSkiPiYjeGE7CQkJCTx0aXRsZSBpZD0idGl0bGUyMzExNiI+cG9seWdvbjM4MDY8L3RpdGxlPiYjeGE7CQkJCTxwYXRoIGlkPSJwYXRoMjMxMTgiIGlua3NjYXBlOmNvbm5lY3Rvci1jdXJ2YXR1cmU9IjAiIHN0eWxlPSJmaWxsLXJ1bGU6ZXZlbm9kZDtjbGlwLXJ1bGU6ZXZlbm9kZDtmaWxsOiMyQkM3RjQ7IiBkPSIgICAgICBNNi43NSwyNy42NEwwLDMxLjV2LTguMjdsNi43NS0zLjY3VjI3LjY0eiIvPiYjeGE7CQkJPC9nPiYjeGE7CQk8L2c+JiN4YTsJCTxnIGlkPSJzaGFwZTE4MjUtMTEiIHRyYW5zZm9ybT0idHJhbnNsYXRlKDM2Ljc1LC0xMS4yNSkiPiYjeGE7CQkJPHRpdGxlIGlkPSJ0aXRsZTIzMTIyIj5yZWN0Mzg0Ni4yNzYwODwvdGl0bGU+JiN4YTsJCQk8cGF0aCBpZD0icGF0aDIzMTI0IiBpbmtzY2FwZTpjb25uZWN0b3ItY3VydmF0dXJlPSIwIiBzdHlsZT0iZmlsbC1ydWxlOmV2ZW5vZGQ7Y2xpcC1ydWxlOmV2ZW5vZGQ7ZmlsbDojOURBOEI3OyIgZD0iTTAsMzAuNzUgICAgIGMwLDAuNDEsMC4zNCwwLjc1LDAuNzUsMC43NWMwLjQxLDAsMC43NS0wLjM0LDAuNzUtMC43NXYtNC41YzAtMC40MS0wLjM0LTAuNzUtMC43NS0wLjc1QzAuMzQsMjUuNSwwLDI1Ljg0LDAsMjYuMjVWMzAuNzV6Ii8+JiN4YTsJCTwvZz4mI3hhOwk8L2c+JiN4YTs8L2c+JiN4YTs8L3N2Zz4=;" parent="1" vertex="1">
          <mxGeometry x="70" y="1724.29" width="120" height="85.71" as="geometry" />
        </mxCell>
        <mxCell id="0cbcKrgpYcrlJENanbfO-93" value="VISOR" style="text;html=1;strokeColor=none;fillColor=none;align=center;verticalAlign=middle;whiteSpace=wrap;rounded=0;" parent="1" vertex="1">
          <mxGeometry x="70" y="1810" width="120" height="40" as="geometry" />
        </mxCell>
        <mxCell id="0cbcKrgpYcrlJENanbfO-94" value="" style="sketch=0;aspect=fixed;html=1;points=[];align=center;image;fontSize=12;image=img/lib/mscae/BlobBlock.svg;" parent="1" vertex="1">
          <mxGeometry x="651.66" y="1724.29" width="83.33" height="70" as="geometry" />
        </mxCell>
        <mxCell id="0cbcKrgpYcrlJENanbfO-95" style="edgeStyle=orthogonalEdgeStyle;rounded=0;orthogonalLoop=1;jettySize=auto;html=1;entryX=-0.02;entryY=0.5;entryDx=0;entryDy=0;entryPerimeter=0;" parent="1" source="0cbcKrgpYcrlJENanbfO-96" target="0cbcKrgpYcrlJENanbfO-94" edge="1">
          <mxGeometry relative="1" as="geometry" />
        </mxCell>
        <mxCell id="0cbcKrgpYcrlJENanbfO-96" value="waf" style="ellipse;whiteSpace=wrap;html=1;" parent="1" vertex="1">
          <mxGeometry x="330" y="1719.29" width="120" height="80" as="geometry" />
        </mxCell>
        <mxCell id="0cbcKrgpYcrlJENanbfO-97" value="urlSasToken" style="text;html=1;strokeColor=none;fillColor=none;align=center;verticalAlign=middle;whiteSpace=wrap;rounded=0;" parent="1" vertex="1">
          <mxGeometry x="190" y="1714.29" width="120" height="40" as="geometry" />
        </mxCell>
        <mxCell id="0cbcKrgpYcrlJENanbfO-98" value="BLOBSTORAGE" style="text;html=1;strokeColor=none;fillColor=none;align=center;verticalAlign=middle;whiteSpace=wrap;rounded=0;" parent="1" vertex="1">
          <mxGeometry x="670" y="1604.29" width="120" height="40" as="geometry" />
        </mxCell>
        <mxCell id="0cbcKrgpYcrlJENanbfO-99" value="BLOBSTORAGE" style="text;html=1;strokeColor=none;fillColor=none;align=center;verticalAlign=middle;whiteSpace=wrap;rounded=0;" parent="1" vertex="1">
          <mxGeometry x="633.33" y="1794.29" width="120" height="40" as="geometry" />
        </mxCell>
        <mxCell id="0cbcKrgpYcrlJENanbfO-100" value="PASO1 ASINCRONO&lt;br&gt;GENERACION Y CARGA DE ARCHIVO" style="text;html=1;strokeColor=none;fillColor=none;align=center;verticalAlign=middle;whiteSpace=wrap;rounded=0;" parent="1" vertex="1">
          <mxGeometry x="60" y="1074.29" width="120" height="70" as="geometry" />
        </mxCell>
        <mxCell id="0cbcKrgpYcrlJENanbfO-101" value="PASO 2&lt;br&gt;VALIDACION Y OBTENCION DE TOKEN SAS" style="text;html=1;strokeColor=none;fillColor=none;align=center;verticalAlign=middle;whiteSpace=wrap;rounded=0;" parent="1" vertex="1">
          <mxGeometry x="60" y="1424.29" width="120" height="70" as="geometry" />
        </mxCell>
        <mxCell id="0cbcKrgpYcrlJENanbfO-102" value="PASO 3&lt;br&gt;DESCARGA DEL ARCHIVO" style="text;html=1;strokeColor=none;fillColor=none;align=center;verticalAlign=middle;whiteSpace=wrap;rounded=0;" parent="1" vertex="1">
          <mxGeometry x="70" y="1850" width="120" height="70" as="geometry" />
        </mxCell>
        <mxCell id="0cbcKrgpYcrlJENanbfO-103" value="/report-general" style="text;html=1;strokeColor=none;fillColor=none;align=center;verticalAlign=middle;whiteSpace=wrap;rounded=0;" parent="1" vertex="1">
          <mxGeometry x="330" y="1104.29" width="120" height="30" as="geometry" />
        </mxCell>
        <mxCell id="0cbcKrgpYcrlJENanbfO-104" value="Request&lt;br&gt;String: fileName&lt;br&gt;T: filter" style="text;html=1;strokeColor=none;fillColor=none;align=center;verticalAlign=middle;whiteSpace=wrap;rounded=0;" parent="1" vertex="1">
          <mxGeometry x="400" y="1054.29" width="120" height="70" as="geometry" />
        </mxCell>
        <mxCell id="0cbcKrgpYcrlJENanbfO-105" value="Sube el archivo" style="text;html=1;strokeColor=none;fillColor=none;align=center;verticalAlign=middle;whiteSpace=wrap;rounded=0;" parent="1" vertex="1">
          <mxGeometry x="474" y="1174.29" width="120" height="50" as="geometry" />
        </mxCell>
        <mxCell id="0cbcKrgpYcrlJENanbfO-106" style="edgeStyle=orthogonalEdgeStyle;rounded=0;orthogonalLoop=1;jettySize=auto;html=1;entryX=0;entryY=0.25;entryDx=0;entryDy=0;" parent="1" edge="1">
          <mxGeometry relative="1" as="geometry">
            <mxPoint x="360" y="1364.29" as="sourcePoint" />
            <mxPoint x="180" y="1364.29" as="targetPoint" />
            <Array as="points">
              <mxPoint x="360" y="1364.62" />
            </Array>
          </mxGeometry>
        </mxCell>
        <mxCell id="0cbcKrgpYcrlJENanbfO-107" value="Response&lt;br&gt;String: UrlTokenSas" style="text;html=1;strokeColor=none;fillColor=none;align=center;verticalAlign=middle;whiteSpace=wrap;rounded=0;" parent="1" vertex="1">
          <mxGeometry x="190" y="1364.29" width="120" height="60" as="geometry" />
        </mxCell>
        <mxCell id="0cbcKrgpYcrlJENanbfO-108" value="Request&lt;br&gt;String: fileName&lt;br&gt;" style="text;html=1;strokeColor=none;fillColor=none;align=center;verticalAlign=middle;whiteSpace=wrap;rounded=0;" parent="1" vertex="1">
          <mxGeometry x="280" y="1404.29" width="120" height="60" as="geometry" />
        </mxCell>
        <mxCell id="0cbcKrgpYcrlJENanbfO-109" value="Response&lt;br&gt;String: UrlTokenSas" style="text;html=1;strokeColor=none;fillColor=none;align=center;verticalAlign=middle;whiteSpace=wrap;rounded=0;" parent="1" vertex="1">
          <mxGeometry x="436" y="1434.29" width="120" height="60" as="geometry" />
        </mxCell>
        <mxCell id="0cbcKrgpYcrlJENanbfO-110" style="edgeStyle=orthogonalEdgeStyle;rounded=0;orthogonalLoop=1;jettySize=auto;html=1;" parent="1" edge="1">
          <mxGeometry relative="1" as="geometry">
            <mxPoint x="430" y="1534.95" as="sourcePoint" />
            <mxPoint x="430" y="1383.6299999999999" as="targetPoint" />
            <Array as="points">
              <mxPoint x="430" y="1444.95" />
              <mxPoint x="430" y="1444.95" />
            </Array>
          </mxGeometry>
        </mxCell>
        <mxCell id="0cbcKrgpYcrlJENanbfO-111" style="edgeStyle=orthogonalEdgeStyle;rounded=0;orthogonalLoop=1;jettySize=auto;html=1;entryX=-0.028;entryY=0.767;entryDx=0;entryDy=0;entryPerimeter=0;" parent="1" edge="1">
          <mxGeometry relative="1" as="geometry">
            <mxPoint x="452" y="1566.29" as="targetPoint" />
            <mxPoint x="685.9867599999998" y="1564.3200000000002" as="sourcePoint" />
            <Array as="points">
              <mxPoint x="680" y="1564.29" />
              <mxPoint x="680" y="1566.29" />
            </Array>
          </mxGeometry>
        </mxCell>
        <mxCell id="0cbcKrgpYcrlJENanbfO-112" value="GeneraciÃ³n de tokenSas para fileName" style="text;html=1;strokeColor=none;fillColor=none;align=center;verticalAlign=middle;whiteSpace=wrap;rounded=0;" parent="1" vertex="1">
          <mxGeometry x="500" y="1594.29" width="120" height="60" as="geometry" />
        </mxCell>
        <mxCell id="0cbcKrgpYcrlJENanbfO-113" value="TokenSas" style="text;html=1;strokeColor=none;fillColor=none;align=center;verticalAlign=middle;whiteSpace=wrap;rounded=0;" parent="1" vertex="1">
          <mxGeometry x="490" y="1524.29" width="120" height="40" as="geometry" />
        </mxCell>
        <mxCell id="0cbcKrgpYcrlJENanbfO-114" value="/closure-alerts" style="text;html=1;strokeColor=none;fillColor=none;align=center;verticalAlign=middle;whiteSpace=wrap;rounded=0;" parent="1" vertex="1">
          <mxGeometry x="1350" y="810" width="120" height="30" as="geometry" />
        </mxCell>
        <mxCell id="0cbcKrgpYcrlJENanbfO-120" style="edgeStyle=orthogonalEdgeStyle;rounded=0;orthogonalLoop=1;jettySize=auto;html=1;entryX=0;entryY=0.25;entryDx=0;entryDy=0;" parent="1" edge="1">
          <mxGeometry relative="1" as="geometry">
            <mxPoint x="1370" y="900.0000000000001" as="sourcePoint" />
            <mxPoint x="1150" y="900.0300000000001" as="targetPoint" />
            <Array as="points">
              <mxPoint x="1359" y="900.33" />
            </Array>
          </mxGeometry>
        </mxCell>
        <mxCell id="0cbcKrgpYcrlJENanbfO-121" value="/masive-rating" style="text;html=1;strokeColor=none;fillColor=none;align=center;verticalAlign=middle;whiteSpace=wrap;rounded=0;" parent="1" vertex="1">
          <mxGeometry x="1300" y="995.61" width="120" height="30" as="geometry" />
        </mxCell>
        <mxCell id="0cbcKrgpYcrlJENanbfO-123" value="" style="sketch=0;aspect=fixed;html=1;points=[];align=center;image;fontSize=12;image=img/lib/mscae/BlobBlock.svg;" parent="1" vertex="1">
          <mxGeometry x="1640" y="1034.29" width="83.33" height="70" as="geometry" />
        </mxCell>
        <mxCell id="0cbcKrgpYcrlJENanbfO-124" value="Request&lt;br&gt;String: fileName&lt;br&gt;" style="text;html=1;strokeColor=none;fillColor=none;align=center;verticalAlign=middle;whiteSpace=wrap;rounded=0;" parent="1" vertex="1">
          <mxGeometry x="1290" y="951.42" width="120" height="38.58" as="geometry" />
        </mxCell>
        <mxCell id="0cbcKrgpYcrlJENanbfO-125" value="BLOBSTORAGE" style="text;html=1;strokeColor=none;fillColor=none;align=center;verticalAlign=middle;whiteSpace=wrap;rounded=0;" parent="1" vertex="1">
          <mxGeometry x="1701.66" y="400" width="120" height="40" as="geometry" />
        </mxCell>
        <mxCell id="0cbcKrgpYcrlJENanbfO-126" value="BLOBSTORAGE" style="text;html=1;strokeColor=none;fillColor=none;align=center;verticalAlign=middle;whiteSpace=wrap;rounded=0;" parent="1" vertex="1">
          <mxGeometry x="1618.34" y="640" width="120" height="40" as="geometry" />
        </mxCell>
        <mxCell id="0cbcKrgpYcrlJENanbfO-127" value="BLOBSTORAGE" style="text;html=1;strokeColor=none;fillColor=none;align=center;verticalAlign=middle;whiteSpace=wrap;rounded=0;" parent="1" vertex="1">
          <mxGeometry x="1621.6599999999999" y="1104.29" width="120" height="40" as="geometry" />
        </mxCell>
        <mxCell id="0cbcKrgpYcrlJENanbfO-129" value="getFile(fileName)" style="text;html=1;strokeColor=none;fillColor=none;align=center;verticalAlign=middle;whiteSpace=wrap;rounded=0;" parent="1" vertex="1">
          <mxGeometry x="1490" y="1080" width="120" height="34.29" as="geometry" />
        </mxCell>
        <mxCell id="KRZaoDTdxEfFL83f29zF-1" value="CBAF" style="rounded=0;whiteSpace=wrap;html=1;labelPosition=center;verticalLabelPosition=top;align=right;verticalAlign=bottom;fillColor=#dae8fc;strokeColor=#6c8ebf;" parent="1" vertex="1">
          <mxGeometry x="81.5" y="2120" width="280" height="270" as="geometry" />
        </mxCell>
        <mxCell id="KRZaoDTdxEfFL83f29zF-13" style="edgeStyle=orthogonalEdgeStyle;rounded=0;orthogonalLoop=1;jettySize=auto;html=1;" parent="1" source="KRZaoDTdxEfFL83f29zF-2" target="KRZaoDTdxEfFL83f29zF-6" edge="1">
          <mxGeometry relative="1" as="geometry" />
        </mxCell>
        <mxCell id="KRZaoDTdxEfFL83f29zF-2" value="Plantilla: Alerta de consumo&lt;br&gt;Destino: xxx@xxx.xxx (cliente)" style="rounded=1;whiteSpace=wrap;html=1;" parent="1" vertex="1">
          <mxGeometry x="101.5" y="2150" width="240" height="60" as="geometry" />
        </mxCell>
        <mxCell id="KRZaoDTdxEfFL83f29zF-15" style="edgeStyle=orthogonalEdgeStyle;rounded=0;orthogonalLoop=1;jettySize=auto;html=1;" parent="1" source="KRZaoDTdxEfFL83f29zF-3" target="KRZaoDTdxEfFL83f29zF-8" edge="1">
          <mxGeometry relative="1" as="geometry" />
        </mxCell>
        <mxCell id="KRZaoDTdxEfFL83f29zF-3" value="Plantilla: Solicitud de bloqueo&lt;br&gt;Remitente: apfxpro@bcp.com.pe&lt;br&gt;Destino: SolDopsFraudesPro@bcp.com.pe&lt;br&gt;(buzon interno)" style="rounded=1;whiteSpace=wrap;html=1;" parent="1" vertex="1">
          <mxGeometry x="101.5" y="2300" width="240" height="60" as="geometry" />
        </mxCell>
        <mxCell id="KRZaoDTdxEfFL83f29zF-14" style="edgeStyle=orthogonalEdgeStyle;rounded=0;orthogonalLoop=1;jettySize=auto;html=1;" parent="1" source="KRZaoDTdxEfFL83f29zF-4" target="KRZaoDTdxEfFL83f29zF-7" edge="1">
          <mxGeometry relative="1" as="geometry" />
        </mxCell>
        <mxCell id="KRZaoDTdxEfFL83f29zF-4" value="Plantilla: Early Warning&lt;br&gt;Destino: xxx@xxx.xxx (cliente)" style="rounded=1;whiteSpace=wrap;html=1;" parent="1" vertex="1">
          <mxGeometry x="101.5" y="2220" width="240" height="60" as="geometry" />
        </mxCell>
        <mxCell id="KRZaoDTdxEfFL83f29zF-6" value="Alerta de consumo&lt;br&gt;Remitente: bcpalertasyavisos@bcp.com.pe&lt;br&gt;Destino: xxx@xxx.xxx (cliente)" style="rounded=1;whiteSpace=wrap;html=1;" parent="1" vertex="1">
          <mxGeometry x="431.5" y="2150" width="260" height="60" as="geometry" />
        </mxCell>
        <mxCell id="KRZaoDTdxEfFL83f29zF-7" value="Early Warning&lt;br&gt;Remitente: bcpalertasyavisos@bcp.com.pe&lt;br&gt;Destino: xxx@xxx.xxx (cliente)" style="rounded=1;whiteSpace=wrap;html=1;" parent="1" vertex="1">
          <mxGeometry x="431.5" y="2220" width="260" height="60" as="geometry" />
        </mxCell>
        <mxCell id="KRZaoDTdxEfFL83f29zF-8" value="Email: Solicitud de bloqueo&lt;br&gt;Remitente: apfxpro@bcp.com.pe&lt;br&gt;Destino: SolDopsFraudesPro@bcp.com.pe" style="rounded=1;whiteSpace=wrap;html=1;" parent="1" vertex="1">
          <mxGeometry x="431.5" y="2300" width="260" height="60" as="geometry" />
        </mxCell>
        <mxCell id="KRZaoDTdxEfFL83f29zF-9" value="BOT BLOQUEO" style="rounded=0;whiteSpace=wrap;html=1;labelPosition=center;verticalLabelPosition=top;align=right;verticalAlign=bottom;fillColor=#e1d5e7;strokeColor=#9673a6;" parent="1" vertex="1">
          <mxGeometry x="81.5" y="2420" width="280" height="80" as="geometry" />
        </mxCell>
        <mxCell id="KRZaoDTdxEfFL83f29zF-16" style="edgeStyle=orthogonalEdgeStyle;rounded=0;orthogonalLoop=1;jettySize=auto;html=1;" parent="1" source="KRZaoDTdxEfFL83f29zF-11" target="KRZaoDTdxEfFL83f29zF-12" edge="1">
          <mxGeometry relative="1" as="geometry" />
        </mxCell>
        <mxCell id="KRZaoDTdxEfFL83f29zF-11" value="Plantilla: ConfirmaciÃ³n de bloqueo&lt;br&gt;Destino: xxx@xxx.xxx (cliente)" style="rounded=1;whiteSpace=wrap;html=1;" parent="1" vertex="1">
          <mxGeometry x="101.5" y="2430" width="240" height="60" as="geometry" />
        </mxCell>
        <mxCell id="KRZaoDTdxEfFL83f29zF-12" value="Email: ConfirmaciÃ³n de bloqueo&lt;br&gt;Remitente: bcpalertasyavisos@bcp.com.pe&lt;br&gt;Destino: xxx@xxx.xxx (cliente)" style="rounded=1;whiteSpace=wrap;html=1;" parent="1" vertex="1">
          <mxGeometry x="431.5" y="2430" width="260" height="60" as="geometry" />
        </mxCell>
      </root>
    </mxGraphModel>
  </diagram>
</mxfile>
